<svg width="864" height="425" viewBox="0 0 864 425" fill="none" xmlns="http://www.w3.org/2000/svg">
	<g opacity="0.15">
		<rect x="20" y="289" width="10" height="10" fill="#1E2120"/>
		<rect x="20" y="217" width="10" height="10" fill="#1E2120"/>
		<rect x="20" y="397" width="10" height="10" fill="#1E2120"/>
		<rect x="20" y="253" width="10" height="10" fill="#1E2120"/>
		<rect y="180" width="10" height="10" fill="#1E2120"/>
		<rect x="20" y="415" width="10" height="10" fill="#1E2120"/>
		<rect x="20" y="271" width="10" height="10" fill="#1E2120"/>
		<rect y="198" width="10" height="10" fill="#1E2120"/>
		<rect x="20" y="198" width="10" height="10" fill="#1E2120"/>
		<rect x="20" y="307" width="10" height="10" fill="#1E2120"/>
		<rect x="20" y="235" width="10" height="10" fill="#1E2120"/>
		<rect x="40" y="361" width="10" height="10" fill="#1E2120"/>
		<rect x="60" y="361" width="10" height="10" fill="#1E2120"/>
		<rect x="40" y="289" width="10" height="10" fill="#1E2120"/>
		<rect x="60" y="289" width="10" height="10" fill="#1E2120"/>
		<rect x="40" y="397" width="10" height="10" fill="#1E2120"/>
		<rect x="60" y="325" width="10" height="10" fill="#1E2120"/>
		<rect x="40" y="415" width="10" height="10" fill="#1E2120"/>
		<rect x="60" y="415" width="10" height="10" fill="#1E2120"/>
		<rect x="60" y="343" width="10" height="10" fill="#1E2120"/>
		<rect x="40" y="379" width="10" height="10" fill="#1E2120"/>
		<rect x="40" y="307" width="10" height="10" fill="#1E2120"/>
		<rect x="60" y="307" width="10" height="10" fill="#1E2120"/>
		<rect x="80" y="289" width="10" height="10" fill="#1E2120"/>
		<rect x="100" y="289" width="10" height="10" fill="#1E2120"/>
		<rect x="80" y="325" width="10" height="10" fill="#1E2120"/>
		<rect x="80" y="415" width="10" height="10" fill="#1E2120"/>
		<rect x="100" y="415" width="10" height="10" fill="#1E2120"/>
		<rect x="80" y="307" width="10" height="10" fill="#1E2120"/>
		<rect x="100" y="307" width="10" height="10" fill="#1E2120"/>
		<rect x="120" y="289" width="10" height="10" fill="#1E2120"/>
		<rect x="120" y="307" width="10" height="10" fill="#1E2120"/>
		<rect x="202" y="415" width="10" height="10" fill="#1E2120"/>
		<rect x="202" y="199" width="10" height="10" fill="#1E2120"/>
		<rect x="202" y="126" width="10" height="10" fill="#1E2120"/>
		<rect x="202" y="54" width="10" height="10" fill="#1E2120"/>
		<rect x="202" y="162" width="10" height="10" fill="#1E2120"/>
		<rect x="202" y="90" width="10" height="10" fill="#1E2120"/>
		<rect x="202" y="18" width="10" height="10" fill="#1E2120"/>
		<rect x="202" y="180" width="10" height="10" fill="#1E2120"/>
		<rect x="202" y="108" width="10" height="10" fill="#1E2120"/>
		<rect x="202" y="36" width="10" height="10" fill="#1E2120"/>
		<rect x="202" y="217" width="10" height="10" fill="#1E2120"/>
		<rect x="202" y="144" width="10" height="10" fill="#1E2120"/>
		<rect x="202" y="72" width="10" height="10" fill="#1E2120"/>
		<rect x="202" width="10" height="10" fill="#1E2120"/>
		<rect x="222" y="415" width="10" height="10" fill="#1E2120"/>
		<rect x="242" y="415" width="10" height="10" fill="#1E2120"/>
		<rect x="222" y="343" width="10" height="10" fill="#1E2120"/>
		<rect x="222" y="271" width="10" height="10" fill="#1E2120"/>
		<rect x="222" y="199" width="10" height="10" fill="#1E2120"/>
		<rect x="242" y="199" width="10" height="10" fill="#1E2120"/>
		<rect x="222" y="126" width="10" height="10" fill="#1E2120"/>
		<rect x="242" y="126" width="10" height="10" fill="#1E2120"/>
		<rect x="222" y="54" width="10" height="10" fill="#1E2120"/>
		<rect x="242" y="54" width="10" height="10" fill="#1E2120"/>
		<rect x="222" y="379" width="10" height="10" fill="#1E2120"/>
		<rect x="222" y="307" width="10" height="10" fill="#1E2120"/>
		<rect x="222" y="235" width="10" height="10" fill="#1E2120"/>
		<rect x="222" y="162" width="10" height="10" fill="#1E2120"/>
		<rect x="242" y="162" width="10" height="10" fill="#1E2120"/>
		<rect x="222" y="90" width="10" height="10" fill="#1E2120"/>
		<rect x="242" y="90" width="10" height="10" fill="#1E2120"/>
		<rect x="222" y="18" width="10" height="10" fill="#1E2120"/>
		<rect x="242" y="18" width="10" height="10" fill="#1E2120"/>
		<rect x="222" y="397" width="10" height="10" fill="#1E2120"/>
		<rect x="222" y="325" width="10" height="10" fill="#1E2120"/>
		<rect x="222" y="253" width="10" height="10" fill="#1E2120"/>
		<rect x="222" y="180" width="10" height="10" fill="#1E2120"/>
		<rect x="242" y="180" width="10" height="10" fill="#1E2120"/>
		<rect x="222" y="108" width="10" height="10" fill="#1E2120"/>
		<rect x="242" y="108" width="10" height="10" fill="#1E2120"/>
		<rect x="222" y="36" width="10" height="10" fill="#1E2120"/>
		<rect x="242" y="36" width="10" height="10" fill="#1E2120"/>
		<rect x="222" y="361" width="10" height="10" fill="#1E2120"/>
		<rect x="222" y="289" width="10" height="10" fill="#1E2120"/>
		<rect x="222" y="217" width="10" height="10" fill="#1E2120"/>
		<rect x="242" y="217" width="10" height="10" fill="#1E2120"/>
		<rect x="222" y="144" width="10" height="10" fill="#1E2120"/>
		<rect x="242" y="144" width="10" height="10" fill="#1E2120"/>
		<rect x="222" y="72" width="10" height="10" fill="#1E2120"/>
		<rect x="242" y="72" width="10" height="10" fill="#1E2120"/>
		<rect x="222" width="10" height="10" fill="#1E2120"/>
		<rect x="242" width="10" height="10" fill="#1E2120"/>
		<rect x="262" y="199" width="10" height="10" fill="#1E2120"/>
		<rect x="282" y="199" width="10" height="10" fill="#1E2120"/>
		<rect x="262" y="126" width="10" height="10" fill="#1E2120"/>
		<rect x="282" y="126" width="10" height="10" fill="#1E2120"/>
		<rect x="262" y="54" width="10" height="10" fill="#1E2120"/>
		<rect x="282" y="54" width="10" height="10" fill="#1E2120"/>
		<rect x="282" y="235" width="10" height="10" fill="#1E2120"/>
		<rect x="262" y="162" width="10" height="10" fill="#1E2120"/>
		<rect x="282" y="162" width="10" height="10" fill="#1E2120"/>
		<rect x="262" y="90" width="10" height="10" fill="#1E2120"/>
		<rect x="282" y="90" width="10" height="10" fill="#1E2120"/>
		<rect x="262" y="18" width="10" height="10" fill="#1E2120"/>
		<rect x="282" y="18" width="10" height="10" fill="#1E2120"/>
		<rect x="262" y="180" width="10" height="10" fill="#1E2120"/>
		<rect x="282" y="180" width="10" height="10" fill="#1E2120"/>
		<rect x="262" y="108" width="10" height="10" fill="#1E2120"/>
		<rect x="282" y="108" width="10" height="10" fill="#1E2120"/>
		<rect x="262" y="36" width="10" height="10" fill="#1E2120"/>
		<rect x="282" y="36" width="10" height="10" fill="#1E2120"/>
		<rect x="262" y="217" width="10" height="10" fill="#1E2120"/>
		<rect x="282" y="217" width="10" height="10" fill="#1E2120"/>
		<rect x="262" y="144" width="10" height="10" fill="#1E2120"/>
		<rect x="282" y="144" width="10" height="10" fill="#1E2120"/>
		<rect x="262" y="72" width="10" height="10" fill="#1E2120"/>
		<rect x="282" y="72" width="10" height="10" fill="#1E2120"/>
		<rect x="262" width="10" height="10" fill="#1E2120"/>
		<rect x="302" y="415" width="10" height="10" fill="#1E2120"/>
		<rect x="322" y="415" width="10" height="10" fill="#1E2120"/>
		<rect x="322" y="343" width="10" height="10" fill="#1E2120"/>
		<rect x="322" y="271" width="10" height="10" fill="#1E2120"/>
		<rect x="302" y="199" width="10" height="10" fill="#1E2120"/>
		<rect x="322" y="199" width="10" height="10" fill="#1E2120"/>
		<rect x="302" y="126" width="10" height="10" fill="#1E2120"/>
		<rect x="322" y="126" width="10" height="10" fill="#1E2120"/>
		<rect x="302" y="54" width="10" height="10" fill="#1E2120"/>
		<rect x="322" y="54" width="10" height="10" fill="#1E2120"/>
		<rect x="322" y="379" width="10" height="10" fill="#1E2120"/>
		<rect x="322" y="307" width="10" height="10" fill="#1E2120"/>
		<rect x="302" y="235" width="10" height="10" fill="#1E2120"/>
		<rect x="322" y="235" width="10" height="10" fill="#1E2120"/>
		<rect x="302" y="162" width="10" height="10" fill="#1E2120"/>
		<rect x="322" y="162" width="10" height="10" fill="#1E2120"/>
		<rect x="302" y="90" width="10" height="10" fill="#1E2120"/>
		<rect x="322" y="90" width="10" height="10" fill="#1E2120"/>
		<rect x="302" y="18" width="10" height="10" fill="#1E2120"/>
		<rect x="322" y="18" width="10" height="10" fill="#1E2120"/>
		<rect x="322" y="397" width="10" height="10" fill="#1E2120"/>
		<rect x="322" y="325" width="10" height="10" fill="#1E2120"/>
		<rect x="322" y="253" width="10" height="10" fill="#1E2120"/>
		<rect x="302" y="180" width="10" height="10" fill="#1E2120"/>
		<rect x="322" y="180" width="10" height="10" fill="#1E2120"/>
		<rect x="302" y="108" width="10" height="10" fill="#1E2120"/>
		<rect x="322" y="108" width="10" height="10" fill="#1E2120"/>
		<rect x="302" y="36" width="10" height="10" fill="#1E2120"/>
		<rect x="322" y="36" width="10" height="10" fill="#1E2120"/>
		<rect x="322" y="361" width="10" height="10" fill="#1E2120"/>
		<rect x="322" y="289" width="10" height="10" fill="#1E2120"/>
		<rect x="302" y="217" width="10" height="10" fill="#1E2120"/>
		<rect x="322" y="217" width="10" height="10" fill="#1E2120"/>
		<rect x="302" y="144" width="10" height="10" fill="#1E2120"/>
		<rect x="322" y="144" width="10" height="10" fill="#1E2120"/>
		<rect x="302" y="72" width="10" height="10" fill="#1E2120"/>
		<rect x="322" y="72" width="10" height="10" fill="#1E2120"/>
		<rect x="342" y="415" width="10" height="10" fill="#1E2120"/>
		<rect x="342" y="199" width="10" height="10" fill="#1E2120"/>
		<rect x="342" y="126" width="10" height="10" fill="#1E2120"/>
		<rect x="342" y="54" width="10" height="10" fill="#1E2120"/>
		<rect x="342" y="235" width="10" height="10" fill="#1E2120"/>
		<rect x="342" y="162" width="10" height="10" fill="#1E2120"/>
		<rect x="342" y="90" width="10" height="10" fill="#1E2120"/>
		<rect x="342" y="18" width="10" height="10" fill="#1E2120"/>
		<rect x="342" y="180" width="10" height="10" fill="#1E2120"/>
		<rect x="342" y="108" width="10" height="10" fill="#1E2120"/>
		<rect x="342" y="36" width="10" height="10" fill="#1E2120"/>
		<rect x="342" y="217" width="10" height="10" fill="#1E2120"/>
		<rect x="342" y="144" width="10" height="10" fill="#1E2120"/>
		<rect x="342" y="72" width="10" height="10" fill="#1E2120"/>
		<rect x="420" y="199" width="10" height="10" fill="#1E2120"/>
		<rect x="440" y="199" width="10" height="10" fill="#1E2120"/>
		<rect x="420" y="217" width="10" height="10" fill="#1E2120"/>
		<rect x="440" y="217" width="10" height="10" fill="#1E2120"/>
		<rect x="460" y="415" width="10" height="10" fill="#1E2120"/>
		<rect x="460" y="343" width="10" height="10" fill="#1E2120"/>
		<rect x="480" y="343" width="10" height="10" fill="#1E2120"/>
		<rect x="480" y="271" width="10" height="10" fill="#1E2120"/>
		<rect x="460" y="199" width="10" height="10" fill="#1E2120"/>
		<rect x="480" y="199" width="10" height="10" fill="#1E2120"/>
		<rect x="460" y="379" width="10" height="10" fill="#1E2120"/>
		<rect x="480" y="307" width="10" height="10" fill="#1E2120"/>
		<rect x="480" y="235" width="10" height="10" fill="#1E2120"/>
		<rect x="460" y="397" width="10" height="10" fill="#1E2120"/>
		<rect x="480" y="325" width="10" height="10" fill="#1E2120"/>
		<rect x="480" y="253" width="10" height="10" fill="#1E2120"/>
		<rect x="460" y="361" width="10" height="10" fill="#1E2120"/>
		<rect x="480" y="289" width="10" height="10" fill="#1E2120"/>
		<rect x="460" y="217" width="10" height="10" fill="#1E2120"/>
		<rect x="480" y="217" width="10" height="10" fill="#1E2120"/>
		<rect x="500" y="199" width="10" height="10" fill="#1E2120"/>
		<rect x="520" y="199" width="10" height="10" fill="#1E2120"/>
		<rect x="520" y="126" width="10" height="10" fill="#1E2120"/>
		<rect x="520" y="54" width="10" height="10" fill="#1E2120"/>
		<rect x="500" y="54" width="10" height="10" fill="#1E2120"/>
		<rect x="500" y="162" width="10" height="10" fill="#1E2120"/>
		<rect x="520" y="90" width="10" height="10" fill="#1E2120"/>
		<rect x="500" y="180" width="10" height="10" fill="#1E2120"/>
		<rect x="500" y="36" width="10" height="10" fill="#1E2120"/>
		<rect x="500" y="217" width="10" height="10" fill="#1E2120"/>
		<rect x="520" y="217" width="10" height="10" fill="#1E2120"/>
		<rect x="500" y="144" width="10" height="10" fill="#1E2120"/>
		<rect x="540" y="199" width="10" height="10" fill="#1E2120"/>
		<rect x="560" y="199" width="10" height="10" fill="#1E2120"/>
		<rect x="540" y="126" width="10" height="10" fill="#1E2120"/>
		<rect x="560" y="126" width="10" height="10" fill="#1E2120"/>
		<rect x="560" y="162" width="10" height="10" fill="#1E2120"/>
		<rect x="580" y="162" width="10" height="10" fill="#1E2120"/>
		<rect x="540" y="90" width="10" height="10" fill="#1E2120"/>
		<rect x="540" y="108" width="10" height="10" fill="#1E2120"/>
		<rect x="540" y="217" width="10" height="10" fill="#1E2120"/>
		<rect x="560" y="217" width="10" height="10" fill="#1E2120"/>
		<rect x="560" y="144" width="10" height="10" fill="#1E2120"/>
		<rect x="520" y="72" width="10" height="10" fill="#1E2120"/>
		<rect x="580" y="199" width="10" height="10" fill="#1E2120"/>
		<rect x="600" y="199" width="10" height="10" fill="#1E2120"/>
		<rect x="580" y="217" width="10" height="10" fill="#1E2120"/>
		<rect x="600" y="217" width="10" height="10" fill="#1E2120"/>
		<rect x="640" y="343" width="10" height="10" fill="#1E2120"/>
		<rect x="640" y="271" width="10" height="10" fill="#1E2120"/>
		<rect x="620" y="199" width="10" height="10" fill="#1E2120"/>
		<rect x="640" y="199" width="10" height="10" fill="#1E2120"/>
		<rect x="640" y="307" width="10" height="10" fill="#1E2120"/>
		<rect x="640" y="235" width="10" height="10" fill="#1E2120"/>
		<rect x="640" y="325" width="10" height="10" fill="#1E2120"/>
		<rect x="640" y="253" width="10" height="10" fill="#1E2120"/>
		<rect x="640" y="289" width="10" height="10" fill="#1E2120"/>
		<rect x="620" y="217" width="10" height="10" fill="#1E2120"/>
		<rect x="640" y="217" width="10" height="10" fill="#1E2120"/>
		<rect x="660" y="415" width="10" height="10" fill="#1E2120"/>
		<rect x="660" y="343" width="10" height="10" fill="#1E2120"/>
		<rect x="660" y="199" width="10" height="10" fill="#1E2120"/>
		<rect x="680" y="199" width="10" height="10" fill="#1E2120"/>
		<rect x="660" y="379" width="10" height="10" fill="#1E2120"/>
		<rect x="660" y="397" width="10" height="10" fill="#1E2120"/>
		<rect x="660" y="361" width="10" height="10" fill="#1E2120"/>
		<rect x="660" y="217" width="10" height="10" fill="#1E2120"/>
		<rect x="680" y="217" width="10" height="10" fill="#1E2120"/>
		<rect x="700" y="199" width="10" height="10" fill="#1E2120"/>
		<rect x="700" y="217" width="10" height="10" fill="#1E2120"/>
		<rect x="734" y="361" width="10" height="10" fill="#1E2120"/>
		<rect x="714" y="289" width="10" height="10" fill="#1E2120"/>
		<rect x="734" y="289" width="10" height="10" fill="#1E2120"/>
		<rect x="734" y="397" width="10" height="10" fill="#1E2120"/>
		<rect x="734" y="415" width="10" height="10" fill="#1E2120"/>
		<rect x="734" y="343" width="10" height="10" fill="#1E2120"/>
		<rect x="734" y="379" width="10" height="10" fill="#1E2120"/>
		<rect x="734" y="307" width="10" height="10" fill="#1E2120"/>
		<rect x="754" y="289" width="10" height="10" fill="#1E2120"/>
		<rect x="774" y="289" width="10" height="10" fill="#1E2120"/>
		<rect x="754" y="325" width="10" height="10" fill="#1E2120"/>
		<rect x="754" y="307" width="10" height="10" fill="#1E2120"/>
		<rect x="774" y="307" width="10" height="10" fill="#1E2120"/>
		<rect x="814" y="361" width="10" height="10" fill="#1E2120"/>
		<rect x="794" y="289" width="10" height="10" fill="#1E2120"/>
		<rect x="814" y="289" width="10" height="10" fill="#1E2120"/>
		<rect x="814" y="397" width="10" height="10" fill="#1E2120"/>
		<rect x="794" y="325" width="10" height="10" fill="#1E2120"/>
		<rect x="814" y="415" width="10" height="10" fill="#1E2120"/>
		<rect x="814" y="343" width="10" height="10" fill="#1E2120"/>
		<rect x="814" y="271" width="10" height="10" fill="#1E2120"/>
		<rect x="814" y="379" width="10" height="10" fill="#1E2120"/>
		<rect x="794" y="307" width="10" height="10" fill="#1E2120"/>
		<rect x="814" y="307" width="10" height="10" fill="#1E2120"/>
		<rect x="834" y="289" width="10" height="10" fill="#1E2120"/>
		<rect x="834" y="217" width="10" height="10" fill="#1E2120"/>
		<rect x="854" y="217" width="10" height="10" fill="#1E2120"/>
		<rect x="834" y="253" width="10" height="10" fill="#1E2120"/>
		<rect x="834" y="180" width="10" height="10" fill="#1E2120"/>
		<rect x="854" y="180" width="10" height="10" fill="#1E2120"/>
		<rect x="834" y="271" width="10" height="10" fill="#1E2120"/>
		<rect x="834" y="198" width="10" height="10" fill="#1E2120"/>
		<rect x="854" y="198" width="10" height="10" fill="#1E2120"/>
		<rect x="834" y="235" width="10" height="10" fill="#1E2120"/>
		<rect x="854" y="235" width="10" height="10" fill="#1E2120"/>
	</g>
</svg>
