<svg width="332" height="26" viewBox="0 0 332 26" fill="none" xmlns="http://www.w3.org/2000/svg">
<path d="M45.2054 3.92853C39.6903 3.92853 35.6533 7.76061 35.6533 12.979C35.6533 18.1974 39.688 22.0294 45.2054 22.0294C50.7227 22.0294 54.7574 18.1974 54.7574 12.979C54.6885 7.76061 50.7204 3.92853 45.2054 3.92853ZM45.0699 18.5287C41.7742 18.5287 39.6215 16.2836 39.6215 12.979C39.6215 9.67439 41.7742 7.42924 45.0699 7.42924C48.4322 7.42924 50.5184 9.60902 50.5184 12.979C50.5184 16.2836 48.3656 18.5287 45.0699 18.5287Z" fill="white"/>
<path fill-rule="evenodd" clip-rule="evenodd" d="M35.2109 12.979C35.2109 7.5117 39.4574 3.49762 45.2054 3.49762C50.9587 3.49762 55.1277 7.51558 55.1997 12.9734L55.1998 12.979C55.1998 18.4462 50.9557 22.4604 45.2054 22.4604C39.455 22.4604 35.2109 18.4462 35.2109 12.979ZM45.2054 4.35945C39.9233 4.35945 36.0957 8.00952 36.0957 12.979C36.0957 17.9485 39.9211 21.5985 45.2054 21.5985C50.4887 21.5985 54.3135 17.9499 54.3149 12.9817C54.2479 8.00426 50.4811 4.35945 45.2054 4.35945ZM41.4306 9.26165C40.5709 10.1432 40.0639 11.4182 40.0639 12.979C40.0639 14.5397 40.5709 15.8148 41.4306 16.6963C42.2881 17.5757 43.5294 18.0978 45.0699 18.0978C46.6104 18.0978 47.8518 17.5757 48.7093 16.6963C49.5689 15.8148 50.076 14.5397 50.076 12.979C50.076 11.3802 49.5824 10.1072 48.7342 9.23708C47.8886 8.36957 46.6494 7.86016 45.0699 7.86016C43.5294 7.86016 42.2881 8.38231 41.4306 9.26165ZM40.789 8.66813C41.8319 7.59875 43.3147 6.99833 45.0699 6.99833C46.8527 6.99833 48.3378 7.57881 49.3758 8.64367C50.4113 9.70595 50.9608 11.2078 50.9608 12.979C50.9608 14.7228 50.3915 16.2227 49.3508 17.2898C48.308 18.3592 46.8251 18.9596 45.0699 18.9596C43.3147 18.9596 41.8319 18.3592 40.789 17.2898C39.7484 16.2227 39.1791 14.7228 39.1791 12.979C39.1791 11.2351 39.7484 9.7353 40.789 8.66813Z" fill="white"/>
<path d="M16.2485 12.3301C18.1993 11.5367 19.9481 9.68824 19.9481 6.97874C19.9481 3.14666 16.8544 0.570154 12.3469 0.570154H0.442411V24.8159H12.6177C17.3937 24.8159 20.4209 22.174 20.4209 18.1436C20.3521 15.5671 18.6032 13.189 16.2485 12.3301ZM4.27517 3.80939H11.741C14.2977 3.80939 15.9111 5.1957 15.9111 7.3101C15.9111 9.4245 14.2977 10.7454 11.741 10.7454H4.27517V3.80939ZM11.8764 21.5789H4.27517V14.1154H11.8764C14.6351 14.1154 16.3839 15.5694 16.3839 17.8799C16.3839 20.1926 14.6351 21.5789 11.8764 21.5789Z" fill="white"/>
<path fill-rule="evenodd" clip-rule="evenodd" d="M0 0.139238H12.3469C14.6853 0.139238 16.6947 0.807993 18.1268 2.01111C19.5644 3.21888 20.3905 4.94169 20.3905 6.97874C20.3905 9.49325 18.9854 11.317 17.2622 12.3145C19.3419 13.4452 20.7983 15.7062 20.8632 18.1324L20.8634 18.1436C20.8634 20.2703 20.061 22.0605 18.6031 23.3142C17.1508 24.5632 15.0874 25.2468 12.6177 25.2468H0V0.139238ZM0.884822 1.00107V24.385H12.6177C14.924 24.385 16.7622 23.7477 18.0175 22.6682C19.266 21.5944 19.9771 20.0504 19.9785 18.1493C19.9119 15.7464 18.2737 13.5289 16.0933 12.7337L15.0467 12.3519L16.078 11.9325C17.8963 11.1929 19.5057 9.48274 19.5057 6.97874C19.5057 5.18371 18.785 3.70222 17.5489 2.66372C16.3072 1.62057 14.516 1.00107 12.3469 1.00107H0.884822ZM3.83277 3.37847H11.741C13.0988 3.37847 14.253 3.74702 15.0747 4.44134C15.9027 5.141 16.3535 6.13899 16.3535 7.3101C16.3535 8.48229 15.9017 9.46612 15.0702 10.1499C14.2471 10.8268 13.0937 11.1764 11.741 11.1764H3.83277V3.37847ZM4.71758 4.2403V10.3145H11.741C12.9449 10.3145 13.8766 10.0036 14.4994 9.49142C15.1138 8.98616 15.4687 8.25232 15.4687 7.3101C15.4687 6.36681 15.1128 5.61444 14.4949 5.09234C13.8707 4.5649 12.9398 4.2403 11.741 4.2403H4.71758ZM3.83277 13.6845H11.8764C13.3322 13.6845 14.5705 14.0683 15.4524 14.8039C16.3418 15.5458 16.8263 16.6111 16.8263 17.8799C16.8263 19.1507 16.3409 20.2018 15.4481 20.9275C14.5649 21.6454 13.3272 22.0099 11.8764 22.0099H3.83277V13.6845ZM4.71758 14.5463V21.148H11.8764C13.1842 21.148 14.2003 20.8193 14.8812 20.2659C15.5524 19.7202 15.9415 18.9218 15.9415 17.8799C15.9415 16.8381 15.5516 16.0212 14.8769 15.4585C14.1947 14.8895 13.1793 14.5463 11.8764 14.5463H4.71758Z" fill="white"/>
<path d="M70.4214 2.23951C70.4214 1.36487 71.1443 0.654791 72.0348 0.654791H90.5192C91.4074 0.654791 92.1281 1.36036 92.1327 2.23275C92.1373 3.1119 91.412 3.82649 90.5192 3.82649H72.0348C71.1443 3.82649 70.4214 3.1164 70.4214 2.23951Z" fill="white"/>
<path fill-rule="evenodd" clip-rule="evenodd" d="M72.0348 1.08571C71.3922 1.08571 70.8638 1.59945 70.8638 2.23951C70.8638 2.88222 71.3926 3.39557 72.0348 3.39557H90.5192C91.1634 3.39557 91.6936 2.87858 91.6903 2.23496C91.6869 1.59582 91.16 1.08571 90.5192 1.08571H72.0348ZM69.979 2.23951C69.979 1.13029 70.8965 0.223874 72.0348 0.223874H90.5192C91.6548 0.223874 92.5693 1.12491 92.5751 2.23056C92.5809 3.34521 91.6606 4.2574 90.5192 4.2574H72.0348C70.8961 4.2574 69.979 3.35059 69.979 2.23951Z" fill="white"/>
<path d="M70.4214 23.9822C70.4214 23.1076 71.1443 22.3975 72.0348 22.3975H90.5192C91.4074 22.3975 92.1281 23.103 92.1327 23.9754C92.1373 24.8545 91.412 25.5691 90.5192 25.5691H72.0348C71.1443 25.5668 70.4214 24.8568 70.4214 23.9822Z" fill="white"/>
<path fill-rule="evenodd" clip-rule="evenodd" d="M72.0348 22.8284C71.3922 22.8284 70.8638 23.3421 70.8638 23.9822C70.8638 24.6218 71.3919 25.1363 72.0354 25.1382H90.5192C91.1634 25.1382 91.6936 24.6212 91.6903 23.9776C91.6869 23.3385 91.16 22.8284 90.5192 22.8284H72.0348ZM69.979 23.9822C69.979 22.873 70.8965 21.9666 72.0348 21.9666H90.5192C91.6548 21.9666 92.5693 22.8676 92.5751 23.9732C92.5809 25.0878 91.6606 26 90.5192 26H72.0348L72.0337 26C70.8965 25.9971 69.979 25.0916 69.979 23.9822Z" fill="white"/>
<path d="M101.306 14.6424H88.6948C87.7699 14.6424 87.024 13.8963 87.0424 12.9879C87.0607 12.1042 87.7951 11.3964 88.6948 11.3964L101.306 11.3874C102.215 11.3874 102.954 12.1065 102.961 13.0014V13.0104C102.966 13.9076 102.224 14.6424 101.306 14.6424Z" fill="white"/>
<path fill-rule="evenodd" clip-rule="evenodd" d="M101.306 10.9565C102.461 10.9565 103.395 11.8698 103.403 12.9982L103.403 13.0014L103.403 13.0093M101.306 10.9565L88.6948 10.9655L101.306 10.9565ZM101.306 11.8183L88.6951 11.8273C88.0401 11.8273 87.4983 12.3438 87.4847 12.9965M101.306 11.8183C101.968 11.8184 102.513 12.3423 102.519 13.003L101.306 11.8183ZM102.519 13.003V13.0104V13.0126C102.522 13.6746 101.975 14.2115 101.306 14.2115H88.6948C88.0209 14.2115 87.4713 13.6667 87.4847 12.9965" fill="white"/>
<path d="M295.507 0.826747H291.606V25.0725H295.507V0.826747Z" fill="white"/>
<path fill-rule="evenodd" clip-rule="evenodd" d="M291.163 0.395831H295.95V25.5034H291.163V0.395831ZM292.048 1.25766V24.6415H295.065V1.25766H292.048Z" fill="white"/>
<path d="M150.895 18.2658C150.895 21.7665 148.272 25.5332 140.941 25.5332C135.628 25.5332 132.466 23.4188 130.786 21.6358L130.584 21.4374L132.938 18.7279L133.207 18.9916C134.419 20.2472 137.042 22.294 141.077 22.294C145.313 22.294 146.86 20.3779 146.86 18.5295C146.86 15.953 143.833 15.2272 140.335 14.3683C136.165 13.3111 131.456 12.1886 131.456 7.36467C131.456 3.33423 135.357 0.493986 140.737 0.493986C144.639 0.493986 147.799 1.61656 150.154 3.92933L150.356 4.12769L148.001 6.76957L147.732 6.50583C145.983 4.72279 143.36 3.73096 140.468 3.73096C137.508 3.73096 135.424 5.11727 135.424 7.1663C135.424 9.21533 138.183 9.94118 141.409 10.7346C145.648 11.7242 150.895 12.9798 150.895 18.2658Z" fill="white"/>
<path fill-rule="evenodd" clip-rule="evenodd" d="M140.737 0.924902C135.479 0.924902 131.898 3.67619 131.898 7.36467C131.898 8.49861 132.174 9.39347 132.633 10.1192C133.095 10.8479 133.757 11.4295 134.563 11.9118C136.156 12.8641 138.241 13.3925 140.299 13.914C140.348 13.9263 140.397 13.9386 140.445 13.9509C140.48 13.9595 140.515 13.9682 140.551 13.9768C142.243 14.3922 143.89 14.7964 145.115 15.4233C145.747 15.7469 146.296 16.1432 146.688 16.6562C147.084 17.1766 147.303 17.7957 147.303 18.5295C147.303 19.5775 146.86 20.6457 145.833 21.4421C144.813 22.232 143.258 22.7249 141.077 22.7249C136.961 22.7249 134.255 20.6776 132.963 19.3669L131.181 21.4172C132.804 23.1058 135.838 25.1023 140.941 25.1023C144.531 25.1023 146.902 24.1809 148.371 22.8921C149.838 21.6048 150.452 19.9103 150.452 18.2658C150.452 15.8009 149.248 14.2924 147.511 13.2565C145.74 12.2003 143.441 11.652 141.306 11.1537L141.301 11.1525C139.701 10.759 138.153 10.3686 137.007 9.80609C135.856 9.24067 134.981 8.43327 134.981 7.1663C134.981 5.98124 135.591 4.99782 136.584 4.3263C137.567 3.66121 138.923 3.30005 140.468 3.30005C143.422 3.30005 146.135 4.30001 147.98 6.13554L149.752 4.14768C147.506 1.98985 144.497 0.924902 140.737 0.924902ZM131.013 7.36467C131.013 2.99227 135.236 0.0630699 140.737 0.0630699C144.731 0.0630699 148.013 1.21528 150.468 3.6259L150.959 4.10821L148.022 7.4027L147.412 6.80355C145.76 5.11923 143.26 4.16188 140.468 4.16188C139.053 4.16188 137.887 4.49386 137.088 5.03419C136.299 5.56808 135.866 6.30233 135.866 7.1663C135.866 7.94836 136.371 8.5284 137.406 9.03653C138.446 9.54733 139.889 9.91641 141.515 10.3162C143.619 10.8073 146.061 11.3816 147.973 12.5216C149.919 13.6823 151.337 15.4447 151.337 18.2658C151.337 20.122 150.64 22.0612 148.963 23.5324C147.288 25.0021 144.682 25.9641 140.941 25.9641C135.498 25.9641 132.222 23.7945 130.465 21.9333L129.984 21.4604L132.913 18.0906L133.529 18.6964C134.693 19.9019 137.207 21.8631 141.077 21.8631C143.132 21.8631 144.468 21.398 145.282 20.7677C146.087 20.1439 146.418 19.3299 146.418 18.5295C146.418 17.9751 146.257 17.5373 145.977 17.1701C145.692 16.7955 145.265 16.4736 144.704 16.1863C143.573 15.6076 142.011 15.2243 140.254 14.7929L140.227 14.7862L140.224 14.7854C140.155 14.7678 140.085 14.7503 140.016 14.7326C138.006 14.2239 135.808 13.6673 134.1 12.6462C133.208 12.1128 132.432 11.4431 131.88 10.5716C131.326 9.69711 131.013 8.64268 131.013 7.36467Z" fill="white"/>
<path d="M266.247 0.430916C258.58 0.430916 252.998 5.71693 252.998 12.9821C252.998 20.2473 258.58 25.5333 266.247 25.5333C273.915 25.5333 279.497 20.2473 279.497 12.9821C279.497 5.71693 273.915 0.430916 266.247 0.430916ZM266.247 22.2309C260.732 22.2309 257.033 18.4665 257.033 12.9167C257.033 7.36697 260.732 3.60252 266.247 3.60252C271.762 3.60252 275.462 7.36697 275.462 12.9167C275.462 18.3988 271.696 22.2309 266.247 22.2309Z" fill="white"/>
<path fill-rule="evenodd" clip-rule="evenodd" d="M252.555 12.9821C252.555 5.46768 258.347 0 266.247 0C274.148 0 279.939 5.46768 279.939 12.9821C279.939 20.4965 274.148 25.9642 266.247 25.9642C258.347 25.9642 252.555 20.4965 252.555 12.9821ZM266.247 0.861832C258.812 0.861832 253.44 5.96617 253.44 12.9821C253.44 19.998 258.812 25.1023 266.247 25.1023C273.682 25.1023 279.054 19.998 279.054 12.9821C279.054 5.96617 273.682 0.861832 266.247 0.861832ZM259.891 6.47718C258.367 8.02021 257.475 10.2361 257.475 12.9167C257.475 15.5973 258.367 17.8132 259.891 19.3563C261.413 20.8978 263.597 21.8 266.247 21.8C268.861 21.8 271.046 20.8831 272.579 19.3309C274.113 17.7774 275.02 15.5603 275.02 12.9167C275.02 10.2361 274.128 8.02021 272.604 6.47718C271.082 4.93564 268.898 4.03344 266.247 4.03344C263.597 4.03344 261.413 4.93564 259.891 6.47718ZM259.253 5.87975C260.959 4.15163 263.383 3.17161 266.247 3.17161C269.112 3.17161 271.535 4.15163 273.242 5.87975C274.947 7.60639 275.904 10.0476 275.904 12.9167C275.904 15.7553 274.928 18.1953 273.217 19.9283C271.504 21.6627 269.082 22.6618 266.247 22.6618C263.383 22.6618 260.959 21.6818 259.253 19.9537C257.548 18.2271 256.59 15.7859 256.59 12.9167C256.59 10.0475 257.548 7.60638 259.253 5.87975Z" fill="white"/>
<path d="M317.904 0.826747H308.69V25.0725H317.904C325.91 25.0725 331.558 20.1178 331.558 12.9834C331.558 5.84901 325.976 0.826747 317.904 0.826747ZM317.904 21.8332H312.591V4.06372H317.904C323.757 4.06372 327.523 7.56442 327.523 12.9812C327.523 18.2672 323.688 21.8332 317.904 21.8332Z" fill="white"/>
<path fill-rule="evenodd" clip-rule="evenodd" d="M308.247 0.395831H317.904C322.035 0.395831 325.56 1.68173 328.057 3.91207C330.557 6.14484 332 9.30117 332 12.9834C332 16.6676 330.539 19.8074 328.03 22.0226C325.525 24.235 322 25.5034 317.904 25.5034H308.247V0.395831ZM309.132 1.25766V24.6415H317.904C321.813 24.6415 325.116 23.4326 327.436 21.3841C329.752 19.3384 331.115 16.4337 331.115 12.9834C331.115 9.53126 329.768 6.60925 327.459 4.54729C325.147 2.4829 321.846 1.25766 317.904 1.25766H309.132ZM312.149 3.6328H317.904C320.921 3.6328 323.443 4.53641 325.213 6.17914C326.986 7.8239 327.965 10.1721 327.965 12.9812C327.965 15.7297 326.966 18.0602 325.187 19.7022C323.41 21.3424 320.89 22.2642 317.904 22.2642H312.149V3.6328ZM313.034 4.49463V21.4023H317.904C320.702 21.4023 322.992 20.5411 324.578 19.0767C326.163 17.6141 327.081 15.5186 327.081 12.9812C327.081 10.3735 326.177 8.26297 324.603 6.80318C323.028 5.34138 320.74 4.49463 317.904 4.49463H313.034Z" fill="white"/>
<path d="M235.374 15.3609C238.805 14.8988 241.899 12.586 241.899 8.22645C241.899 3.79927 238.468 0.828272 233.423 0.828272H222.662V25.0741H226.563V15.6923H231.204L237.795 25.0741H242.436L235.374 15.3609ZM226.563 12.4553V4.06526H233.019C235.911 4.06526 237.862 5.78293 237.862 8.22645C237.862 10.7376 235.844 12.4553 233.019 12.4553H226.563Z" fill="white"/>
<path fill-rule="evenodd" clip-rule="evenodd" d="M222.219 0.397356H233.423C236.033 0.397356 238.264 1.16679 239.847 2.54593C241.435 3.92883 242.341 5.89792 242.341 8.22645C242.341 10.5135 241.526 12.2926 240.237 13.5586C239.123 14.6525 237.675 15.3453 236.139 15.6669L243.291 25.505H237.562L230.97 16.1232H227.006V25.505H222.219V0.397356ZM223.104 1.25919V24.6432H226.121V15.2613H231.437L238.029 24.6432H241.58L234.592 15.0312L235.313 14.934C236.951 14.7135 238.487 14.0539 239.609 12.9518C240.724 11.8561 241.456 10.299 241.456 8.22645C241.456 6.1278 240.646 4.3978 239.258 3.18841C237.865 1.97525 235.857 1.25919 233.423 1.25919H223.104ZM226.121 3.63434H233.019C234.554 3.63434 235.875 4.09098 236.819 4.9074C237.766 5.72715 238.304 6.88635 238.304 8.22645C238.304 9.60142 237.749 10.777 236.794 11.6044C235.844 12.4284 234.523 12.8862 233.019 12.8862H226.121V3.63434ZM227.006 4.49617V12.0244H233.019C234.341 12.0244 235.441 11.6233 236.206 10.9606C236.966 10.3015 237.419 9.36262 237.419 8.22645C237.419 7.12303 236.982 6.20163 236.231 5.55167C235.476 4.89838 234.376 4.49617 233.019 4.49617H227.006Z" fill="white"/>
<path d="M160.918 0.828272H181.298V4.06525H173.024V25.0718H169.123V4.06525H160.918V0.828272Z" fill="white"/>
<path fill-rule="evenodd" clip-rule="evenodd" d="M160.475 0.397356H181.74V4.49617H173.467V25.5027H168.68V4.49617H160.475V0.397356ZM161.36 1.25919V3.63433H169.565V24.6409H172.582V3.63433H180.856V1.25919H161.36Z" fill="white"/>
<path d="M192.732 0.826747H210.42V4.06372H196.634V10.9998H210.151V14.2367H196.634V21.7025H210.42V24.9395H192.732V0.826747Z" fill="white"/>
<path fill-rule="evenodd" clip-rule="evenodd" d="M192.289 0.395831H210.862V4.49464H197.076V10.5689H210.594V14.6677H197.076V21.2716H210.862V25.3704H192.289V0.395831ZM193.174 1.25766V24.5086H209.978V22.1334H196.191V13.8058H209.709V11.4307H196.191V3.6328H209.978V1.25766H193.174Z" fill="white"/>
<path d="M106.971 0.464056C99.3028 0.464056 93.7212 5.75005 93.7212 13.0152C93.7212 20.2803 99.3028 25.5663 106.971 25.5663C114.638 25.5663 120.22 20.2803 120.22 13.0152C120.22 5.75005 114.638 0.464056 106.971 0.464056ZM106.971 22.264C101.456 22.264 97.756 18.4996 97.756 12.9498C97.756 7.4001 101.456 3.63565 106.971 3.63565C112.486 3.63565 116.185 7.4001 116.185 12.9498C116.185 18.4319 112.419 22.264 106.971 22.264Z" fill="white"/>
<path fill-rule="evenodd" clip-rule="evenodd" d="M93.2788 13.0152C93.2788 5.50081 99.0702 0.0331393 106.971 0.0331393C114.871 0.0331393 120.662 5.50081 120.662 13.0152C120.662 20.5296 114.871 25.9973 106.971 25.9973C99.0702 25.9973 93.2788 20.5296 93.2788 13.0152ZM106.971 0.894972C99.5355 0.894972 94.1637 5.9993 94.1637 13.0152C94.1637 20.0311 99.5355 25.1354 106.971 25.1354C114.406 25.1354 119.778 20.0311 119.778 13.0152C119.778 5.9993 114.406 0.894972 106.971 0.894972ZM100.614 6.5103C99.0904 8.05333 98.1984 10.2693 98.1984 12.9498C98.1984 15.6304 99.0904 17.8463 100.614 19.3894C102.136 20.9309 104.32 21.8331 106.971 21.8331C109.584 21.8331 111.77 20.9162 113.302 19.364C114.836 17.8105 115.743 15.5934 115.743 12.9498C115.743 10.2693 114.851 8.05333 113.327 6.5103C111.805 4.96877 109.621 4.06657 106.971 4.06657C104.32 4.06657 102.136 4.96877 100.614 6.5103ZM99.9763 5.91288C101.683 4.18476 104.106 3.20474 106.971 3.20474C109.835 3.20474 112.259 4.18476 113.965 5.91288C115.67 7.63951 116.628 10.0807 116.628 12.9498C116.628 15.7884 115.651 18.2284 113.94 19.9614C112.227 21.6958 109.805 22.6949 106.971 22.6949C104.106 22.6949 101.683 21.7149 99.9763 19.9868C98.2714 18.2602 97.3135 15.819 97.3135 12.9498C97.3135 10.0807 98.2714 7.63951 99.9763 5.91288Z" fill="white"/>
</svg>
