<svg xmlns="http://www.w3.org/2000/svg">
	<symbol viewBox="0 0 415 75" id="groupSvg">
		<path d="M54.2094 30.1417C54.7199 29.3744 54.7687 28.3873 54.3369 27.5732C53.9051 26.7584 53.0632 26.2501 52.1464 26.2501H35.7916V2.50015C35.7916 1.43151 35.1171 0.481159 34.1127 0.13516C33.1089 -0.211381 31.9971 0.123442 31.3463 0.967743L0.521156 40.9676C-0.0597316 41.7215 -0.163925 42.7428 0.253443 43.5999C0.670259 44.4565 1.53549 45 2.48332 45H20.5508V72.4999C20.5508 73.6004 21.2658 74.5719 22.3117 74.8916C23.3576 75.2119 24.4883 74.8057 25.0969 73.8916L54.2094 30.1417Z" fill="white"/>
		<path fill-rule="evenodd" clip-rule="evenodd" d="M179.629 58.1428V60.5714C179.629 61.9124 178.569 63 177.303 63H106.956C105.671 63 104.629 61.9219 104.629 60.5714V58.1428H179.629ZM111.66 14.4123C111.66 13.0801 112.717 12 114.012 12H170.247C171.546 12 172.599 13.0808 172.599 14.4123V55.7142H111.661L111.66 14.4123Z" fill="white"/>
		<path d="M259.514 0C254.66 0.00772667 250.006 1.93352 246.574 5.3565C243.141 8.77948 241.209 13.4193 241.202 18.2593V36.5478C241.209 41.3879 243.141 46.0279 246.574 49.4507C250.006 52.8737 254.66 54.7994 259.514 54.8072C264.368 54.7995 269.022 52.8737 272.454 49.4507C275.887 46.0277 277.819 41.3879 277.826 36.5478V18.2593C277.819 13.4193 275.887 8.77931 272.454 5.3565C269.022 1.93352 264.368 0.00774727 259.514 0Z" fill="white"/>
		<path d="M286.504 34.6152C285.737 34.6152 285.001 34.9192 284.459 35.46C283.916 36.0009 283.611 36.7349 283.611 37.4999C283.604 43.3657 281.264 48.9887 277.104 53.136C272.945 57.2839 267.305 59.6173 261.423 59.6251H257.604C251.722 59.6174 246.082 57.2839 241.923 53.136C237.763 48.9887 235.423 43.3657 235.416 37.4999C235.416 36.469 234.864 35.5167 233.969 35.0016C233.074 34.4865 231.971 34.4865 231.076 35.0016C230.181 35.5167 229.63 36.469 229.63 37.4999C229.64 44.7211 232.459 51.6571 237.492 56.8483C242.526 62.0399 249.383 65.083 256.62 65.3366V69.2309H248.462C247.429 69.2309 246.474 69.7808 245.957 70.6732C245.44 71.5656 245.44 72.6654 245.957 73.5578C246.474 74.4503 247.429 75.0001 248.462 75.0001H270.564C271.597 75.0001 272.552 74.4503 273.069 73.5578C273.586 72.6654 273.586 71.5656 273.069 70.6732C272.552 69.7808 271.597 69.2309 270.564 69.2309H262.405V65.3366C269.643 65.0829 276.499 62.0399 281.533 56.8483C286.567 51.6573 289.386 44.7213 289.396 37.4999C289.396 36.7349 289.091 36.0009 288.549 35.46C288.006 34.9192 287.271 34.6152 286.503 34.6152H286.504Z" fill="white"/>
		<path d="M414.396 57.4408V29.2638C414.396 26.8871 413.549 24.6048 411.787 22.9574C410.171 21.4472 408.081 20.6664 405.869 20.6664H379.496V10.5761C379.496 9.22897 378.304 7.94193 376.904 8.00202C375.496 8.06209 374.313 9.13463 374.313 10.5761V20.6664H348.034C346.142 20.6664 344.302 21.1726 342.782 22.3138C340.605 23.9526 339.396 26.4409 339.396 29.1522C339.396 32.1554 339.413 35.167 339.413 38.1702V57.1326C339.413 58.2652 339.352 59.3979 339.611 60.5133C340.389 63.9196 343.343 66.4937 346.807 66.9228C347.447 67 348.077 67 348.717 67H406.051C406.068 67 406.085 66.9828 406.102 66.9828C409.653 66.9314 412.815 64.6404 413.972 61.3027C414.413 60.0414 414.395 58.7458 414.395 57.4417L414.396 57.4408ZM373.622 46.4409C373.622 46.9043 373.19 47.2646 372.724 47.2646H364.293V55.7075C364.293 56.1709 363.861 56.5312 363.394 56.5312H358.211C357.745 56.5312 357.382 56.1709 357.382 55.7075V47.2646H348.882C348.415 47.2646 348.052 46.9043 348.052 46.4409V41.207C348.052 40.7437 348.415 40.3147 348.882 40.3147H357.382V31.9404C357.382 31.477 357.745 31.048 358.211 31.048H363.394C363.861 31.048 364.293 31.477 364.293 31.9404V40.3147H372.758C372.914 40.3147 373.052 40.3576 373.164 40.4262C373.424 40.5464 373.622 40.7952 373.622 41.1727L373.622 46.4409ZM394.77 36.5394C394.701 38.5128 393.276 40.3061 391.28 40.6665C389.501 40.984 387.678 40.2032 386.745 38.6587C385.803 37.0971 386.002 35.1151 387.142 33.7165C388.257 32.3522 390.244 31.8032 391.902 32.4123C393.595 33.0301 394.71 34.5831 394.779 36.3592V36.4536C394.779 36.4879 394.779 36.5136 394.77 36.5394ZM407.296 51.2716C407.227 53.245 405.802 55.0384 403.806 55.3988C402.027 55.7162 400.204 54.9354 399.271 53.391C398.329 51.8379 398.528 49.8473 399.668 48.4574C400.783 47.0931 402.77 46.544 404.428 47.1532C406.121 47.7709 407.236 49.324 407.305 51.1V51.1944C407.305 51.2116 407.305 51.2373 407.296 51.2716Z" fill="white"/>
	</symbol>
</svg>
