<svg width="263" height="80" viewBox="0 0 263 80" fill="none" xmlns="http://www.w3.org/2000/svg">
<path d="M78.0021 18.7481L70.1062 1.10742H59.5902V23.05L51.4946 1.13723H41.0561L33.9412 20.4043V34.6243C32.1379 35.2854 30.2948 35.8322 28.4229 36.2616H37.2438L39.6939 29.1561H52.666L55.1162 36.2616H68.1459V12.7404L74.6538 28.0016H80.9063L87.3943 12.7424V36.2616H96.4011V1.13723H85.8861L78.0021 18.7481ZM41.8361 22.736L46.1581 10.1424L50.4951 22.736H41.8361Z" fill="white"/>
<path d="M42.5557 37.2021L33.1466 62.6826V53.9119H16.9265V60.5465H23.9342V67.4067C23.551 67.4088 23.1682 67.4317 22.7876 67.4752H21.641C17.6097 67.4752 14.5648 66.443 12.5061 64.3785C10.4474 62.314 9.4184 59.361 9.41906 55.5194C9.38713 53.8011 9.67972 52.0922 10.2815 50.4823C10.7926 49.1258 11.5954 47.898 12.6333 46.8858C13.6436 45.926 14.8414 45.1852 16.1515 44.7101C17.5564 44.2216 19.036 43.9829 20.5232 44.0047C21.8495 43.9917 23.1704 44.1735 24.4439 44.5441C25.5522 44.8588 26.6235 45.2918 27.6392 45.8357C28.4904 46.3008 29.312 46.8181 30.0993 47.3846L32.0596 48.7864H33.0392V40.5403C30.8238 39.4203 28.476 38.5838 26.0515 38.0506C23.8725 37.624 21.6566 37.414 19.4363 37.4237C13.3271 37.4237 8.56724 39.0964 5.15664 42.4419C1.74604 45.7874 0.0271576 50.1922 0 55.6565C0 61.3864 1.69238 65.875 5.07715 69.1225C8.46192 72.3699 13.1436 74.0032 19.1223 74.0224C21.7392 74.0174 24.3469 73.7117 26.894 73.1114C27.9422 72.866 28.8543 72.6216 29.7754 72.3762H38.7036L41.1637 65.2518H54.1695L56.6197 72.3573H65.9791L52.9942 37.2021H42.5557ZM43.3396 58.7612L47.6617 46.1675L51.9449 58.8L43.3396 58.7612Z" fill="white"/>
<path d="M55.1523 44.0037H66.1293V72.3563H75.1957V44.0037H86.1826V37.2021H55.1523V44.0037Z" fill="white"/>
<path d="M109.118 50.07H95.7304V37.2021H86.6641V72.3563H95.7304V56.8716H109.119V72.3563H118.185V37.2021H109.119L109.118 50.07Z" fill="white"/>
<path d="M118.836 72.3563H144.271V65.5548H127.863V56.8716H143.083V50.07H127.863V44.0037H144.269V37.2021H118.834L118.836 72.3563Z" fill="white"/>
<path d="M173.94 43.4349H179.702V66.1226H173.94V66.2011L167.001 57.2923C169.027 56.3714 170.797 54.9689 172.156 53.207C173.428 51.3407 174.061 49.1126 173.96 46.8565C174.023 45.2066 173.618 43.5724 172.793 42.1423C172.004 40.8824 170.922 39.833 169.637 39.0843C168.349 38.3026 166.921 37.7798 165.433 37.5454C163.656 37.2902 161.862 37.1723 160.067 37.1927H144.88V72.3548H153.896V59.4661H158.101L167.667 72.3538H194.541V66.1226H188.779V43.4349H194.541V37.2016H173.96L173.94 43.4349ZM164.139 50.295C163.808 50.9324 163.335 51.4857 162.757 51.9125C162.035 52.446 161.188 52.7835 160.297 52.8921C159.091 53.0497 157.876 53.1217 156.66 53.1077H153.896V43.6694H157.175C158.26 43.6694 159.211 43.6955 160.028 43.7478C160.763 43.7852 161.488 43.9409 162.174 44.2088C162.944 44.4822 163.6 45.0072 164.036 45.6991C164.412 46.3931 164.598 47.1742 164.575 47.9633C164.617 48.7797 164.473 49.5949 164.154 50.3477L164.139 50.295Z" fill="white"/>
<path d="M218.915 57.3415L206.095 37.2021H195.255V72.3563H203.566V48.2271L218.484 72.3553H227.227V37.2021H218.916L218.915 57.3415Z" fill="white"/>
<path d="M245.573 60.5459H252.581V67.411C252.198 67.4132 251.815 67.4361 251.434 67.4796H250.287C246.256 67.4796 243.211 66.4473 241.152 64.3828C239.093 62.3183 238.08 59.3653 238.114 55.5238C238.082 53.8054 238.374 52.0965 238.976 50.4867C239.487 49.1301 240.29 47.9024 241.328 46.8902C242.338 45.9303 243.536 45.1896 244.846 44.7144C246.251 44.2259 247.73 43.9872 249.218 44.009C250.544 43.9961 251.865 44.1778 253.138 44.5485C254.247 44.8631 255.318 45.2962 256.334 45.8401C257.151 46.3086 257.94 46.8258 258.695 47.3889L260.656 48.7908H261.635V40.5447C259.42 39.4246 257.072 38.5882 254.648 38.055C252.469 37.6284 250.253 37.4184 248.032 37.4281C241.923 37.4281 237.163 39.1008 233.753 42.4462C230.342 45.7917 228.634 50.1963 228.627 55.6599C228.627 61.3897 230.319 65.8784 233.704 69.1258C237.089 72.3733 241.771 74.0066 247.749 74.0258C250.366 74.0208 252.974 73.7151 255.521 73.1148C257.645 72.6471 259.734 72.0347 261.774 71.2817V53.9113H245.573V60.5459Z" fill="white"/>
<path d="M187.469 34.8739C187.83 35.2333 188.269 35.5052 188.752 35.6687C189.28 35.8434 189.833 35.9293 190.389 35.923C190.681 35.9239 190.973 35.8976 191.261 35.8446C191.509 35.7997 191.755 35.7406 191.996 35.6677C192.217 35.5996 192.433 35.5176 192.643 35.4223L193.192 35.168V33.8764H193.113C192.732 34.2276 192.29 34.5066 191.81 34.7C191.334 34.8844 190.829 34.9775 190.319 34.9743C189.946 34.9751 189.575 34.9077 189.226 34.7755C188.88 34.6451 188.568 34.4371 188.315 34.1675C188.051 33.8831 187.845 33.5505 187.707 33.1879C187.54 32.7063 187.46 32.1985 187.472 31.6887C187.464 31.1902 187.536 30.6936 187.687 30.2183C187.81 29.828 188.013 29.4676 188.283 29.1603C188.534 28.8866 188.842 28.6724 189.186 28.5334C189.548 28.392 189.934 28.3222 190.322 28.3277C190.815 28.3245 191.303 28.4142 191.763 28.592C192.259 28.7932 192.72 29.0744 193.125 29.4245H193.204V28.0724C192.733 27.8285 192.236 27.6378 191.723 27.5041C191.287 27.3988 190.839 27.3461 190.39 27.3471C189.822 27.3394 189.257 27.4357 188.724 27.6313C188.244 27.8091 187.809 28.0903 187.45 28.4549C187.076 28.8427 186.791 29.3076 186.616 29.817C186.412 30.4062 186.311 31.0264 186.318 31.65C186.308 32.2922 186.411 32.9312 186.622 33.5376C186.802 34.0385 187.089 34.4937 187.465 34.8709L187.469 34.8739Z" fill="white"/>
<path d="M198.042 35.9127C198.588 35.9226 199.13 35.8261 199.639 35.6286C200.103 35.4432 200.518 35.1551 200.854 34.7861C201.183 34.3986 201.43 33.9484 201.58 33.4627C201.771 32.8709 201.864 32.2516 201.854 31.6297C201.862 31.0079 201.769 30.3889 201.58 29.7967C201.42 29.2935 201.156 28.8295 200.806 28.4346C200.471 28.0714 200.059 27.787 199.601 27.602C199.093 27.399 198.55 27.2977 198.003 27.304C197.459 27.3005 196.919 27.4017 196.413 27.602C195.949 27.7815 195.533 28.0665 195.198 28.4346C194.845 28.8369 194.578 29.3072 194.414 29.8166C194.056 31.0056 194.056 32.2737 194.414 33.4627C194.575 33.9624 194.839 34.4229 195.188 34.8149C195.524 35.1846 195.939 35.4727 196.403 35.6574C196.927 35.8504 197.484 35.9372 198.042 35.9127ZM195.346 31.6009C195.29 30.7118 195.547 29.8312 196.071 29.1112C196.322 28.8416 196.625 28.6266 196.962 28.4796C197.3 28.3325 197.664 28.2567 198.032 28.2567C198.4 28.2567 198.764 28.3325 199.101 28.4796C199.438 28.6266 199.742 28.8416 199.992 29.1112C200.517 29.8308 200.774 30.7117 200.717 31.6009C200.777 32.4947 200.517 33.3807 199.982 34.0996C199.732 34.3691 199.428 34.5841 199.091 34.7312C198.754 34.8782 198.39 34.9541 198.022 34.9541C197.654 34.9541 197.29 34.8782 196.953 34.7312C196.615 34.5841 196.312 34.3691 196.061 34.0996C195.536 33.3875 195.279 32.5127 195.336 31.6297L195.346 31.6009Z" fill="white"/>
<path d="M204.57 28.3557L208.501 35.7643H209.863V27.4834H208.834V34.2452L205.247 27.4834H203.541V35.7643H204.57V28.3557Z" fill="white"/>
<path d="M212.564 31.7763H216.16V30.7967H212.564V28.463H216.749V27.4834H211.456V35.7643H212.564V31.7763Z" fill="white"/>
<path d="M223.471 34.7847H219.109V31.7048H223.471V30.7252H219.109V28.463H223.471V27.4834H218.013V35.7643H223.471V34.7847Z" fill="white"/>
<path d="M232.077 35.7653L228.96 32.139C229.454 31.9611 229.886 31.6448 230.205 31.2279C230.516 30.7913 230.674 30.2644 230.656 29.7287C230.67 29.3483 230.582 28.971 230.401 28.6359C230.228 28.3438 229.986 28.0983 229.696 27.9205C229.42 27.7483 229.114 27.6287 228.794 27.5678C228.38 27.4956 227.959 27.4624 227.539 27.4685H225.216V35.7593H226.353V32.4807H227.902L230.676 35.7732L232.077 35.7653ZM227.431 31.5508H226.353V28.4252H227.644C227.904 28.4235 228.163 28.4464 228.418 28.4938C228.621 28.5299 228.814 28.6066 228.987 28.7193C229.165 28.8302 229.308 28.9903 229.398 29.1803C229.485 29.3778 229.528 29.5916 229.525 29.8072C229.534 30.0702 229.494 30.3326 229.408 30.5811C229.326 30.7867 229.198 30.9711 229.035 31.1206C228.847 31.2913 228.617 31.4095 228.369 31.4634C228.06 31.5292 227.746 31.5585 227.431 31.5508Z" fill="white"/>
<path d="M238.603 34.7847H234.252V31.7048H238.603V30.7252H234.252V28.463H238.603V27.4834H233.145V35.7643H238.603V34.7847Z" fill="white"/>
<path d="M241.389 28.3557L245.319 35.7643H246.681V27.4834H245.652V34.2452L242.065 27.4834H240.359V35.7643H241.389V28.3557Z" fill="white"/>
<path d="M249.542 34.8739C249.904 35.2333 250.343 35.5052 250.826 35.6687C251.353 35.8433 251.906 35.9293 252.462 35.923C252.755 35.9239 253.047 35.8976 253.334 35.8446C253.583 35.7997 253.828 35.7406 254.07 35.6677C254.29 35.5996 254.506 35.5176 254.716 35.4223L255.265 35.168V33.8764H255.186C254.805 34.2276 254.364 34.5066 253.883 34.7C253.408 34.8844 252.902 34.9775 252.392 34.9743C252.019 34.975 251.649 34.9077 251.3 34.7755C250.953 34.6452 250.642 34.4372 250.388 34.1675C250.125 33.8831 249.918 33.5505 249.78 33.1879C249.613 32.7063 249.533 32.1985 249.545 31.6887C249.537 31.1902 249.61 30.6936 249.76 30.2183C249.883 29.828 250.086 29.4677 250.357 29.1603C250.606 28.8867 250.914 28.6725 251.258 28.5334C251.62 28.3921 252.006 28.3222 252.394 28.3277C252.887 28.3245 253.376 28.4142 253.835 28.592C254.332 28.7932 254.792 29.0744 255.197 29.4245H255.276V28.0724C254.805 27.8285 254.308 27.6378 253.795 27.5041C253.359 27.3988 252.911 27.3461 252.462 27.3471C251.894 27.3394 251.329 27.4357 250.796 27.6313C250.316 27.8091 249.881 28.0903 249.522 28.4549C249.148 28.8428 248.864 29.3077 248.689 29.817C248.485 30.4062 248.384 31.0264 248.391 31.65C248.381 32.2922 248.484 32.9312 248.695 33.5376C248.875 34.0385 249.163 34.4937 249.538 34.8709L249.542 34.8739Z" fill="white"/>
<path d="M262.299 28.463V27.4834H256.845V35.7643H262.299V34.7847H257.948V31.7048H262.299V30.7252H257.948V28.463H262.299Z" fill="white"/>
<path d="M148.652 19.3356C147.12 17.5999 145.129 16.3327 142.908 15.6805C141.693 15.2582 140.456 14.9017 139.203 14.6125L135.616 13.8087C134.248 13.5927 132.934 13.1208 131.741 12.4178C131.411 12.1596 131.149 11.8245 130.978 11.4418C130.808 11.059 130.733 10.6403 130.761 10.2222C130.757 9.59968 130.984 8.99769 131.398 8.53322C131.812 8.0465 132.336 7.66652 132.927 7.42547C133.593 7.13462 134.295 6.93415 135.014 6.82936C135.735 6.72469 136.462 6.67223 137.19 6.67239C139.251 6.67898 141.293 7.0747 143.208 7.83876C145.031 8.53576 146.727 9.52905 148.226 10.7785H149.206V2.42118C147.369 1.65273 145.46 1.07156 143.506 0.686523C141.331 0.228205 139.114 -0.00187846 136.891 1.15494e-05C132.441 1.15494e-05 128.798 1.06174 125.962 3.18519C125.046 3.86503 124.238 4.67775 123.563 5.59642V1.13658H98.1475V36.2629H123.395C124.63 36.5868 125.924 36.7597 127.316 37.0269C129.758 37.3545 132.224 37.4725 134.686 37.3796C139.547 37.3796 143.392 36.2689 146.221 34.0474C147.567 33.0493 148.654 31.744 149.392 30.2404C150.13 28.7368 150.498 27.0786 150.465 25.4039C150.574 23.2331 149.934 21.0906 148.652 19.3356ZM107.169 7.93811H122.321C121.924 9.05406 121.725 10.2309 121.733 11.4154C121.729 12.2828 121.815 13.1484 121.987 13.9985H107.169V7.93811ZM140.875 29.0183C140.4 29.4817 139.841 29.8508 139.229 30.1062C138.548 30.3628 137.836 30.5243 137.111 30.5861C136.415 30.6725 135.715 30.7216 135.014 30.7331C132.805 30.7077 130.618 30.2896 128.556 29.4982C126.34 28.6877 124.286 27.4898 122.489 25.9603H121.509V29.4882H107.169V20.805H122.4V15.4351C122.693 16.2476 123.102 17.0135 123.615 17.7092C125.217 19.6333 127.362 21.0302 129.77 21.718C131.076 22.1706 132.412 22.5308 133.769 22.796C135.187 23.0768 136.533 23.3805 137.807 23.707C138.822 23.9178 139.77 24.3719 140.571 25.0304C140.875 25.2791 141.12 25.5916 141.289 25.9456C141.458 26.2996 141.548 26.6866 141.551 27.079C141.573 27.4312 141.525 27.7843 141.408 28.1175C141.292 28.4507 141.111 28.7573 140.874 29.0193L140.875 29.0183Z" fill="white"/>
<path d="M0.303711 78.4707V79.9997L262.038 79.2357L0.303711 78.4707Z" fill="#FFD40C"/>
<path d="M19.6022 37.4275C22.2786 37.4227 24.9457 37.1103 27.5508 36.4966L28.4231 36.2611C30.3089 35.8239 32.1649 35.2674 33.9802 34.595V16.8669H17.3378V23.6585H24.5025V30.7124C24.1494 30.7448 23.7573 30.7677 23.3261 30.7809H22.1507C18.028 30.7809 14.9112 29.7258 12.8002 27.6156C10.6892 25.5054 9.6403 22.4712 9.65355 18.5131C9.62082 16.7545 9.92015 15.0055 10.5358 13.3578C11.0566 11.9684 11.8764 10.7104 12.9373 9.67292C13.9704 8.69264 15.1949 7.93635 16.534 7.45144C17.9707 6.95102 19.4839 6.70558 21.0051 6.72618C22.3499 6.71905 23.6886 6.90713 24.9794 7.28453C26.1152 7.61063 27.2128 8.05761 28.2532 8.61782C29.1211 9.09171 29.9589 9.6186 30.762 10.1955C31.631 10.8161 32.2845 11.2963 32.7223 11.6361H33.7616V3.19129C31.4935 2.04478 29.09 1.18859 26.6079 0.642951C24.3888 0.208712 22.1325 -0.00658655 19.8714 0.000153456C13.6285 0.000153456 8.75999 1.71196 5.26593 5.13558C1.77187 8.5592 0.0165595 13.0541 0 18.6204C0 24.5006 1.73146 29.0973 5.19439 32.4103C8.65732 35.7233 13.4599 37.3957 19.6022 37.4275Z" fill="#FFD40C"/>
</svg>
