<svg width="690" height="329" viewBox="0 0 690 329" fill="none" xmlns="http://www.w3.org/2000/svg">
	<path d="M410.991 265.494C409.521 265.494 408.373 265.196 407.548 264.6C406.731 264.004 406.219 263.084 406.013 261.84C405.979 261.459 406.056 261.174 406.245 260.984C406.434 260.794 406.709 260.699 407.07 260.699C407.432 260.699 407.694 260.785 407.857 260.958C408.029 261.131 408.145 261.399 408.205 261.762C408.334 262.358 408.609 262.768 409.031 262.993C409.461 263.209 410.114 263.317 410.991 263.317H414.705C415.814 263.317 416.567 263.118 416.962 262.721C417.366 262.315 417.568 261.563 417.568 260.466C417.568 259.351 417.362 258.591 416.949 258.185C416.537 257.77 415.789 257.563 414.705 257.563H411.507C409.882 257.563 408.674 257.165 407.883 256.37C407.101 255.567 406.709 254.349 406.709 252.716C406.709 251.091 407.096 249.886 407.87 249.1C408.652 248.313 409.856 247.92 411.481 247.92H414.551C415.918 247.92 416.988 248.201 417.762 248.763C418.544 249.324 419.039 250.184 419.245 251.342C419.297 251.713 419.228 251.998 419.039 252.197C418.85 252.387 418.566 252.482 418.188 252.482C417.844 252.482 417.586 252.391 417.414 252.21C417.242 252.029 417.13 251.765 417.078 251.419C416.941 250.91 416.679 250.564 416.292 250.383C415.905 250.193 415.324 250.098 414.551 250.098H411.481C410.449 250.098 409.757 250.283 409.405 250.655C409.052 251.018 408.876 251.705 408.876 252.716C408.876 253.735 409.057 254.435 409.418 254.815C409.779 255.195 410.475 255.385 411.507 255.385H414.705C416.399 255.385 417.659 255.8 418.484 256.63C419.318 257.459 419.735 258.738 419.735 260.466C419.735 262.185 419.322 263.455 418.497 264.276C417.672 265.088 416.408 265.494 414.705 265.494H410.991Z" fill="#1E2120"/>
	<path d="M434.601 252.353C435.324 252.353 435.685 252.716 435.685 253.441V264.406C435.685 265.132 435.324 265.494 434.601 265.494C433.879 265.494 433.518 265.132 433.518 264.406V263.978C432.607 264.989 431.265 265.494 429.494 265.494H428.772C427.061 265.494 425.789 265.08 424.955 264.25C424.129 263.412 423.716 262.133 423.716 260.414V253.441C423.716 252.716 424.078 252.353 424.8 252.353C425.522 252.353 425.883 252.716 425.883 253.441V260.414C425.883 261.537 426.085 262.302 426.489 262.708C426.902 263.114 427.663 263.317 428.772 263.317H429.494C430.526 263.317 431.424 263.196 432.19 262.954C432.963 262.712 433.406 262.341 433.518 261.84V253.441C433.518 252.716 433.879 252.353 434.601 252.353Z" fill="#1E2120"/>
	<path d="M442.136 270.679C441.414 270.679 441.053 270.316 441.053 269.59V253.441C441.053 252.716 441.414 252.353 442.136 252.353C442.858 252.353 443.219 252.716 443.219 253.441V253.765C443.684 253.299 444.255 252.949 444.935 252.716C445.622 252.474 446.392 252.353 447.243 252.353H448.223C449.943 252.353 451.215 252.767 452.041 253.597C452.866 254.426 453.279 255.705 453.279 257.433V260.414C453.279 262.133 452.866 263.412 452.041 264.25C451.215 265.08 449.943 265.494 448.223 265.494H443.219V269.59C443.219 270.316 442.858 270.679 442.136 270.679ZM443.219 263.317H448.223C449.35 263.317 450.11 263.114 450.506 262.708C450.91 262.302 451.112 261.537 451.112 260.414V257.433C451.112 256.301 450.91 255.537 450.506 255.139C450.11 254.733 449.35 254.53 448.223 254.53H447.243C446.168 254.53 445.24 254.66 444.457 254.919C443.675 255.178 443.262 255.588 443.219 256.15V263.317Z" fill="#1E2120"/>
	<path d="M459.113 270.679C458.391 270.679 458.03 270.316 458.03 269.59V253.441C458.03 252.716 458.391 252.353 459.113 252.353C459.836 252.353 460.197 252.716 460.197 253.441V253.765C460.661 253.299 461.233 252.949 461.912 252.716C462.6 252.474 463.369 252.353 464.221 252.353H465.201C466.92 252.353 468.193 252.767 469.018 253.597C469.844 254.426 470.256 255.705 470.256 257.433V260.414C470.256 262.133 469.844 263.412 469.018 264.25C468.193 265.08 466.92 265.494 465.201 265.494H460.197V269.59C460.197 270.316 459.836 270.679 459.113 270.679ZM460.197 263.317H465.201C466.327 263.317 467.088 263.114 467.483 262.708C467.888 262.302 468.09 261.537 468.09 260.414V257.433C468.09 256.301 467.888 255.537 467.483 255.139C467.088 254.733 466.327 254.53 465.201 254.53H464.221C463.146 254.53 462.217 254.66 461.435 254.919C460.652 255.178 460.24 255.588 460.197 256.15V263.317Z" fill="#1E2120"/>
	<path d="M479.444 265.494C477.733 265.494 476.461 265.08 475.627 264.25C474.801 263.421 474.388 262.151 474.388 260.44V257.433C474.388 255.696 474.801 254.418 475.627 253.597C476.461 252.767 477.733 252.353 479.444 252.353H481.559C483.279 252.353 484.551 252.767 485.377 253.597C486.202 254.426 486.615 255.705 486.615 257.433V260.414C486.615 262.133 486.202 263.412 485.377 264.25C484.551 265.08 483.279 265.494 481.559 265.494H479.444ZM476.555 260.44C476.555 261.554 476.757 262.315 477.161 262.721C477.565 263.118 478.326 263.317 479.444 263.317H481.559C482.685 263.317 483.446 263.114 483.842 262.708C484.246 262.302 484.448 261.537 484.448 260.414V257.433C484.448 256.301 484.246 255.537 483.842 255.139C483.446 254.733 482.685 254.53 481.559 254.53H479.444C478.696 254.53 478.111 254.616 477.69 254.789C477.277 254.953 476.985 255.247 476.813 255.67C476.641 256.085 476.555 256.673 476.555 257.433V260.44Z" fill="#1E2120"/>
	<path d="M492.439 265.494C491.716 265.494 491.355 265.132 491.355 264.406V253.441C491.355 252.716 491.716 252.353 492.439 252.353C493.161 252.353 493.522 252.716 493.522 253.441V254.452C494.029 253.761 494.674 253.238 495.456 252.884C496.247 252.53 497.15 252.353 498.165 252.353C498.887 252.353 499.248 252.716 499.248 253.441C499.248 254.167 498.887 254.53 498.165 254.53C496.677 254.53 495.542 254.806 494.76 255.359C493.978 255.912 493.565 256.642 493.522 257.55V264.406C493.522 265.132 493.161 265.494 492.439 265.494Z" fill="#1E2120"/>
	<path d="M507.883 265.494C506.18 265.494 504.925 265.088 504.117 264.276C503.309 263.464 502.905 262.211 502.905 260.518V254.53H501.641C500.918 254.53 500.557 254.167 500.557 253.441C500.557 252.716 500.918 252.353 501.641 252.353H502.905V250.46C502.905 249.735 503.266 249.372 503.988 249.372C504.71 249.372 505.071 249.735 505.071 250.46V252.353H508.037C508.76 252.353 509.121 252.716 509.121 253.441C509.121 254.167 508.76 254.53 508.037 254.53H505.071V260.518C505.071 261.615 505.269 262.358 505.664 262.747C506.06 263.127 506.799 263.317 507.883 263.317C508.218 263.317 508.48 263.403 508.669 263.576C508.867 263.749 508.966 264.026 508.966 264.406C508.966 265.132 508.605 265.494 507.883 265.494Z" fill="#1E2120"/>
	<path d="M522.363 265.494C521.641 265.494 521.28 265.132 521.28 264.406V249.009C521.28 248.283 521.641 247.92 522.363 247.92H531.855C532.191 247.92 532.453 248.02 532.642 248.218C532.84 248.408 532.939 248.672 532.939 249.009C532.939 249.735 532.578 250.098 531.855 250.098H523.447V255.541H528.631C529.353 255.541 529.714 255.904 529.714 256.63C529.714 257.355 529.353 257.718 528.631 257.718H523.447V264.406C523.447 265.132 523.085 265.494 522.363 265.494Z" fill="#1E2120"/>
	<path d="M538.235 265.494C536.524 265.494 535.252 265.08 534.418 264.25C533.593 263.421 533.18 262.151 533.18 260.44V257.433C533.18 255.696 533.593 254.418 534.418 253.597C535.252 252.767 536.524 252.353 538.235 252.353H540.35C542.07 252.353 543.343 252.767 544.168 253.597C544.993 254.426 545.406 255.705 545.406 257.433V260.414C545.406 262.133 544.993 263.412 544.168 264.25C543.343 265.08 542.07 265.494 540.35 265.494H538.235ZM535.346 260.44C535.346 261.554 535.549 262.315 535.953 262.721C536.357 263.118 537.118 263.317 538.235 263.317H540.35C541.477 263.317 542.238 263.114 542.633 262.708C543.037 262.302 543.239 261.537 543.239 260.414V257.433C543.239 256.301 543.037 255.537 542.633 255.139C542.238 254.733 541.477 254.53 540.35 254.53H538.235C537.487 254.53 536.903 254.616 536.481 254.789C536.069 254.953 535.776 255.247 535.604 255.67C535.432 256.085 535.346 256.673 535.346 257.433V260.44Z" fill="#1E2120"/>
	<path d="M551.23 265.494C550.508 265.494 550.147 265.132 550.147 264.406V253.441C550.147 252.716 550.508 252.353 551.23 252.353C551.952 252.353 552.313 252.716 552.313 253.441V254.452C552.821 253.761 553.465 253.238 554.248 252.884C555.039 252.53 555.942 252.353 556.956 252.353C557.678 252.353 558.039 252.716 558.039 253.441C558.039 254.167 557.678 254.53 556.956 254.53C555.469 254.53 554.334 254.806 553.551 255.359C552.769 255.912 552.356 256.642 552.313 257.55V264.406C552.313 265.132 551.952 265.494 551.23 265.494Z" fill="#1E2120"/>
	<path d="M574.914 265.494C572.945 265.494 571.488 265.023 570.542 264.082C569.605 263.131 569.136 261.667 569.136 259.688V249.009C569.136 248.646 569.226 248.374 569.407 248.192C569.588 248.011 569.858 247.92 570.22 247.92C570.581 247.92 570.851 248.011 571.032 248.192C571.213 248.374 571.303 248.646 571.303 249.009V259.688C571.303 260.613 571.41 261.338 571.625 261.865C571.849 262.393 572.223 262.768 572.747 262.993C573.272 263.209 573.994 263.317 574.914 263.317H578.009C578.929 263.317 579.651 263.209 580.176 262.993C580.7 262.768 581.07 262.393 581.285 261.865C581.509 261.338 581.62 260.613 581.62 259.688V249.009C581.62 248.646 581.711 248.374 581.891 248.192C582.072 248.011 582.343 247.92 582.704 247.92C583.065 247.92 583.336 248.011 583.516 248.192C583.697 248.374 583.787 248.646 583.787 249.009V259.688C583.787 261.667 583.318 263.131 582.381 264.082C581.444 265.023 579.987 265.494 578.009 265.494H574.914Z" fill="#1E2120"/>
	<path d="M590.097 265.494C589.375 265.494 589.013 265.132 589.013 264.406V248.335C589.013 247.609 589.375 247.246 590.097 247.246C590.819 247.246 591.18 247.609 591.18 248.335V258.068L597.319 252.767C597.869 252.292 598.377 252.327 598.841 252.871C599.314 253.424 599.279 253.934 598.738 254.4L594.03 258.483L598.531 263.628C599.013 264.19 598.987 264.699 598.454 265.157C597.904 265.633 597.388 265.598 596.906 265.054L592.379 259.921L591.18 260.958V264.406C591.18 265.132 590.819 265.494 590.097 265.494Z" fill="#1E2120"/>
	<path d="M603.195 265.494C602.473 265.494 602.112 265.132 602.112 264.406V253.441C602.112 252.716 602.473 252.353 603.195 252.353C603.917 252.353 604.278 252.716 604.278 253.441V254.452C604.786 253.761 605.431 253.238 606.213 252.884C607.004 252.53 607.907 252.353 608.921 252.353C609.644 252.353 610.005 252.716 610.005 253.441C610.005 254.167 609.644 254.53 608.921 254.53C607.434 254.53 606.299 254.806 605.517 255.359C604.734 255.912 604.321 256.642 604.278 257.55V264.406C604.278 265.132 603.917 265.494 603.195 265.494Z" fill="#1E2120"/>
	<path d="M616.362 265.494C614.918 265.494 613.843 265.14 613.138 264.432C612.433 263.723 612.081 262.643 612.081 261.192C612.081 259.74 612.429 258.66 613.125 257.951C613.83 257.243 614.909 256.889 616.362 256.889H621.818C621.766 255.982 621.53 255.364 621.108 255.035C620.687 254.698 619.965 254.53 618.942 254.53H617.446C616.586 254.53 615.945 254.59 615.524 254.711C615.103 254.824 614.806 255.031 614.634 255.333C614.479 255.696 614.32 255.947 614.157 256.085C613.994 256.223 613.749 256.293 613.422 256.293C613.061 256.293 612.777 256.193 612.571 255.994C612.364 255.787 612.304 255.515 612.39 255.178C612.648 254.202 613.185 253.489 614.002 253.04C614.828 252.582 615.975 252.353 617.446 252.353H618.942C620.661 252.353 621.934 252.767 622.759 253.597C623.585 254.426 623.997 255.705 623.997 257.433V264.406C623.997 265.132 623.636 265.494 622.914 265.494C622.192 265.494 621.831 265.132 621.831 264.406V263.823C620.911 264.937 619.569 265.494 617.807 265.494H616.362ZM616.362 263.317H617.807C618.443 263.317 619.041 263.261 619.599 263.149C620.158 263.028 620.635 262.812 621.031 262.501C621.435 262.19 621.702 261.745 621.831 261.166V259.066H616.362C615.511 259.066 614.944 259.209 614.66 259.494C614.385 259.779 614.247 260.345 614.247 261.192C614.247 262.047 614.385 262.617 614.66 262.902C614.944 263.179 615.511 263.317 616.362 263.317Z" fill="#1E2120"/>
	<path d="M629.837 250.227C629.02 250.227 628.612 249.812 628.612 248.983V248.218C628.612 247.406 629.02 247 629.837 247H630.585C631.367 247 631.758 247.406 631.758 248.218V248.983C631.758 249.812 631.367 250.227 630.585 250.227H629.837ZM630.198 265.494C629.476 265.494 629.114 265.132 629.114 264.406V253.441C629.114 252.716 629.476 252.353 630.198 252.353C630.92 252.353 631.281 252.716 631.281 253.441V264.406C631.281 265.132 630.92 265.494 630.198 265.494Z" fill="#1E2120"/>
	<path d="M637.729 265.494C637.007 265.494 636.646 265.132 636.646 264.406V253.441C636.646 252.716 637.007 252.353 637.729 252.353C638.452 252.353 638.813 252.716 638.813 253.441V253.869C639.724 252.858 641.065 252.353 642.837 252.353H643.559C645.278 252.353 646.551 252.767 647.376 253.597C648.202 254.426 648.614 255.705 648.614 257.433V264.406C648.614 265.132 648.253 265.494 647.531 265.494C646.809 265.494 646.448 265.132 646.448 264.406V257.433C646.448 256.301 646.241 255.537 645.829 255.139C645.424 254.733 644.668 254.53 643.559 254.53H642.837C641.805 254.53 640.906 254.651 640.141 254.893C639.376 255.126 638.933 255.498 638.813 256.007V264.406C638.813 265.132 638.452 265.494 637.729 265.494Z" fill="#1E2120"/>
	<path d="M654.446 250.227C653.63 250.227 653.221 249.812 653.221 248.983V248.218C653.221 247.406 653.63 247 654.446 247H655.194C655.977 247 656.368 247.406 656.368 248.218V248.983C656.368 249.812 655.977 250.227 655.194 250.227H654.446ZM654.808 265.494C654.085 265.494 653.724 265.132 653.724 264.406V253.441C653.724 252.716 654.085 252.353 654.808 252.353C655.53 252.353 655.891 252.716 655.891 253.441V264.406C655.891 265.132 655.53 265.494 654.808 265.494Z" fill="#1E2120"/>
	<path d="M665.28 265.494C663.835 265.494 662.76 265.14 662.055 264.432C661.35 263.723 660.998 262.643 660.998 261.192C660.998 259.74 661.346 258.66 662.042 257.951C662.747 257.243 663.827 256.889 665.28 256.889H670.735C670.683 255.982 670.447 255.364 670.026 255.035C669.604 254.698 668.882 254.53 667.859 254.53H666.363C665.503 254.53 664.863 254.59 664.441 254.711C664.02 254.824 663.723 255.031 663.551 255.333C663.397 255.696 663.238 255.947 663.074 256.085C662.911 256.223 662.666 256.293 662.339 256.293C661.978 256.293 661.694 256.193 661.488 255.994C661.282 255.787 661.221 255.515 661.307 255.178C661.565 254.202 662.103 253.489 662.919 253.04C663.745 252.582 664.893 252.353 666.363 252.353H667.859C669.579 252.353 670.851 252.767 671.676 253.597C672.502 254.426 672.915 255.705 672.915 257.433V264.406C672.915 265.132 672.553 265.494 671.831 265.494C671.109 265.494 670.748 265.132 670.748 264.406V263.823C669.828 264.937 668.487 265.494 666.724 265.494H665.28ZM665.28 263.317H666.724C667.36 263.317 667.958 263.261 668.517 263.149C669.076 263.028 669.553 262.812 669.948 262.501C670.352 262.19 670.619 261.745 670.748 261.166V259.066H665.28C664.428 259.066 663.861 259.209 663.577 259.494C663.302 259.779 663.165 260.345 663.165 261.192C663.165 262.047 663.302 262.617 663.577 262.902C663.861 263.179 664.428 263.317 665.28 263.317Z" fill="#1E2120"/>
	<path d="M679.115 265.494C678.393 265.494 678.032 265.132 678.032 264.406V253.441C678.032 252.716 678.393 252.353 679.115 252.353C679.837 252.353 680.198 252.716 680.198 253.441V253.869C681.11 252.858 682.451 252.353 684.222 252.353H684.944C686.664 252.353 687.937 252.767 688.762 253.597C689.587 254.426 690 255.705 690 257.433V264.406C690 265.132 689.639 265.494 688.917 265.494C688.194 265.494 687.833 265.132 687.833 264.406V257.433C687.833 256.301 687.627 255.537 687.214 255.139C686.81 254.733 686.054 254.53 684.944 254.53H684.222C683.19 254.53 682.292 254.651 681.527 254.893C680.762 255.126 680.319 255.498 680.198 256.007V264.406C680.198 265.132 679.837 265.494 679.115 265.494Z" fill="#1E2120"/>
	<path d="M407.702 294.655C407.333 294.655 407.058 294.569 406.877 294.396C406.705 294.214 406.619 293.938 406.619 293.566V278.196C406.619 277.815 406.705 277.539 406.877 277.366C407.058 277.193 407.333 277.107 407.702 277.107C408.081 277.107 408.356 277.193 408.528 277.366C408.7 277.539 408.786 277.815 408.786 278.196V293.566C408.786 293.938 408.7 294.214 408.528 294.396C408.356 294.569 408.081 294.655 407.702 294.655Z" fill="#1E2120"/>
	<path d="M419.67 294.655C417.968 294.655 416.713 294.249 415.905 293.437C415.096 292.625 414.692 291.372 414.692 289.678V283.691H413.428C412.706 283.691 412.345 283.328 412.345 282.602C412.345 281.876 412.706 281.513 413.428 281.513H414.692V279.621C414.692 278.895 415.053 278.532 415.776 278.532C416.498 278.532 416.859 278.895 416.859 279.621V281.513H419.825C420.547 281.513 420.909 281.876 420.909 282.602C420.909 283.328 420.547 283.691 419.825 283.691H416.859V289.678C416.859 290.776 417.057 291.519 417.452 291.908C417.848 292.288 418.587 292.478 419.67 292.478C420.006 292.478 420.268 292.564 420.457 292.737C420.655 292.91 420.754 293.186 420.754 293.566C420.754 294.292 420.393 294.655 419.67 294.655Z" fill="#1E2120"/>
	<path d="M425.344 288.564C425.103 288.564 424.892 288.473 424.712 288.292C424.531 288.11 424.441 287.898 424.441 287.657C424.441 287.406 424.531 287.194 424.712 287.021C424.892 286.84 425.103 286.749 425.344 286.749H432.463C432.712 286.749 432.923 286.84 433.095 287.021C433.275 287.194 433.365 287.406 433.365 287.657C433.365 287.898 433.275 288.11 433.095 288.292C432.923 288.473 432.712 288.564 432.463 288.564H425.344Z" fill="#1E2120"/>
	<path d="M439.29 294.655C438.567 294.655 438.206 294.292 438.206 293.566V278.17C438.206 277.444 438.567 277.081 439.29 277.081H445.325C446.899 277.081 448.102 277.504 448.936 278.351C449.779 279.189 450.2 280.399 450.2 281.98V282.758C450.2 284.339 449.779 285.553 448.936 286.399C448.102 287.237 446.899 287.657 445.325 287.657H440.373V293.566C440.373 294.292 440.012 294.655 439.29 294.655ZM440.373 285.479H445.325C446.305 285.479 447.002 285.272 447.415 284.857C447.827 284.442 448.034 283.743 448.034 282.758V281.98C448.034 281.004 447.827 280.308 447.415 279.893C447.002 279.47 446.305 279.258 445.325 279.258H440.373V285.479Z" fill="#1E2120"/>
	<path d="M454.605 294.655C453.882 294.655 453.521 294.292 453.521 293.566V282.602C453.521 281.876 453.882 281.513 454.605 281.513C455.327 281.513 455.688 281.876 455.688 282.602V283.613C456.195 282.922 456.84 282.399 457.622 282.045C458.413 281.69 459.316 281.513 460.331 281.513C461.053 281.513 461.414 281.876 461.414 282.602C461.414 283.328 461.053 283.691 460.331 283.691C458.843 283.691 457.708 283.967 456.926 284.52C456.144 285.073 455.731 285.803 455.688 286.71V293.566C455.688 294.292 455.327 294.655 454.605 294.655Z" fill="#1E2120"/>
	<path d="M468.462 294.655C466.751 294.655 465.478 294.24 464.644 293.411C463.819 292.581 463.406 291.311 463.406 289.601V286.594C463.406 284.857 463.819 283.578 464.644 282.758C465.478 281.928 466.751 281.513 468.462 281.513H470.577C472.296 281.513 473.569 281.928 474.394 282.758C475.219 283.587 475.632 284.866 475.632 286.594V289.575C475.632 291.294 475.219 292.573 474.394 293.411C473.569 294.24 472.296 294.655 470.577 294.655H468.462ZM465.573 289.601C465.573 290.715 465.775 291.476 466.179 291.882C466.583 292.279 467.344 292.478 468.462 292.478H470.577C471.703 292.478 472.464 292.275 472.859 291.869C473.263 291.463 473.466 290.698 473.466 289.575V286.594C473.466 285.462 473.263 284.697 472.859 284.3C472.464 283.894 471.703 283.691 470.577 283.691H468.462C467.714 283.691 467.129 283.777 466.708 283.95C466.295 284.114 466.003 284.408 465.831 284.831C465.659 285.246 465.573 285.833 465.573 286.594V289.601Z" fill="#1E2120"/>
	<path d="M484.809 294.655C483.098 294.655 481.826 294.24 480.992 293.411C480.166 292.573 479.754 291.294 479.754 289.575V286.594C479.754 284.866 480.166 283.587 480.992 282.758C481.826 281.928 483.098 281.513 484.809 281.513H489.813V277.496C489.813 276.77 490.174 276.407 490.897 276.407C491.619 276.407 491.98 276.77 491.98 277.496V293.566C491.98 294.292 491.619 294.655 490.897 294.655C490.174 294.655 489.813 294.292 489.813 293.566V293.385C489.409 293.8 488.88 294.115 488.227 294.331C487.574 294.547 486.761 294.655 485.789 294.655H484.809ZM484.809 292.478H485.789C486.924 292.478 487.879 292.331 488.653 292.037C489.426 291.743 489.813 291.294 489.813 290.689V283.691H484.809C483.692 283.691 482.931 283.898 482.527 284.313C482.122 284.719 481.92 285.479 481.92 286.594V289.575C481.92 290.698 482.122 291.463 482.527 291.869C482.939 292.275 483.7 292.478 484.809 292.478Z" fill="#1E2120"/>
	<path d="M507.725 281.513C508.448 281.513 508.809 281.876 508.809 282.602V293.566C508.809 294.292 508.448 294.655 507.725 294.655C507.003 294.655 506.642 294.292 506.642 293.566V293.139C505.731 294.15 504.389 294.655 502.618 294.655H501.896C500.185 294.655 498.912 294.24 498.078 293.411C497.253 292.573 496.84 291.294 496.84 289.575V282.602C496.84 281.876 497.202 281.513 497.924 281.513C498.646 281.513 499.007 281.876 499.007 282.602V289.575C499.007 290.698 499.209 291.463 499.613 291.869C500.026 292.275 500.787 292.478 501.896 292.478H502.618C503.65 292.478 504.548 292.357 505.314 292.115C506.087 291.873 506.53 291.501 506.642 291V282.602C506.642 281.876 507.003 281.513 507.725 281.513Z" fill="#1E2120"/>
	<path d="M518.613 294.655C516.902 294.655 515.63 294.24 514.796 293.411C513.97 292.573 513.558 291.294 513.558 289.575V286.568C513.558 284.84 513.966 283.561 514.783 282.732C515.608 281.902 516.885 281.496 518.613 281.513H520.728C522.009 281.513 523.015 281.729 523.746 282.161C524.485 282.593 524.958 283.259 525.165 284.157C525.242 284.52 525.178 284.801 524.971 285C524.773 285.198 524.485 285.298 524.107 285.298C523.772 285.298 523.527 285.211 523.372 285.039C523.217 284.866 523.075 284.624 522.946 284.313C522.817 284.079 522.581 283.92 522.237 283.833C521.893 283.738 521.39 283.691 520.728 283.691H518.613C517.504 283.673 516.743 283.868 516.33 284.274C515.926 284.671 515.724 285.436 515.724 286.568V289.575C515.724 290.698 515.926 291.463 516.33 291.869C516.743 292.275 517.504 292.478 518.613 292.478H520.728C521.39 292.478 521.893 292.435 522.237 292.348C522.581 292.253 522.817 292.089 522.946 291.856C523.075 291.527 523.217 291.281 523.372 291.117C523.535 290.953 523.789 290.871 524.133 290.871C524.494 290.871 524.773 290.97 524.971 291.169C525.178 291.368 525.242 291.648 525.165 292.011C524.958 292.901 524.485 293.566 523.746 294.007C523.015 294.439 522.009 294.655 520.728 294.655H518.613Z" fill="#1E2120"/>
	<path d="M535.188 294.655C533.485 294.655 532.23 294.249 531.422 293.437C530.614 292.625 530.21 291.372 530.21 289.678V283.691H528.946C528.223 283.691 527.862 283.328 527.862 282.602C527.862 281.876 528.223 281.513 528.946 281.513H530.21V279.621C530.21 278.895 530.571 278.532 531.293 278.532C532.015 278.532 532.376 278.895 532.376 279.621V281.513H535.342C536.065 281.513 536.426 281.876 536.426 282.602C536.426 283.328 536.065 283.691 535.342 283.691H532.376V289.678C532.376 290.776 532.574 291.519 532.969 291.908C533.365 292.288 534.104 292.478 535.188 292.478C535.523 292.478 535.785 292.564 535.974 292.737C536.172 292.91 536.271 293.186 536.271 293.566C536.271 294.292 535.91 294.655 535.188 294.655Z" fill="#1E2120"/>
	<path d="M543.543 294.655C542.452 294.655 541.587 294.43 540.951 293.981C540.315 293.523 539.907 292.841 539.726 291.933C539.666 291.571 539.735 291.285 539.932 291.078C540.139 290.871 540.422 290.767 540.784 290.767C541.136 290.767 541.39 290.858 541.544 291.039C541.708 291.212 541.841 291.476 541.944 291.83C542.047 292.089 542.219 292.262 542.46 292.348C542.709 292.435 543.071 292.478 543.543 292.478H547.774C548.444 292.478 548.896 292.37 549.128 292.154C549.36 291.929 549.476 291.467 549.476 290.767C549.476 290.076 549.36 289.618 549.128 289.393C548.896 289.169 548.444 289.056 547.774 289.056H543.621C542.383 289.056 541.45 288.741 540.822 288.11C540.195 287.479 539.881 286.542 539.881 285.298C539.881 284.028 540.186 283.082 540.796 282.459C541.415 281.829 542.357 281.513 543.621 281.513H547.645C549.665 281.513 550.86 282.369 551.23 284.079C551.299 284.442 551.23 284.723 551.024 284.922C550.817 285.121 550.534 285.22 550.172 285.22C549.837 285.22 549.588 285.134 549.424 284.961C549.261 284.779 549.132 284.529 549.037 284.209C548.934 284.002 548.775 283.863 548.56 283.794C548.354 283.725 548.049 283.691 547.645 283.691H543.621C542.967 283.691 542.542 283.79 542.344 283.989C542.146 284.188 542.047 284.624 542.047 285.298C542.047 285.92 542.151 286.339 542.357 286.555C542.572 286.771 542.993 286.879 543.621 286.879H547.774C549.063 286.879 550.031 287.203 550.675 287.851C551.32 288.499 551.643 289.471 551.643 290.767C551.643 292.072 551.32 293.048 550.675 293.696C550.031 294.335 549.063 294.655 547.774 294.655H543.543Z" fill="#1E2120"/>
	<path d="M565.437 294.655C565.067 294.655 564.792 294.569 564.611 294.396C564.439 294.214 564.353 293.938 564.353 293.566V278.196C564.353 277.815 564.439 277.539 564.611 277.366C564.792 277.193 565.067 277.107 565.437 277.107C565.815 277.107 566.09 277.193 566.262 277.366C566.434 277.539 566.52 277.815 566.52 278.196V293.566C566.52 293.938 566.434 294.214 566.262 294.396C566.09 294.569 565.815 294.655 565.437 294.655Z" fill="#1E2120"/>
	<path d="M572.968 294.655C572.246 294.655 571.885 294.292 571.885 293.566V282.602C571.885 281.876 572.246 281.513 572.968 281.513C573.69 281.513 574.051 281.876 574.051 282.602V283.03C574.963 282.019 576.304 281.513 578.075 281.513H578.798C580.517 281.513 581.79 281.928 582.615 282.758C583.44 283.587 583.853 284.866 583.853 286.594V293.566C583.853 294.292 583.492 294.655 582.77 294.655C582.048 294.655 581.686 294.292 581.686 293.566V286.594C581.686 285.462 581.48 284.697 581.067 284.3C580.663 283.894 579.907 283.691 578.798 283.691H578.075C577.044 283.691 576.145 283.812 575.38 284.054C574.615 284.287 574.172 284.658 574.051 285.168V293.566C574.051 294.292 573.69 294.655 572.968 294.655Z" fill="#1E2120"/>
	<path d="M602.568 294.655C602.121 294.655 601.768 294.37 601.51 293.8L595.139 278.636C595.01 278.334 594.976 278.066 595.036 277.833C595.096 277.591 595.294 277.392 595.629 277.236C596.335 276.882 596.833 277.064 597.126 277.781L603.148 292.115H602.4L608.268 277.781C608.552 277.072 609.051 276.891 609.764 277.236C610.065 277.392 610.25 277.591 610.319 277.833C610.396 278.066 610.375 278.334 610.254 278.636L603.832 293.8C603.565 294.37 603.178 294.655 602.671 294.655H602.568Z" fill="#1E2120"/>
	<path d="M614.371 279.388C613.554 279.388 613.145 278.973 613.145 278.144V277.379C613.145 276.567 613.554 276.161 614.371 276.161H615.119C615.901 276.161 616.292 276.567 616.292 277.379V278.144C616.292 278.973 615.901 279.388 615.119 279.388H614.371ZM614.732 294.655C614.009 294.655 613.648 294.292 613.648 293.566V282.602C613.648 281.876 614.009 281.513 614.732 281.513C615.454 281.513 615.815 281.876 615.815 282.602V293.566C615.815 294.292 615.454 294.655 614.732 294.655Z" fill="#1E2120"/>
	<path d="M625.616 294.655C623.905 294.655 622.633 294.24 621.799 293.411C620.974 292.573 620.561 291.294 620.561 289.575V286.594C620.561 284.866 620.974 283.587 621.799 282.758C622.633 281.928 623.905 281.513 625.616 281.513H630.62V277.496C630.62 276.77 630.982 276.407 631.704 276.407C632.426 276.407 632.787 276.77 632.787 277.496V293.566C632.787 294.292 632.426 294.655 631.704 294.655C630.982 294.655 630.62 294.292 630.62 293.566V293.385C630.216 293.8 629.688 294.115 629.034 294.331C628.381 294.547 627.568 294.655 626.597 294.655H625.616ZM625.616 292.478H626.597C627.732 292.478 628.686 292.331 629.46 292.037C630.233 291.743 630.62 291.294 630.62 290.689V283.691H625.616C624.499 283.691 623.738 283.898 623.334 284.313C622.93 284.719 622.728 285.479 622.728 286.594V289.575C622.728 290.698 622.93 291.463 623.334 291.869C623.746 292.275 624.507 292.478 625.616 292.478Z" fill="#1E2120"/>
	<path d="M639.453 288.979V289.601C639.453 290.715 639.655 291.476 640.059 291.882C640.463 292.279 641.224 292.478 642.342 292.478H644.457C645.334 292.478 645.983 292.396 646.404 292.232C646.826 292.067 647.105 291.778 647.243 291.363C647.337 291.035 647.466 290.784 647.63 290.612C647.802 290.439 648.06 290.352 648.403 290.352C648.765 290.352 649.04 290.447 649.229 290.637C649.418 290.828 649.478 291.104 649.409 291.467C649.22 292.538 648.713 293.337 647.888 293.865C647.062 294.392 645.919 294.655 644.457 294.655H642.342C640.631 294.655 639.359 294.24 638.525 293.411C637.699 292.581 637.286 291.311 637.286 289.601V286.594C637.286 284.84 637.699 283.552 638.525 282.732C639.359 281.902 640.631 281.496 642.342 281.513H644.457C646.177 281.513 647.449 281.928 648.275 282.758C649.1 283.578 649.513 284.857 649.513 286.594V287.89C649.513 288.616 649.152 288.979 648.429 288.979H639.453ZM642.342 283.691C641.224 283.673 640.463 283.868 640.059 284.274C639.655 284.68 639.453 285.453 639.453 286.594V286.801H647.346V286.594C647.346 285.462 647.144 284.697 646.74 284.3C646.344 283.894 645.583 283.691 644.457 283.691H642.342Z" fill="#1E2120"/>
	<path d="M658.69 294.655C656.979 294.655 655.706 294.24 654.872 293.411C654.047 292.581 653.634 291.311 653.634 289.601V286.594C653.634 284.857 654.047 283.578 654.872 282.758C655.706 281.928 656.979 281.513 658.69 281.513H660.805C662.524 281.513 663.797 281.928 664.622 282.758C665.448 283.587 665.86 284.866 665.86 286.594V289.575C665.86 291.294 665.448 292.573 664.622 293.411C663.797 294.24 662.524 294.655 660.805 294.655H658.69ZM655.801 289.601C655.801 290.715 656.003 291.476 656.407 291.882C656.811 292.279 657.572 292.478 658.69 292.478H660.805C661.931 292.478 662.692 292.275 663.088 291.869C663.492 291.463 663.694 290.698 663.694 289.575V286.594C663.694 285.462 663.492 284.697 663.088 284.3C662.692 283.894 661.931 283.691 660.805 283.691H658.69C657.942 283.691 657.357 283.777 656.936 283.95C656.523 284.114 656.231 284.408 656.059 284.831C655.887 285.246 655.801 285.833 655.801 286.594V289.601Z" fill="#1E2120"/>
	<path d="M411.778 323.816C409.809 323.816 408.352 323.345 407.406 322.403C406.469 321.453 406 319.988 406 318.01V312.048C406 310.052 406.469 308.583 407.406 307.641C408.343 306.691 409.792 306.224 411.752 306.242H414.873C416.489 306.242 417.723 306.579 418.574 307.253C419.426 307.918 419.92 308.972 420.058 310.415C420.109 310.778 420.04 311.054 419.851 311.244C419.662 311.434 419.387 311.529 419.026 311.529C418.372 311.529 417.994 311.167 417.891 310.441C417.805 309.646 417.53 309.11 417.065 308.834C416.61 308.557 415.879 308.419 414.873 308.419H411.752C410.841 308.41 410.123 308.514 409.598 308.73C409.082 308.946 408.713 309.322 408.489 309.858C408.274 310.385 408.167 311.115 408.167 312.048V318.01C408.167 318.934 408.274 319.66 408.489 320.187C408.713 320.714 409.087 321.09 409.611 321.315C410.136 321.531 410.858 321.639 411.778 321.639H414.873C415.673 321.639 416.296 321.552 416.743 321.379C417.199 321.198 417.517 320.883 417.697 320.433C417.878 319.984 417.968 319.349 417.968 318.528V317.31L415.956 317.284C415.234 317.284 414.873 316.921 414.873 316.195C414.873 315.469 415.234 315.107 415.956 315.107L419.052 315.132C419.774 315.132 420.135 315.495 420.135 316.221V318.528C420.135 320.368 419.709 321.712 418.858 322.559C418.007 323.397 416.679 323.816 414.873 323.816H411.778Z" fill="#1E2120"/>
	<path d="M428.149 323.816C426.705 323.816 425.63 323.462 424.925 322.753C424.22 322.045 423.868 320.965 423.868 319.513C423.868 318.061 424.216 316.981 424.912 316.273C425.617 315.564 426.696 315.21 428.149 315.21H433.605C433.553 314.303 433.317 313.685 432.895 313.357C432.474 313.02 431.752 312.851 430.729 312.851H429.233C428.373 312.851 427.732 312.912 427.311 313.033C426.89 313.145 426.593 313.353 426.421 313.655C426.266 314.018 426.107 314.268 425.944 314.407C425.781 314.545 425.536 314.614 425.209 314.614C424.848 314.614 424.564 314.515 424.358 314.316C424.151 314.109 424.091 313.836 424.177 313.499C424.435 312.523 424.972 311.81 425.789 311.361C426.615 310.903 427.762 310.674 429.233 310.674H430.729C432.448 310.674 433.721 311.089 434.546 311.918C435.372 312.748 435.784 314.026 435.784 315.755V322.727C435.784 323.453 435.423 323.816 434.701 323.816C433.979 323.816 433.618 323.453 433.618 322.727V322.144C432.698 323.259 431.356 323.816 429.594 323.816H428.149ZM428.149 321.639H429.594C430.23 321.639 430.828 321.582 431.386 321.47C431.945 321.349 432.422 321.133 432.818 320.822C433.222 320.511 433.489 320.066 433.618 319.487V317.388H428.149C427.298 317.388 426.731 317.53 426.447 317.815C426.172 318.1 426.034 318.666 426.034 319.513C426.034 320.368 426.172 320.939 426.447 321.224C426.731 321.5 427.298 321.639 428.149 321.639Z" fill="#1E2120"/>
	<path d="M455.217 310.674C456.842 310.674 458.007 311.059 458.712 311.828C459.426 312.597 459.782 313.871 459.782 315.651V322.727C459.782 323.453 459.421 323.816 458.699 323.816C457.977 323.816 457.616 323.453 457.616 322.727V315.651C457.616 314.666 457.427 313.953 457.048 313.512C456.679 313.072 456.068 312.851 455.217 312.851H454.159C453.179 312.851 452.478 313.072 452.057 313.512C451.636 313.953 451.425 314.666 451.425 315.651V322.727C451.425 323.453 451.064 323.816 450.342 323.816C449.62 323.816 449.259 323.453 449.259 322.727V315.651C449.259 314.666 449.069 313.953 448.691 313.512C448.321 313.072 447.711 312.851 446.86 312.851H445.802C444.822 312.851 444.121 313.072 443.7 313.512C443.279 313.953 443.068 314.666 443.068 315.651V322.727C443.068 323.453 442.707 323.816 441.985 323.816C441.263 323.816 440.901 323.453 440.901 322.727V311.763C440.901 311.037 441.263 310.674 441.985 310.674C442.707 310.674 443.068 311.037 443.068 311.763V312.359C443.524 311.763 444.022 311.335 444.564 311.076C445.114 310.808 445.768 310.674 446.524 310.674H446.86C447.926 310.674 448.764 310.825 449.375 311.128C449.985 311.421 450.449 311.901 450.768 312.566C451.223 311.884 451.705 311.4 452.212 311.115C452.728 310.821 453.377 310.674 454.159 310.674H455.217Z" fill="#1E2120"/>
	<path d="M466.429 318.139V318.761C466.429 319.876 466.631 320.636 467.035 321.042C467.439 321.44 468.2 321.639 469.318 321.639H471.433C472.31 321.639 472.959 321.556 473.38 321.392C473.802 321.228 474.081 320.939 474.219 320.524C474.313 320.196 474.442 319.945 474.606 319.772C474.778 319.599 475.036 319.513 475.379 319.513C475.741 319.513 476.016 319.608 476.205 319.798C476.394 319.988 476.454 320.265 476.385 320.628C476.196 321.699 475.689 322.498 474.864 323.025C474.038 323.552 472.895 323.816 471.433 323.816H469.318C467.607 323.816 466.335 323.401 465.501 322.572C464.675 321.742 464.262 320.472 464.262 318.761V315.755C464.262 314.001 464.675 312.713 465.501 311.892C466.335 311.063 467.607 310.657 469.318 310.674H471.433C473.153 310.674 474.425 311.089 475.251 311.918C476.076 312.739 476.489 314.018 476.489 315.755V317.051C476.489 317.776 476.128 318.139 475.405 318.139H466.429ZM469.318 312.851C468.2 312.834 467.439 313.029 467.035 313.435C466.631 313.841 466.429 314.614 466.429 315.755V315.962H474.322V315.755C474.322 314.623 474.12 313.858 473.716 313.461C473.32 313.054 472.559 312.851 471.433 312.851H469.318Z" fill="#1E2120"/>
	<path d="M484.299 323.816C483.207 323.816 482.343 323.591 481.706 323.142C481.07 322.684 480.662 322.001 480.481 321.094C480.421 320.731 480.49 320.446 480.688 320.239C480.894 320.031 481.178 319.928 481.539 319.928C481.891 319.928 482.145 320.018 482.3 320.2C482.463 320.373 482.596 320.636 482.699 320.991C482.803 321.25 482.975 321.423 483.215 321.509C483.465 321.595 483.826 321.639 484.299 321.639H488.529C489.199 321.639 489.651 321.531 489.883 321.315C490.115 321.09 490.231 320.628 490.231 319.928C490.231 319.237 490.115 318.779 489.883 318.554C489.651 318.329 489.199 318.217 488.529 318.217H484.376C483.138 318.217 482.205 317.902 481.577 317.271C480.95 316.64 480.636 315.703 480.636 314.459C480.636 313.188 480.941 312.242 481.552 311.62C482.171 310.989 483.112 310.674 484.376 310.674H488.4C490.42 310.674 491.615 311.529 491.985 313.24C492.054 313.603 491.985 313.884 491.779 314.083C491.572 314.281 491.289 314.381 490.928 314.381C490.592 314.381 490.343 314.294 490.18 314.122C490.016 313.94 489.887 313.69 489.793 313.37C489.69 313.162 489.53 313.024 489.316 312.955C489.109 312.886 488.804 312.851 488.4 312.851H484.376C483.723 312.851 483.297 312.951 483.099 313.15C482.901 313.348 482.803 313.785 482.803 314.459C482.803 315.081 482.906 315.5 483.112 315.716C483.327 315.932 483.748 316.04 484.376 316.04H488.529C489.818 316.04 490.786 316.364 491.431 317.012C492.075 317.66 492.398 318.632 492.398 319.928C492.398 321.232 492.075 322.209 491.431 322.857C490.786 323.496 489.818 323.816 488.529 323.816H484.299Z" fill="#1E2120"/>
	<path d="M506.192 323.816C505.822 323.816 505.547 323.729 505.366 323.557C505.194 323.375 505.108 323.099 505.108 322.727V307.356C505.108 306.976 505.194 306.7 505.366 306.527C505.547 306.354 505.822 306.268 506.192 306.268C506.57 306.268 506.845 306.354 507.017 306.527C507.189 306.7 507.275 306.976 507.275 307.356V322.727C507.275 323.099 507.189 323.375 507.017 323.557C506.845 323.729 506.57 323.816 506.192 323.816Z" fill="#1E2120"/>
	<path d="M513.723 323.816C513.001 323.816 512.64 323.453 512.64 322.727V311.763C512.64 311.037 513.001 310.674 513.723 310.674C514.446 310.674 514.807 311.037 514.807 311.763V312.19C515.718 311.18 517.059 310.674 518.83 310.674H519.553C521.272 310.674 522.545 311.089 523.37 311.918C524.196 312.748 524.608 314.026 524.608 315.755V322.727C524.608 323.453 524.247 323.816 523.525 323.816C522.803 323.816 522.442 323.453 522.442 322.727V315.755C522.442 314.623 522.235 313.858 521.823 313.461C521.418 313.054 520.662 312.851 519.553 312.851H518.83C517.799 312.851 516.9 312.972 516.135 313.214C515.37 313.448 514.927 313.819 514.807 314.329V322.727C514.807 323.453 514.446 323.816 513.723 323.816Z" fill="#1E2120"/>
	<path d="M534.155 323.816C532.444 323.816 531.171 323.401 530.337 322.572C529.512 321.734 529.099 320.455 529.099 318.735V315.755C529.099 314.026 529.512 312.748 530.337 311.918C531.171 311.089 532.444 310.674 534.155 310.674H539.159V306.656C539.159 305.931 539.52 305.568 540.242 305.568C540.964 305.568 541.325 305.931 541.325 306.656V322.727C541.325 323.453 540.964 323.816 540.242 323.816C539.52 323.816 539.159 323.453 539.159 322.727V322.546C538.755 322.96 538.226 323.276 537.572 323.492C536.919 323.708 536.106 323.816 535.135 323.816H534.155ZM534.155 321.639H535.135C536.27 321.639 537.224 321.492 537.998 321.198C538.772 320.904 539.159 320.455 539.159 319.85V312.851H534.155C533.037 312.851 532.276 313.059 531.872 313.474C531.468 313.88 531.266 314.64 531.266 315.755V318.735C531.266 319.859 531.468 320.623 531.872 321.029C532.285 321.435 533.046 321.639 534.155 321.639Z" fill="#1E2120"/>
	<path d="M557.071 310.674C557.793 310.674 558.154 311.037 558.154 311.763V322.727C558.154 323.453 557.793 323.816 557.071 323.816C556.349 323.816 555.987 323.453 555.987 322.727V322.3C555.076 323.31 553.735 323.816 551.964 323.816H551.241C549.53 323.816 548.258 323.401 547.424 322.572C546.599 321.734 546.186 320.455 546.186 318.735V311.763C546.186 311.037 546.547 310.674 547.269 310.674C547.991 310.674 548.353 311.037 548.353 311.763V318.735C548.353 319.859 548.555 320.623 548.959 321.029C549.371 321.435 550.132 321.639 551.241 321.639H551.964C552.995 321.639 553.894 321.518 554.659 321.276C555.433 321.034 555.876 320.662 555.987 320.161V311.763C555.987 311.037 556.349 310.674 557.071 310.674Z" fill="#1E2120"/>
	<path d="M566.591 323.816C565.5 323.816 564.635 323.591 563.999 323.142C563.363 322.684 562.955 322.001 562.774 321.094C562.714 320.731 562.783 320.446 562.98 320.239C563.187 320.031 563.47 319.928 563.832 319.928C564.184 319.928 564.438 320.018 564.592 320.2C564.756 320.373 564.889 320.636 564.992 320.991C565.095 321.25 565.267 321.423 565.508 321.509C565.757 321.595 566.119 321.639 566.591 321.639H570.822C571.492 321.639 571.944 321.531 572.176 321.315C572.408 321.09 572.524 320.628 572.524 319.928C572.524 319.237 572.408 318.779 572.176 318.554C571.944 318.329 571.492 318.217 570.822 318.217H566.669C565.431 318.217 564.498 317.902 563.87 317.271C563.243 316.64 562.929 315.703 562.929 314.459C562.929 313.188 563.234 312.242 563.844 311.62C564.464 310.989 565.405 310.674 566.669 310.674H570.693C572.713 310.674 573.908 311.529 574.278 313.24C574.347 313.603 574.278 313.884 574.072 314.083C573.865 314.281 573.582 314.381 573.22 314.381C572.885 314.381 572.636 314.294 572.472 314.122C572.309 313.94 572.18 313.69 572.086 313.37C571.982 313.162 571.823 313.024 571.608 312.955C571.402 312.886 571.097 312.851 570.693 312.851H566.669C566.015 312.851 565.59 312.951 565.392 313.15C565.194 313.348 565.095 313.785 565.095 314.459C565.095 315.081 565.199 315.5 565.405 315.716C565.62 315.932 566.041 316.04 566.669 316.04H570.822C572.111 316.04 573.079 316.364 573.723 317.012C574.368 317.66 574.691 318.632 574.691 319.928C574.691 321.232 574.368 322.209 573.723 322.857C573.079 323.496 572.111 323.816 570.822 323.816H566.591Z" fill="#1E2120"/>
	<path d="M584.81 323.816C583.108 323.816 581.853 323.41 581.044 322.598C580.236 321.785 579.832 320.533 579.832 318.839V312.851H578.568C577.846 312.851 577.485 312.489 577.485 311.763C577.485 311.037 577.846 310.674 578.568 310.674H579.832V308.782C579.832 308.056 580.193 307.693 580.915 307.693C581.638 307.693 581.999 308.056 581.999 308.782V310.674H584.965C585.687 310.674 586.048 311.037 586.048 311.763C586.048 312.489 585.687 312.851 584.965 312.851H581.999V318.839C581.999 319.936 582.197 320.679 582.592 321.068C582.988 321.448 583.727 321.639 584.81 321.639C585.146 321.639 585.408 321.725 585.597 321.898C585.795 322.071 585.894 322.347 585.894 322.727C585.894 323.453 585.532 323.816 584.81 323.816Z" fill="#1E2120"/>
	<path d="M591.18 323.816C590.458 323.816 590.097 323.453 590.097 322.727V311.763C590.097 311.037 590.458 310.674 591.18 310.674C591.902 310.674 592.263 311.037 592.263 311.763V312.774C592.77 312.082 593.415 311.56 594.198 311.205C594.989 310.851 595.892 310.674 596.906 310.674C597.628 310.674 597.989 311.037 597.989 311.763C597.989 312.489 597.628 312.851 596.906 312.851C595.419 312.851 594.284 313.128 593.501 313.681C592.719 314.234 592.306 314.964 592.263 315.871V322.727C592.263 323.453 591.902 323.816 591.18 323.816Z" fill="#1E2120"/>
	<path d="M604.561 329C603.314 329 602.381 328.685 601.762 328.054C601.151 327.432 600.846 326.494 600.846 325.242C600.846 324.516 601.207 324.153 601.93 324.153C602.652 324.153 603.013 324.516 603.013 325.242C603.013 325.89 603.107 326.313 603.297 326.512C603.494 326.719 603.916 326.823 604.561 326.823H609.565C610.201 326.823 610.618 326.719 610.816 326.512C611.013 326.313 611.112 325.89 611.112 325.242V321.95C610.596 322.727 609.994 323.233 609.307 323.466C608.627 323.699 607.888 323.816 607.088 323.816H605.824C604.122 323.816 602.867 323.41 602.059 322.598C601.25 321.785 600.846 320.533 600.846 318.839V311.763C600.846 311.037 601.207 310.674 601.93 310.674C602.652 310.674 603.013 311.037 603.013 311.763V318.839C603.013 319.928 603.206 320.667 603.593 321.055C603.989 321.444 604.732 321.639 605.824 321.639H607.088C608.498 321.639 609.522 321.41 610.158 320.952C610.794 320.485 611.112 319.781 611.112 318.839V311.763C611.112 311.037 611.473 310.674 612.195 310.674C612.918 310.674 613.279 311.037 613.279 311.763V325.242C613.279 326.494 612.969 327.432 612.35 328.054C611.731 328.685 610.803 329 609.565 329H604.561Z" fill="#1E2120"/>
	<path d="M84.7214 265.628C84.2405 265.628 84 265.391 84 264.916V249.028C84 248.553 84.2405 248.316 84.7214 248.316H91.0912C92.6428 248.316 93.8133 248.71 94.6027 249.498C95.4012 250.286 95.8005 251.445 95.8005 252.976V253.782C95.8005 255.304 95.4012 256.459 94.6027 257.247C93.8133 258.035 92.6428 258.429 91.0912 258.429H85.4291V264.916C85.4291 265.391 85.1932 265.628 84.7214 265.628ZM85.4291 257.019H91.0912C92.2345 257.019 93.0647 256.764 93.5819 256.253C94.1082 255.734 94.3714 254.91 94.3714 253.782V252.976C94.3714 251.839 94.1082 251.016 93.5819 250.505C93.0647 249.986 92.2345 249.726 91.0912 249.726H85.4291V257.019Z" fill="#1E2120"/>
	<path d="M109.521 252.936C110.002 252.936 110.243 253.169 110.243 253.635V264.916C110.243 265.391 110.002 265.628 109.521 265.628C109.05 265.628 108.814 265.391 108.814 264.916V263.64C107.952 264.965 106.391 265.628 104.132 265.628H103.369C101.673 265.628 100.429 265.238 99.64 264.459C98.8596 263.68 98.4695 262.454 98.4695 260.78V253.635C98.4695 253.169 98.7054 252.936 99.1772 252.936C99.6581 252.936 99.8986 253.169 99.8986 253.635V260.78C99.8986 262.06 100.153 262.955 100.661 263.466C101.178 263.967 102.081 264.218 103.369 264.218H104.132C105.538 264.218 106.645 263.994 107.453 263.546C108.26 263.098 108.714 262.414 108.814 261.491V253.635C108.814 253.169 109.05 252.936 109.521 252.936Z" fill="#1E2120"/>
	<path d="M115.506 265.628C115.025 265.628 114.785 265.391 114.785 264.916V247.698C114.785 247.233 115.025 247 115.506 247C115.978 247 116.214 247.233 116.214 247.698V254.803C116.622 254.185 117.203 253.715 117.956 253.393C118.718 253.071 119.698 252.909 120.896 252.909H121.93C123.627 252.909 124.866 253.299 125.646 254.078C126.435 254.857 126.83 256.083 126.83 257.758V260.78C126.83 262.454 126.435 263.68 125.646 264.459C124.866 265.238 123.627 265.628 121.93 265.628H120.896C119.698 265.628 118.718 265.471 117.956 265.158C117.203 264.835 116.622 264.361 116.214 263.734V264.916C116.214 265.391 115.978 265.628 115.506 265.628ZM120.896 264.218H121.93C123.228 264.218 124.131 263.967 124.639 263.466C125.147 262.955 125.401 262.06 125.401 260.78V257.758C125.401 256.477 125.142 255.586 124.625 255.085C124.117 254.575 123.219 254.32 121.93 254.32H120.896C119.48 254.32 118.346 254.539 117.493 254.978C116.64 255.416 116.214 256.083 116.214 256.979V261.612C116.232 262.481 116.667 263.134 117.52 263.573C118.373 264.003 119.499 264.218 120.896 264.218Z" fill="#1E2120"/>
	<path d="M134.757 265.628C133.469 265.628 132.521 265.332 131.913 264.741C131.314 264.151 131.014 263.224 131.014 261.961V247.698C131.014 247.233 131.255 247 131.736 247C132.208 247 132.444 247.233 132.444 247.698V261.961C132.444 262.83 132.607 263.425 132.934 263.748C133.26 264.061 133.864 264.218 134.744 264.218C135.234 264.218 135.479 264.45 135.479 264.916C135.488 265.391 135.247 265.628 134.757 265.628Z" fill="#1E2120"/>
	<path d="M138.8 250.492C138.174 250.492 137.861 250.174 137.861 249.538V248.934C137.861 248.316 138.174 248.007 138.8 248.007H139.413C140.021 248.007 140.325 248.316 140.325 248.934V249.538C140.325 250.174 140.021 250.492 139.413 250.492H138.8ZM139.113 265.628C138.632 265.628 138.392 265.391 138.392 264.916V253.635C138.392 253.169 138.632 252.936 139.113 252.936C139.585 252.936 139.821 253.169 139.821 253.635V264.916C139.821 265.391 139.585 265.628 139.113 265.628Z" fill="#1E2120"/>
	<path d="M148.906 265.628C147.21 265.628 145.966 265.238 145.177 264.459C144.388 263.68 143.993 262.454 143.993 260.78V257.744C143.993 256.07 144.383 254.848 145.163 254.078C145.953 253.299 147.2 252.918 148.906 252.936H151.138C152.472 252.936 153.489 253.16 154.187 253.608C154.895 254.046 155.317 254.74 155.453 255.689C155.48 255.931 155.426 256.115 155.29 256.24C155.163 256.365 154.981 256.428 154.745 256.428C154.528 256.428 154.364 256.374 154.255 256.267C154.146 256.151 154.065 255.985 154.01 255.77C153.911 255.251 153.643 254.884 153.207 254.669C152.772 254.454 152.082 254.346 151.138 254.346H148.906C147.609 254.328 146.701 254.57 146.184 255.072C145.676 255.564 145.422 256.455 145.422 257.744V260.78C145.422 262.06 145.676 262.955 146.184 263.466C146.701 263.967 147.609 264.218 148.906 264.218H151.138C152.082 264.218 152.772 264.11 153.207 263.895C153.643 263.68 153.911 263.309 154.01 262.781C154.065 262.566 154.146 262.405 154.255 262.297C154.364 262.181 154.528 262.123 154.745 262.123C154.981 262.123 155.163 262.19 155.29 262.324C155.426 262.449 155.48 262.628 155.453 262.861C155.317 263.81 154.895 264.509 154.187 264.956C153.489 265.404 152.472 265.628 151.138 265.628H148.906Z" fill="#1E2120"/>
	<path d="M170.201 265.628C168.504 265.628 167.261 265.243 166.471 264.473C165.682 263.694 165.287 262.472 165.287 260.806V257.771C165.287 256.079 165.682 254.848 166.471 254.078C167.261 253.299 168.504 252.918 170.201 252.936H172.433C174.13 252.936 175.368 253.326 176.149 254.105C176.938 254.875 177.333 256.097 177.333 257.771V260.78C177.333 262.454 176.938 263.68 176.149 264.459C175.368 265.238 174.13 265.628 172.433 265.628H170.201ZM166.716 260.806C166.716 262.069 166.97 262.955 167.479 263.466C167.996 263.967 168.903 264.218 170.201 264.218H172.433C173.73 264.218 174.633 263.967 175.141 263.466C175.65 262.955 175.904 262.06 175.904 260.78V257.771C175.904 256.491 175.65 255.6 175.141 255.098C174.633 254.597 173.73 254.346 172.433 254.346H170.201C169.33 254.337 168.64 254.44 168.132 254.655C167.624 254.87 167.261 255.228 167.043 255.73C166.825 256.231 166.716 256.912 166.716 257.771V260.806Z" fill="#1E2120"/>
	<path d="M182.234 265.628C181.753 265.628 181.512 265.391 181.512 264.916V253.635C181.512 253.169 181.753 252.936 182.234 252.936C182.705 252.936 182.941 253.169 182.941 253.635V255.703C183.413 254.807 184.094 254.123 184.983 253.648C185.881 253.173 186.943 252.936 188.168 252.936C188.649 252.936 188.889 253.169 188.889 253.635C188.889 254.109 188.649 254.346 188.168 254.346C186.553 254.346 185.301 254.709 184.411 255.434C183.522 256.151 183.032 257.176 182.941 258.51V264.916C182.941 265.391 182.705 265.628 182.234 265.628Z" fill="#1E2120"/>
	<path d="M193.828 271C192.757 271 191.941 270.781 191.378 270.342C190.815 269.912 190.484 269.232 190.384 268.301C190.357 268.068 190.407 267.884 190.534 267.75C190.661 267.616 190.838 267.548 191.065 267.548C191.292 267.548 191.464 267.607 191.582 267.723C191.7 267.839 191.777 268.014 191.813 268.247C191.877 268.766 192.063 269.12 192.372 269.308C192.68 269.496 193.165 269.59 193.828 269.59H198.891C199.69 269.59 200.229 269.447 200.511 269.16C200.801 268.874 200.946 268.336 200.946 267.548V263.707C200.529 264.334 199.939 264.813 199.177 265.144C198.415 265.467 197.448 265.628 196.278 265.628H195.243C193.547 265.628 192.303 265.243 191.514 264.473C190.725 263.694 190.33 262.472 190.33 260.806V257.771C190.33 256.079 190.72 254.852 191.5 254.091C192.29 253.321 193.537 252.936 195.243 252.936H197.476C198.365 252.936 199.086 253.053 199.64 253.285C200.193 253.518 200.629 253.881 200.946 254.373V253.635C200.946 253.169 201.187 252.936 201.668 252.936C202.139 252.936 202.375 253.169 202.375 253.635V267.548C202.375 268.73 202.094 269.599 201.532 270.154C200.969 270.718 200.089 271 198.891 271H193.828ZM195.243 264.218H196.278C197.693 264.218 198.823 263.998 199.667 263.56C200.52 263.121 200.946 262.454 200.946 261.558V257.073C200.946 256.061 200.66 255.354 200.089 254.951C199.517 254.548 198.646 254.346 197.476 254.346H195.243C193.946 254.346 193.038 254.597 192.521 255.098C192.013 255.591 191.759 256.482 191.759 257.771V260.806C191.759 262.069 192.013 262.955 192.521 263.466C193.038 263.967 193.946 264.218 195.243 264.218Z" fill="#1E2120"/>
	<path d="M210.512 265.628C209.097 265.628 208.058 265.306 207.396 264.661C206.742 264.007 206.416 262.982 206.416 261.585C206.416 260.189 206.747 259.163 207.409 258.51C208.072 257.856 209.106 257.529 210.512 257.529H216.705C216.687 256.348 216.415 255.524 215.889 255.058C215.372 254.584 214.487 254.346 213.235 254.346H211.656C210.503 254.346 209.66 254.467 209.124 254.709C208.589 254.951 208.258 255.363 208.131 255.945C208.067 256.168 207.981 256.334 207.872 256.442C207.772 256.54 207.609 256.589 207.382 256.589C207.146 256.589 206.96 256.527 206.824 256.401C206.697 256.267 206.652 256.088 206.688 255.864C206.806 254.843 207.273 254.1 208.09 253.635C208.915 253.169 210.104 252.936 211.656 252.936H213.235C214.931 252.936 216.17 253.326 216.95 254.105C217.74 254.875 218.134 256.097 218.134 257.771V264.916C218.134 265.391 217.899 265.628 217.427 265.628C216.946 265.628 216.705 265.391 216.705 264.916V263.586C215.834 264.947 214.278 265.628 212.037 265.628H210.512ZM210.512 264.218H212.037C212.917 264.218 213.688 264.124 214.351 263.936C215.022 263.739 215.562 263.425 215.97 262.996C216.379 262.566 216.624 261.993 216.705 261.276V258.94H210.512C209.505 258.94 208.807 259.132 208.416 259.517C208.035 259.893 207.845 260.583 207.845 261.585C207.845 262.579 208.035 263.269 208.416 263.654C208.807 264.03 209.505 264.218 210.512 264.218Z" fill="#1E2120"/>
	<path d="M223.16 265.628C222.68 265.628 222.439 265.391 222.439 264.916V253.635C222.439 253.169 222.68 252.936 223.16 252.936C223.632 252.936 223.868 253.169 223.868 253.635V254.924C224.73 253.599 226.291 252.936 228.55 252.936H229.312C231.009 252.936 232.248 253.326 233.028 254.105C233.818 254.875 234.212 256.097 234.212 257.771V264.916C234.212 265.391 233.976 265.628 233.505 265.628C233.024 265.628 232.783 265.391 232.783 264.916V257.771C232.783 256.491 232.525 255.6 232.007 255.098C231.499 254.597 230.601 254.346 229.312 254.346H228.55C227.144 254.346 226.037 254.566 225.229 255.004C224.422 255.443 223.968 256.128 223.868 257.059V264.916C223.868 265.391 223.632 265.628 223.16 265.628Z" fill="#1E2120"/>
	<path d="M238.918 250.492C238.292 250.492 237.978 250.174 237.978 249.538V248.934C237.978 248.316 238.292 248.007 238.918 248.007H239.53C240.138 248.007 240.442 248.316 240.442 248.934V249.538C240.442 250.174 240.138 250.492 239.53 250.492H238.918ZM239.231 265.628C238.75 265.628 238.509 265.391 238.509 264.916V253.635C238.509 253.169 238.75 252.936 239.231 252.936C239.702 252.936 239.938 253.169 239.938 253.635V264.916C239.938 265.391 239.702 265.628 239.231 265.628Z" fill="#1E2120"/>
	<path d="M244.314 265.628C243.834 265.628 243.593 265.391 243.593 264.916C243.593 264.683 243.697 264.437 243.906 264.177L252.236 254.024L252.78 254.346H246.615C245.952 254.346 245.471 254.44 245.172 254.628C244.873 254.816 244.682 255.17 244.6 255.689C244.564 255.913 244.487 256.083 244.369 256.2C244.26 256.316 244.097 256.374 243.879 256.374C243.634 256.374 243.448 256.312 243.321 256.186C243.194 256.061 243.144 255.877 243.171 255.636C243.271 254.705 243.602 254.024 244.165 253.594C244.736 253.156 245.553 252.936 246.615 252.936H253.284C253.756 252.936 253.992 253.169 253.992 253.635C253.992 253.894 253.892 254.149 253.692 254.4L245.499 264.419L244.995 264.204L251.569 264.218C252.195 264.218 252.667 264.115 252.984 263.909C253.302 263.694 253.497 263.345 253.57 262.861C253.624 262.637 253.706 262.467 253.815 262.351C253.924 262.234 254.091 262.176 254.318 262.176C254.563 262.176 254.749 262.243 254.876 262.378C255.003 262.503 255.049 262.682 255.012 262.915C254.768 264.724 253.62 265.628 251.569 265.628H244.314Z" fill="#1E2120"/>
	<path d="M261.262 265.628C259.847 265.628 258.808 265.306 258.146 264.661C257.492 264.007 257.166 262.982 257.166 261.585C257.166 260.189 257.497 259.163 258.159 258.51C258.822 257.856 259.856 257.529 261.262 257.529H267.455C267.437 256.348 267.165 255.524 266.639 255.058C266.121 254.584 265.237 254.346 263.985 254.346H262.406C261.253 254.346 260.409 254.467 259.874 254.709C259.339 254.951 259.008 255.363 258.88 255.945C258.817 256.168 258.731 256.334 258.622 256.442C258.522 256.54 258.359 256.589 258.132 256.589C257.896 256.589 257.71 256.527 257.574 256.401C257.447 256.267 257.401 256.088 257.438 255.864C257.556 254.843 258.023 254.1 258.84 253.635C259.665 253.169 260.854 252.936 262.406 252.936H263.985C265.681 252.936 266.92 253.326 267.7 254.105C268.49 254.875 268.884 256.097 268.884 257.771V264.916C268.884 265.391 268.648 265.628 268.177 265.628C267.696 265.628 267.455 265.391 267.455 264.916V263.586C266.584 264.947 265.028 265.628 262.787 265.628H261.262ZM261.262 264.218H262.787C263.667 264.218 264.438 264.124 265.101 263.936C265.772 263.739 266.312 263.425 266.72 262.996C267.129 262.566 267.374 261.993 267.455 261.276V258.94H261.262C260.255 258.94 259.556 259.132 259.166 259.517C258.785 259.893 258.595 260.583 258.595 261.585C258.595 262.579 258.785 263.269 259.166 263.654C259.556 264.03 260.255 264.218 261.262 264.218Z" fill="#1E2120"/>
	<path d="M278.443 265.628C276.773 265.628 275.553 265.247 274.781 264.486C274.01 263.725 273.625 262.525 273.625 260.887V254.346H272.005C271.524 254.346 271.283 254.109 271.283 253.635C271.283 253.169 271.524 252.936 272.005 252.936H273.625V250.049C273.625 249.574 273.86 249.337 274.332 249.337C274.813 249.337 275.054 249.574 275.054 250.049V252.936H278.47C278.942 252.936 279.178 253.169 279.178 253.635C279.178 254.109 278.942 254.346 278.47 254.346H275.054V260.887C275.054 262.14 275.299 263.009 275.789 263.492C276.288 263.976 277.172 264.218 278.443 264.218C278.706 264.218 278.892 264.276 279.001 264.392C279.119 264.509 279.178 264.683 279.178 264.916C279.178 265.391 278.933 265.628 278.443 265.628Z" fill="#1E2120"/>
	<path d="M282.809 250.492C282.183 250.492 281.87 250.174 281.87 249.538V248.934C281.87 248.316 282.183 248.007 282.809 248.007H283.421C284.029 248.007 284.333 248.316 284.333 248.934V249.538C284.333 250.174 284.029 250.492 283.421 250.492H282.809ZM283.122 265.628C282.641 265.628 282.401 265.391 282.401 264.916V253.635C282.401 253.169 282.641 252.936 283.122 252.936C283.594 252.936 283.83 253.169 283.83 253.635V264.916C283.83 265.391 283.594 265.628 283.122 265.628Z" fill="#1E2120"/>
	<path d="M292.915 265.628C291.218 265.628 289.975 265.243 289.186 264.473C288.396 263.694 288.002 262.472 288.002 260.806V257.771C288.002 256.079 288.396 254.848 289.186 254.078C289.975 253.299 291.218 252.918 292.915 252.936H295.147C296.844 252.936 298.083 253.326 298.863 254.105C299.652 254.875 300.047 256.097 300.047 257.771V260.78C300.047 262.454 299.652 263.68 298.863 264.459C298.083 265.238 296.844 265.628 295.147 265.628H292.915ZM289.431 260.806C289.431 262.069 289.685 262.955 290.193 263.466C290.71 263.967 291.618 264.218 292.915 264.218H295.147C296.445 264.218 297.348 263.967 297.856 263.466C298.364 262.955 298.618 262.06 298.618 260.78V257.771C298.618 256.491 298.364 255.6 297.856 255.098C297.348 254.597 296.445 254.346 295.147 254.346H292.915C292.044 254.337 291.354 254.44 290.846 254.655C290.338 254.87 289.975 255.228 289.757 255.73C289.54 256.231 289.431 256.912 289.431 257.771V260.806Z" fill="#1E2120"/>
	<path d="M304.948 265.628C304.467 265.628 304.227 265.391 304.227 264.916V253.635C304.227 253.169 304.467 252.936 304.948 252.936C305.42 252.936 305.656 253.169 305.656 253.635V254.924C306.518 253.599 308.079 252.936 310.338 252.936H311.1C312.797 252.936 314.036 253.326 314.816 254.105C315.605 254.875 316 256.097 316 257.771V264.916C316 265.391 315.764 265.628 315.292 265.628C314.811 265.628 314.571 265.391 314.571 264.916V257.771C314.571 256.491 314.312 255.6 313.795 255.098C313.287 254.597 312.389 254.346 311.1 254.346H310.338C308.932 254.346 307.825 254.566 307.017 255.004C306.209 255.443 305.756 256.128 305.656 257.059V264.916C305.656 265.391 305.42 265.628 304.948 265.628Z" fill="#1E2120"/>
	<path d="M197.667 0H157.162V182.3H136.909V0H96.4034V222.811H197.667V0Z" fill="#464DF6"/>
	<path d="M0.405058 101.277L76.1506 101.277V131.66H30.7843V146.649H76.1506V222.81H0L1.32792e-06 192.426H45.7714V177.032L0.405058 177.032V101.277Z" fill="#464DF6"/>
	<path d="M217.92 101.279H258.426V222.811H217.92V101.279Z" fill="#464DF6"/>
	<path fill-rule="evenodd" clip-rule="evenodd" d="M440.701 222.811L379.943 222.811V324.087H339.437V101.277H379.943V101.279H440.701V222.811ZM400.196 182.3H379.943V141.789H400.196V182.3Z" fill="#464DF6"/>
	<path d="M319.184 0H278.679V222.81H319.184V81.0234H379.943V40.5126L319.184 40.5126V0Z" fill="#464DF6"/>
	<style>
		@media (max-width: 620px) {
				.hidden {
					display: none;
				}
			}
	</style>
<g clip-path="url(#clip0_202_555)" class="hidden">
	<path d="M25.7978 7.06299H22.0957V10.6126H25.7978V7.06299Z" fill="#1E2120"/>
	<path d="M25.7978 3.54956H22.0957V7.06305H25.7978V3.54956Z" fill="#1E2120"/>
	<path d="M22.0975 10.6125H18.4331V14.126H22.0975V10.6125Z" fill="#1E2120"/>
	<path d="M22.0975 7.06299H18.4331V10.6126H22.0975V7.06299Z" fill="#464DF6"/>
	<path d="M22.0975 3.54956H18.4331V7.06305H22.0975V3.54956Z" fill="#464DF6"/>
	<path d="M22.0975 0H18.4331V3.54957H22.0975V0Z" fill="#1E2120"/>
	<path d="M18.4331 14.1279H14.7311V17.6775H18.4331V14.1279Z" fill="#1E2120"/>
	<path d="M18.4331 10.6125H14.7311V14.126H18.4331V10.6125Z" fill="#464DF6"/>
	<path d="M18.4331 7.06299H14.7311V10.6126H18.4331V7.06299Z" fill="#FFD40C"/>
	<path d="M18.4331 3.54956H14.7311V7.06305H18.4331V3.54956Z" fill="#FFD40C"/>
	<path d="M18.4331 0H14.7311V3.54957H18.4331V0Z" fill="#1E2120"/>
	<path d="M14.7311 17.6758H11.0667V21.1893H14.7311V17.6758Z" fill="#1E2120"/>
	<path d="M14.7311 14.1279H11.0667V17.6775H14.7311V14.1279Z" fill="#464DF6"/>
	<path d="M14.7311 10.6125H11.0667V14.126H14.7311V10.6125Z" fill="#FFD40C"/>
	<path d="M14.7311 7.06299H11.0667V10.6126H14.7311V7.06299Z" fill="#FFD40C"/>
	<path d="M14.7311 3.54956H11.0667V7.06305H14.7311V3.54956Z" fill="#1E2120"/>
	<path d="M11.0667 14.1279H7.36462V17.6775H11.0667V14.1279Z" fill="#1E2120"/>
	<path d="M11.0667 10.6125H7.36462V14.126H11.0667V10.6125Z" fill="#FFD40C"/>
	<path d="M11.0667 7.06299H7.36462V10.6126H11.0667V7.06299Z" fill="#FFD40C"/>
	<path d="M11.0667 3.54956H7.36462V7.06305H11.0667V3.54956Z" fill="#FFD40C"/>
	<path d="M11.0667 0H7.36462V3.54957H11.0667V0Z" fill="#1E2120"/>
	<path d="M7.3665 10.6125H3.66443V14.126H7.3665V10.6125Z" fill="#1E2120"/>
	<path d="M7.3665 7.06299H3.66443V10.6126H7.3665V7.06299Z" fill="#FFD40C"/>
	<path d="M7.3665 3.54956H3.66443V7.06305H7.3665V3.54956Z" fill="white"/>
	<path d="M7.3665 0H3.66443V3.54957H7.3665V0Z" fill="#1E2120"/>
	<path d="M3.66441 7.06299H0V10.6126H3.66441V7.06299Z" fill="#1E2120"/>
	<path d="M3.66441 3.54956H0V7.06305H3.66441V3.54956Z" fill="#1E2120"/>
</g>
<g clip-path="url(#clip1_202_555)" class="hidden">
	<path d="M53.4384 7.06299H49.8685V10.6126H53.4384V7.06299Z" fill="#1E2120"/>
	<path d="M53.4384 3.54956H49.8685V7.06305H53.4384V3.54956Z" fill="#1E2120"/>
	<path d="M49.8703 10.6125H46.3368V14.126H49.8703V10.6125Z" fill="#1E2120"/>
	<path d="M49.8703 7.06299H46.3368V10.6126H49.8703V7.06299Z" fill="#464DF6"/>
	<path d="M49.8703 3.54956H46.3368V7.06305H49.8703V3.54956Z" fill="#464DF6"/>
	<path d="M49.8703 0H46.3368V3.54957H49.8703V0Z" fill="#1E2120"/>
	<path d="M46.3368 14.1279H42.767V17.6775H46.3368V14.1279Z" fill="#1E2120"/>
	<path d="M46.3368 10.6125H42.767V14.126H46.3368V10.6125Z" fill="#464DF6"/>
	<path d="M46.3368 7.06299H42.767V10.6126H46.3368V7.06299Z" fill="#FFD40C"/>
	<path d="M46.3368 3.54956H42.767V7.06305H46.3368V3.54956Z" fill="#FFD40C"/>
	<path d="M46.3368 0H42.767V3.54957H46.3368V0Z" fill="#1E2120"/>
	<path d="M42.7669 17.6758H39.2334V21.1893H42.7669V17.6758Z" fill="#1E2120"/>
	<path d="M42.7669 14.1279H39.2334V17.6775H42.7669V14.1279Z" fill="#464DF6"/>
	<path d="M42.7669 10.6125H39.2334V14.126H42.7669V10.6125Z" fill="#FFD40C"/>
	<path d="M42.7669 7.06299H39.2334V10.6126H42.7669V7.06299Z" fill="#FFD40C"/>
	<path d="M42.7669 3.54956H39.2334V7.06305H42.7669V3.54956Z" fill="#1E2120"/>
	<path d="M39.2334 14.1279H35.6636V17.6775H39.2334V14.1279Z" fill="#1E2120"/>
	<path d="M39.2334 10.6125H35.6636V14.126H39.2334V10.6125Z" fill="#FFD40C"/>
	<path d="M39.2334 7.06299H35.6636V10.6126H39.2334V7.06299Z" fill="#FFD40C"/>
	<path d="M39.2334 3.54956H35.6636V7.06305H39.2334V3.54956Z" fill="#FFD40C"/>
	<path d="M39.2334 0H35.6636V3.54957H39.2334V0Z" fill="#1E2120"/>
	<path d="M35.6654 10.6125H32.0956V14.126H35.6654V10.6125Z" fill="#1E2120"/>
	<path d="M35.6654 7.06299H32.0956V10.6126H35.6654V7.06299Z" fill="#FFD40C"/>
	<path d="M35.6654 3.54956H32.0956V7.06305H35.6654V3.54956Z" fill="white"/>
	<path d="M35.6654 0H32.0956V3.54957H35.6654V0Z" fill="#1E2120"/>
	<path d="M32.0955 7.06299H28.562V10.6126H32.0955V7.06299Z" fill="#1E2120"/>
	<path d="M32.0955 3.54956H28.562V7.06305H32.0955V3.54956Z" fill="#1E2120"/>
</g>
<g clip-path="url(#clip2_202_555)" class="hidden">
	<path d="M82 7.06299H78.298V10.6126H82V7.06299Z" fill="#1E2120"/>
	<path d="M82 3.54956H78.298V7.06305H82V3.54956Z" fill="#1E2120"/>
	<path d="M78.2998 10.6125H74.6354V14.126H78.2998V10.6125Z" fill="#1E2120"/>
	<path d="M78.2998 7.06299H74.6354V10.6126H78.2998V7.06299Z" fill="#464DF6"/>
	<path d="M78.2998 3.54956H74.6354V7.06305H78.2998V3.54956Z" fill="#464DF6"/>
	<path d="M78.2998 0H74.6354V3.54957H78.2998V0Z" fill="#1E2120"/>
	<path d="M74.6354 14.1279H70.9333V17.6775H74.6354V14.1279Z" fill="#1E2120"/>
	<path d="M74.6354 10.6125H70.9333V14.126H74.6354V10.6125Z" fill="#464DF6"/>
	<path d="M74.6354 7.06299H70.9333V10.6126H74.6354V7.06299Z" fill="#FFD40C"/>
	<path d="M74.6354 3.54956H70.9333V7.06305H74.6354V3.54956Z" fill="#FFD40C"/>
	<path d="M74.6354 0H70.9333V3.54957H74.6354V0Z" fill="#1E2120"/>
	<path d="M70.9333 17.6758H67.2689V21.1893H70.9333V17.6758Z" fill="#1E2120"/>
	<path d="M70.9333 14.1279H67.2689V17.6775H70.9333V14.1279Z" fill="#464DF6"/>
	<path d="M70.9333 10.6125H67.2689V14.126H70.9333V10.6125Z" fill="#FFD40C"/>
	<path d="M70.9333 7.06299H67.2689V10.6126H70.9333V7.06299Z" fill="#FFD40C"/>
	<path d="M70.9333 3.54956H67.2689V7.06305H70.9333V3.54956Z" fill="#1E2120"/>
	<path d="M67.269 14.1279H63.5669V17.6775H67.269V14.1279Z" fill="#1E2120"/>
	<path d="M67.269 10.6125H63.5669V14.126H67.269V10.6125Z" fill="#FFD40C"/>
	<path d="M67.269 7.06299H63.5669V10.6126H67.269V7.06299Z" fill="#FFD40C"/>
	<path d="M67.269 3.54956H63.5669V7.06305H67.269V3.54956Z" fill="#FFD40C"/>
	<path d="M67.269 0H63.5669V3.54957H67.269V0Z" fill="#1E2120"/>
	<path d="M63.5688 10.6125H59.8667V14.126H63.5688V10.6125Z" fill="#1E2120"/>
	<path d="M63.5688 7.06299H59.8667V10.6126H63.5688V7.06299Z" fill="#FFD40C"/>
	<path d="M63.5688 3.54956H59.8667V7.06305H63.5688V3.54956Z" fill="white"/>
	<path d="M63.5688 0H59.8667V3.54957H63.5688V0Z" fill="#1E2120"/>
	<path d="M59.8667 7.06299H56.2023V10.6126H59.8667V7.06299Z" fill="#1E2120"/>
	<path d="M59.8667 3.54956H56.2023V7.06305H59.8667V3.54956Z" fill="#1E2120"/>
</g>
	<defs>
	<clipPath id="clip0_300_2997">
	<rect width="25.7977" height="21.191" fill="white"/>
	</clipPath>
	<clipPath id="clip1_300_2997">
	<rect width="24.8764" height="21.191" fill="white" transform="translate(28.5615)"/>
	</clipPath>
	<clipPath id="clip2_300_2997">
	<rect width="25.7977" height="21.191" fill="white" transform="translate(56.2021)"/>
	</clipPath>
	</defs>
</svg>
