<svg width="690" height="328" viewBox="0 0 690 328" fill="none" xmlns="http://www.w3.org/2000/svg">
<path d="M403.136 264.852C402.456 264.852 402.116 264.463 402.116 263.685V248.931H414.413V263.685C414.413 264.463 414.073 264.852 413.392 264.852C412.712 264.852 412.372 264.463 412.372 263.685V250.973H404.157V263.685C404.157 264.463 403.817 264.852 403.136 264.852Z" fill="#1E2120"/>
<path d="M418.959 265.216C418.295 265.216 417.963 264.827 417.963 264.05V253.841C417.963 253.476 418.052 253.189 418.23 252.978C418.417 252.759 418.668 252.65 418.984 252.65C419.3 252.65 419.547 252.759 419.725 252.978C419.911 253.189 420.004 253.476 420.004 253.841V264.05C420.004 264.827 419.656 265.216 418.959 265.216ZM418.984 251.313C418.562 251.313 418.186 251.171 417.853 250.888C417.521 250.604 417.355 250.284 417.355 249.927C417.355 249.563 417.517 249.243 417.841 248.967C418.165 248.684 418.538 248.542 418.959 248.542C419.389 248.542 419.769 248.684 420.102 248.967C420.442 249.251 420.612 249.571 420.612 249.927C420.612 250.341 420.426 250.677 420.053 250.936C419.68 251.187 419.324 251.313 418.984 251.313Z" fill="#1E2120"/>
<path d="M422.891 266.918C422.21 266.918 421.87 266.504 421.87 265.678V264.536C421.87 263.247 422.47 262.615 423.669 262.64H424.301L423.207 263.126C424.981 260.404 425.856 257.09 425.832 253.185H433.487V262.64H434.143C435.229 262.64 435.772 263.272 435.772 264.536V265.678C435.772 266.504 435.431 266.918 434.751 266.918C434.07 266.918 433.73 266.504 433.73 265.678V264.682H423.912V265.678C423.912 266.504 423.571 266.918 422.891 266.918ZM425.844 262.64H431.373V255.226H428.043C427.946 257.876 427.213 260.347 425.844 262.64Z" fill="#1E2120"/>
<path d="M442.419 264.852C441.674 264.852 441.301 264.487 441.301 263.758V255.226H437.801C437.008 255.226 436.611 254.886 436.611 254.205C436.611 253.525 437.008 253.185 437.801 253.185H447.061C447.855 253.185 448.252 253.525 448.252 254.205C448.252 254.886 447.855 255.226 447.061 255.226H443.586V263.758C443.586 264.09 443.48 264.353 443.27 264.548C443.059 264.75 442.776 264.852 442.419 264.852Z" fill="#1E2120"/>
<path d="M451.215 269.105C450.55 269.105 450.218 268.692 450.218 267.866V254.181C450.218 253.403 450.567 253.014 451.263 253.014C451.628 253.014 451.879 253.128 452.017 253.355C452.162 253.582 452.235 253.97 452.235 254.521V255.251L451.871 254.764C452.381 254.205 453.025 253.804 453.803 253.561C454.589 253.31 455.492 253.185 456.513 253.185H457.218C458.773 253.185 460.008 253.326 460.924 253.61C461.839 253.893 462.495 254.363 462.892 255.02C463.289 255.668 463.488 256.547 463.488 257.657V260.209C463.488 261.319 463.289 262.202 462.892 262.859C462.495 263.507 461.843 263.973 460.936 264.256C460.037 264.54 458.822 264.682 457.29 264.682H452.26V267.866C452.26 268.692 451.911 269.105 451.215 269.105ZM452.26 262.64H457.29C458.489 262.64 459.385 262.583 459.976 262.47C460.567 262.348 460.96 262.109 461.155 261.753C461.349 261.388 461.446 260.849 461.446 260.136V257.73C461.446 257.009 461.345 256.47 461.143 256.113C460.948 255.757 460.547 255.522 459.94 255.409C459.34 255.287 458.433 255.226 457.218 255.226H456.513C455.046 255.226 453.969 255.526 453.28 256.126C452.6 256.717 452.26 257.641 452.26 258.897V262.64Z" fill="#1E2120"/>
<path d="M477.801 264.852C477.12 264.852 476.78 264.43 476.78 263.588V256.077L468.432 264.682H466.524V254.205C466.524 253.411 466.864 253.014 467.545 253.014C468.225 253.014 468.565 253.436 468.565 254.278V261.886L476.986 253.185H478.821V263.661C478.821 264.455 478.481 264.852 477.801 264.852Z" fill="#1E2120"/>
<path d="M483.208 264.852C482.528 264.852 482.188 264.463 482.188 263.685V254.205C482.188 253.411 482.512 253.014 483.16 253.014C483.557 253.014 483.905 253.221 484.205 253.634L488.701 259.93L493.221 253.634C493.513 253.221 493.853 253.014 494.242 253.014C494.906 253.014 495.238 253.411 495.238 254.205V263.685C495.238 264.463 494.898 264.852 494.218 264.852C493.537 264.852 493.197 264.438 493.197 263.612V256.539L489.491 261.813C489.329 262.04 489.082 262.154 488.749 262.154C488.596 262.154 488.442 262.129 488.288 262.081C488.142 262.032 488.024 261.943 487.935 261.813L484.229 256.539V263.612C484.229 264.438 483.889 264.852 483.208 264.852Z" fill="#1E2120"/>
<path d="M499.584 264.852C499.284 264.852 499.041 264.746 498.855 264.536C498.677 264.325 498.588 264.058 498.588 263.734V254.132C498.588 253.792 498.685 253.521 498.879 253.318C499.074 253.116 499.333 253.014 499.657 253.014C499.949 253.014 500.184 253.12 500.362 253.33C500.54 253.533 500.629 253.8 500.629 254.132V257.9H502.962C503.124 257.9 503.319 257.778 503.545 257.535C503.78 257.292 504.113 256.851 504.542 256.211C504.874 255.733 505.251 255.251 505.672 254.764C506.101 254.278 506.648 253.861 507.312 253.513C507.985 253.164 508.73 252.99 509.548 252.99C509.929 252.99 510.233 253.079 510.46 253.257C510.695 253.436 510.812 253.687 510.812 254.011C510.812 254.351 510.703 254.606 510.484 254.777C510.273 254.947 509.962 255.032 509.548 255.032C509.127 255.032 508.714 255.194 508.309 255.518C507.912 255.842 507.426 256.413 506.851 257.232C506.705 257.434 506.563 257.625 506.425 257.803C506.296 257.973 506.17 258.131 506.049 258.277C505.935 258.414 505.822 258.54 505.708 258.653C506.34 258.929 506.911 259.31 507.422 259.796C507.94 260.282 508.289 260.776 508.467 261.279C508.661 261.781 508.852 262.162 509.038 262.421C509.224 262.68 509.395 262.81 509.548 262.81C509.929 262.81 510.233 262.903 510.46 263.089C510.695 263.276 510.812 263.523 510.812 263.831C510.812 264.511 510.391 264.852 509.548 264.852C508.981 264.852 508.491 264.767 508.078 264.596C507.665 264.426 507.337 264.167 507.094 263.819C506.851 263.486 506.652 263.162 506.498 262.846C506.344 262.53 506.166 262.21 505.964 261.886C505.761 261.554 505.465 261.218 505.077 260.878C504.404 260.254 503.246 259.942 501.601 259.942H500.629V263.758C500.629 264.09 500.536 264.353 500.35 264.548C500.163 264.75 499.908 264.852 499.584 264.852Z" fill="#1E2120"/>
<path d="M524.675 264.852C523.994 264.852 523.654 264.43 523.654 263.588V256.077L515.306 264.682H513.398V254.205C513.398 253.411 513.738 253.014 514.419 253.014C515.099 253.014 515.44 253.436 515.44 254.278V261.886L523.861 253.185H525.696V263.661C525.696 264.455 525.355 264.852 524.675 264.852Z" fill="#1E2120"/>
<path d="M541.152 264.852C540.406 264.852 540.034 264.487 540.034 263.758V255.226H536.534C535.74 255.226 535.343 254.886 535.343 254.205C535.343 253.525 535.74 253.185 536.534 253.185H545.793C546.587 253.185 546.984 253.525 546.984 254.205C546.984 254.886 546.587 255.226 545.793 255.226H542.318V263.758C542.318 264.09 542.213 264.353 542.002 264.548C541.792 264.75 541.508 264.852 541.152 264.852Z" fill="#1E2120"/>
<path d="M559.085 264.852C558.883 264.852 558.717 264.791 558.587 264.669C558.457 264.556 558.36 264.309 558.295 263.928C558.239 263.547 558.21 262.964 558.21 262.178L558.478 262.81C557.967 263.515 557.327 264.005 556.558 264.28C555.796 264.548 554.897 264.682 553.86 264.682H551.6C550.717 264.682 549.996 264.39 549.437 263.806C548.886 263.215 548.61 262.324 548.61 261.133C548.61 260.387 548.732 259.759 548.975 259.249C549.218 258.73 549.595 258.313 550.105 257.997C550.615 257.673 551.268 257.438 552.061 257.292C552.855 257.146 553.803 257.074 554.905 257.074H559.012L558.089 257.9V256.101C558.089 255.745 558.028 255.51 557.906 255.396C557.793 255.283 557.538 255.226 557.141 255.226H553.714C552.896 255.226 552.268 255.247 551.831 255.287C551.401 255.328 551.101 255.409 550.931 255.53C550.761 255.644 550.668 255.81 550.652 256.028C550.619 256.45 550.543 256.762 550.421 256.964C550.299 257.167 550.036 257.268 549.631 257.268C548.951 257.268 548.61 256.831 548.61 255.955C548.61 254.991 549.011 254.29 549.813 253.853C550.615 253.407 551.859 253.185 553.544 253.185H557.311C558.348 253.185 559.077 253.432 559.498 253.926C559.92 254.42 560.13 255.275 560.13 256.49V263.685C560.13 264.463 559.782 264.852 559.085 264.852ZM551.673 262.737H553.86C555.391 262.737 556.477 262.429 557.117 261.813C557.765 261.189 558.089 260.209 558.089 258.872L558.235 259.018H554.905C553.836 259.018 552.989 259.071 552.365 259.176C551.75 259.273 551.308 259.468 551.041 259.759C550.781 260.051 550.652 260.485 550.652 261.06C550.652 261.578 550.741 261.988 550.919 262.287C551.106 262.587 551.357 262.737 551.673 262.737Z" fill="#1E2120"/>
<path d="M572.019 269.105C571.355 269.105 571.023 268.692 571.023 267.866V254.181C571.023 253.403 571.371 253.014 572.068 253.014C572.433 253.014 572.684 253.128 572.821 253.355C572.967 253.582 573.04 253.97 573.04 254.521V255.251L572.676 254.764C573.186 254.205 573.83 253.804 574.608 253.561C575.394 253.31 576.297 253.185 577.318 253.185H578.022C579.578 253.185 580.813 253.326 581.729 253.61C582.644 253.893 583.3 254.363 583.697 255.02C584.094 255.668 584.293 256.547 584.293 257.657V260.209C584.293 261.319 584.094 262.202 583.697 262.859C583.3 263.507 582.648 263.973 581.741 264.256C580.842 264.54 579.626 264.682 578.095 264.682H573.065V267.866C573.065 268.692 572.716 269.105 572.019 269.105ZM573.065 262.64H578.095C579.294 262.64 580.189 262.583 580.781 262.47C581.372 262.348 581.765 262.109 581.96 261.753C582.154 261.388 582.251 260.849 582.251 260.136V257.73C582.251 257.009 582.15 256.47 581.947 256.113C581.753 255.757 581.352 255.522 580.744 255.409C580.145 255.287 579.238 255.226 578.022 255.226H577.318C575.851 255.226 574.774 255.526 574.085 256.126C573.405 256.717 573.065 257.641 573.065 258.897V262.64Z" fill="#1E2120"/>
<path d="M593.259 264.682C591.703 264.682 590.464 264.544 589.54 264.268C588.625 263.985 587.965 263.519 587.56 262.871C587.163 262.214 586.964 261.327 586.964 260.209V257.657C586.964 256.539 587.163 255.656 587.56 255.008C587.965 254.351 588.625 253.885 589.54 253.61C590.464 253.326 591.703 253.185 593.259 253.185H593.964C595.519 253.185 596.754 253.326 597.67 253.61C598.585 253.893 599.241 254.363 599.638 255.02C600.035 255.668 600.234 256.547 600.234 257.657V260.209C600.234 261.319 600.035 262.202 599.638 262.859C599.241 263.507 598.585 263.973 597.67 264.256C596.754 264.54 595.519 264.682 593.964 264.682H593.259ZM593.259 262.64H593.964C595.179 262.64 596.086 262.583 596.686 262.47C597.293 262.348 597.694 262.109 597.889 261.753C598.091 261.388 598.192 260.849 598.192 260.136V257.73C598.192 257.009 598.091 256.47 597.889 256.113C597.694 255.757 597.293 255.522 596.686 255.409C596.086 255.287 595.179 255.226 593.964 255.226H593.259C592.035 255.226 591.12 255.287 590.512 255.409C589.905 255.522 589.5 255.757 589.297 256.113C589.103 256.47 589.006 257.009 589.006 257.73V260.136C589.006 260.849 589.103 261.388 589.297 261.753C589.5 262.109 589.905 262.348 590.512 262.47C591.12 262.583 592.035 262.64 593.259 262.64Z" fill="#1E2120"/>
<path d="M605.732 264.682C604.687 264.682 603.954 264.418 603.533 263.892C603.12 263.365 602.913 262.453 602.913 261.157C602.913 260.331 603.253 259.917 603.934 259.917C604.614 259.917 604.955 260.331 604.955 261.157V261.595C604.955 262.024 605.011 262.308 605.125 262.445C605.246 262.575 605.506 262.64 605.903 262.64H610.35C612.392 262.64 613.412 262.299 613.412 261.619C613.412 260.946 613.19 260.472 612.744 260.197C612.306 259.913 611.541 259.772 610.447 259.772H608.357C607.515 259.772 607.093 259.448 607.093 258.799C607.093 258.086 607.515 257.73 608.357 257.73H610.447C611.249 257.73 611.865 257.689 612.294 257.608C612.724 257.519 613.019 257.369 613.181 257.159C613.352 256.94 613.437 256.636 613.437 256.247C613.437 255.567 612.408 255.226 610.35 255.226H605.903C605.506 255.226 605.246 255.295 605.125 255.433C605.011 255.563 604.955 255.842 604.955 256.271V256.709C604.955 257.535 604.614 257.949 603.934 257.949C603.253 257.949 602.913 257.535 602.913 256.709C602.913 255.413 603.12 254.501 603.533 253.974C603.954 253.448 604.687 253.185 605.732 253.185H610.52C612.149 253.185 613.376 253.46 614.202 254.011C615.037 254.562 615.454 255.388 615.454 256.49C615.454 257.025 615.361 257.491 615.174 257.888C614.996 258.277 614.721 258.593 614.348 258.836C615.085 259.427 615.454 260.274 615.454 261.376C615.454 262.478 615.037 263.304 614.202 263.855C613.376 264.406 612.149 264.682 610.52 264.682H605.732Z" fill="#1E2120"/>
<path d="M618.539 264.682V253.185H626.729C628.09 253.185 629.155 253.48 629.925 254.072C630.694 254.655 631.079 255.469 631.079 256.515C631.079 257.041 630.986 257.499 630.8 257.888C630.613 258.277 630.338 258.593 629.973 258.836C630.711 259.435 631.079 260.266 631.079 261.327C631.079 262.024 630.905 262.624 630.557 263.126C630.208 263.628 629.71 264.013 629.062 264.28C628.414 264.548 627.636 264.682 626.729 264.682H618.539ZM620.58 262.64H626.559C628.211 262.64 629.038 262.251 629.038 261.473C629.038 260.849 628.855 260.412 628.491 260.16C628.134 259.901 627.523 259.772 626.656 259.772H620.58V262.64ZM620.58 257.73H626.656C627.644 257.73 628.292 257.645 628.6 257.475C628.908 257.296 629.062 256.936 629.062 256.393C629.062 255.615 628.228 255.226 626.559 255.226H620.58V257.73Z" fill="#1E2120"/>
<path d="M645.432 264.852C644.752 264.852 644.411 264.43 644.411 263.588V256.077L636.063 264.682H634.155V254.205C634.155 253.411 634.496 253.014 635.176 253.014C635.857 253.014 636.197 253.436 636.197 254.278V261.886L644.618 253.185H646.453V263.661C646.453 264.455 646.113 264.852 645.432 264.852Z" fill="#1E2120"/>
<path d="M654.267 264.852C653.521 264.852 653.149 264.487 653.149 263.758V255.226H649.649C648.855 255.226 648.458 254.886 648.458 254.205C648.458 253.525 648.855 253.185 649.649 253.185H658.909C659.703 253.185 660.099 253.525 660.099 254.205C660.099 254.886 659.703 255.226 658.909 255.226H655.433V263.758C655.433 264.09 655.328 264.353 655.117 264.548C654.907 264.75 654.623 264.852 654.267 264.852Z" fill="#1E2120"/>
<path d="M663.062 264.852C662.762 264.852 662.519 264.746 662.333 264.536C662.155 264.325 662.066 264.058 662.066 263.734V254.132C662.066 253.792 662.163 253.521 662.357 253.318C662.552 253.116 662.811 253.014 663.135 253.014C663.427 253.014 663.662 253.12 663.84 253.33C664.018 253.533 664.107 253.8 664.107 254.132V257.9H666.44C666.602 257.9 666.797 257.778 667.024 257.535C667.259 257.292 667.591 256.851 668.02 256.211C668.352 255.733 668.729 255.251 669.15 254.764C669.58 254.278 670.126 253.861 670.791 253.513C671.463 253.164 672.208 252.99 673.027 252.99C673.407 252.99 673.711 253.079 673.938 253.257C674.173 253.436 674.29 253.687 674.29 254.011C674.29 254.351 674.181 254.606 673.962 254.777C673.752 254.947 673.44 255.032 673.027 255.032C672.605 255.032 672.192 255.194 671.787 255.518C671.39 255.842 670.904 256.413 670.329 257.232C670.183 257.434 670.041 257.625 669.904 257.803C669.774 257.973 669.648 258.131 669.527 258.277C669.413 258.414 669.3 258.54 669.187 258.653C669.819 258.929 670.39 259.31 670.9 259.796C671.418 260.282 671.767 260.776 671.945 261.279C672.139 261.781 672.33 262.162 672.516 262.421C672.703 262.68 672.873 262.81 673.027 262.81C673.407 262.81 673.711 262.903 673.938 263.089C674.173 263.276 674.29 263.523 674.29 263.831C674.29 264.511 673.869 264.852 673.027 264.852C672.46 264.852 671.969 264.767 671.556 264.596C671.143 264.426 670.815 264.167 670.572 263.819C670.329 263.486 670.13 263.162 669.977 262.846C669.823 262.53 669.644 262.21 669.442 261.886C669.239 261.554 668.944 261.218 668.555 260.878C667.882 260.254 666.724 259.942 665.079 259.942H664.107V263.758C664.107 264.09 664.014 264.353 663.828 264.548C663.641 264.75 663.386 264.852 663.062 264.852Z" fill="#1E2120"/>
<path d="M679.55 269.664C678.91 269.664 678.379 269.555 677.958 269.336C677.545 269.126 677.237 268.797 677.034 268.352C676.832 267.906 676.73 267.347 676.73 266.675C676.73 266.237 676.815 265.901 676.986 265.666C677.164 265.431 677.419 265.313 677.751 265.313C678.091 265.313 678.347 265.415 678.517 265.617C678.687 265.82 678.772 266.116 678.772 266.504C678.772 266.958 678.833 267.258 678.954 267.404C679.084 267.55 679.339 267.623 679.72 267.623H687.229C687.553 267.623 687.756 267.578 687.837 267.489C687.918 267.4 687.959 267.169 687.959 266.796V263.612C686.946 264.325 685.528 264.682 683.705 264.682H683.001C681.453 264.682 680.218 264.54 679.294 264.256C678.379 263.973 677.723 263.507 677.326 262.859C676.929 262.202 676.73 261.319 676.73 260.209V254.181C676.73 253.403 677.071 253.014 677.751 253.014C678.432 253.014 678.772 253.403 678.772 254.181V260.136C678.772 260.849 678.869 261.388 679.063 261.753C679.266 262.109 679.667 262.348 680.267 262.47C680.874 262.583 681.785 262.64 683.001 262.64H683.705C685.131 262.64 686.197 262.332 686.901 261.716C687.606 261.092 687.959 260.152 687.959 258.897V254.181C687.959 253.403 688.299 253.014 688.979 253.014C689.66 253.014 690 253.403 690 254.181V266.407C690 267.59 689.806 268.429 689.417 268.923C689.028 269.417 688.355 269.664 687.4 269.664H679.55Z" fill="#1E2120"/>
<path d="M404.57 298.832C403.93 298.832 403.4 298.723 402.978 298.504C402.565 298.293 402.257 297.965 402.055 297.52C401.852 297.074 401.751 296.515 401.751 295.842C401.751 295.405 401.836 295.069 402.006 294.834C402.184 294.599 402.44 294.481 402.772 294.481C403.112 294.481 403.367 294.583 403.537 294.785C403.707 294.988 403.792 295.283 403.792 295.672C403.792 296.126 403.853 296.426 403.975 296.572C404.104 296.717 404.36 296.79 404.74 296.79H412.25C412.574 296.79 412.777 296.746 412.858 296.657C412.939 296.568 412.979 296.337 412.979 295.964V292.78C411.967 293.493 410.549 293.849 408.726 293.849H408.021C406.474 293.849 405.239 293.708 404.315 293.424C403.4 293.14 402.743 292.674 402.346 292.026C401.949 291.37 401.751 290.487 401.751 289.377V283.349C401.751 282.571 402.091 282.182 402.772 282.182C403.452 282.182 403.792 282.571 403.792 283.349V289.304C403.792 290.017 403.89 290.556 404.084 290.92C404.287 291.277 404.688 291.516 405.287 291.637C405.895 291.751 406.806 291.808 408.021 291.808H408.726C410.152 291.808 411.217 291.5 411.922 290.884C412.627 290.26 412.979 289.32 412.979 288.064V283.349C412.979 282.571 413.319 282.182 414 282.182C414.68 282.182 415.021 282.571 415.021 283.349V295.575C415.021 296.758 414.826 297.597 414.437 298.091C414.048 298.585 413.376 298.832 412.42 298.832H404.57Z" fill="#1E2120"/>
<path d="M419.364 294.019C419.064 294.019 418.821 293.914 418.635 293.703C418.457 293.493 418.367 293.225 418.367 292.901V283.3C418.367 282.96 418.465 282.689 418.659 282.486C418.854 282.283 419.113 282.182 419.437 282.182C419.728 282.182 419.963 282.288 420.142 282.498C420.32 282.701 420.409 282.968 420.409 283.3V287.068H422.742C422.904 287.068 423.099 286.946 423.325 286.703C423.56 286.46 423.892 286.019 424.322 285.378C424.654 284.9 425.031 284.418 425.452 283.932C425.881 283.446 426.428 283.029 427.092 282.68C427.765 282.332 428.51 282.158 429.328 282.158C429.709 282.158 430.013 282.247 430.24 282.425C430.475 282.603 430.592 282.855 430.592 283.179C430.592 283.519 430.483 283.774 430.264 283.944C430.053 284.115 429.741 284.2 429.328 284.2C428.907 284.2 428.494 284.362 428.089 284.686C427.692 285.01 427.206 285.581 426.631 286.399C426.485 286.602 426.343 286.792 426.205 286.971C426.076 287.141 425.95 287.299 425.829 287.445C425.715 287.582 425.602 287.708 425.488 287.821C426.12 288.097 426.691 288.478 427.202 288.964C427.72 289.45 428.069 289.944 428.247 290.446C428.441 290.949 428.632 291.33 428.818 291.589C429.004 291.848 429.174 291.978 429.328 291.978C429.709 291.978 430.013 292.071 430.24 292.257C430.475 292.444 430.592 292.691 430.592 292.999C430.592 293.679 430.171 294.019 429.328 294.019C428.761 294.019 428.271 293.934 427.858 293.764C427.445 293.594 427.117 293.335 426.874 292.986C426.631 292.654 426.432 292.33 426.278 292.014C426.124 291.698 425.946 291.378 425.744 291.054C425.541 290.722 425.245 290.386 424.856 290.045C424.184 289.421 423.026 289.11 421.381 289.11H420.409V292.926C420.409 293.258 420.316 293.521 420.129 293.716C419.943 293.918 419.688 294.019 419.364 294.019Z" fill="#1E2120"/>
<path d="M434.15 298.273C433.486 298.273 433.154 297.86 433.154 297.033V283.349C433.154 282.571 433.502 282.182 434.199 282.182C434.563 282.182 434.814 282.296 434.952 282.522C435.098 282.749 435.171 283.138 435.171 283.689V284.418L434.806 283.932C435.317 283.373 435.961 282.972 436.738 282.729C437.524 282.478 438.427 282.352 439.448 282.352H440.153C441.708 282.352 442.944 282.494 443.859 282.778C444.775 283.061 445.431 283.531 445.828 284.187C446.225 284.836 446.423 285.715 446.423 286.825V289.377C446.423 290.487 446.225 291.37 445.828 292.026C445.431 292.674 444.779 293.14 443.871 293.424C442.972 293.708 441.757 293.849 440.226 293.849H435.195V297.033C435.195 297.86 434.847 298.273 434.15 298.273ZM435.195 291.808H440.226C441.425 291.808 442.32 291.751 442.911 291.637C443.503 291.516 443.896 291.277 444.09 290.92C444.285 290.556 444.382 290.017 444.382 289.304V286.898C444.382 286.177 444.28 285.638 444.078 285.281C443.884 284.925 443.483 284.69 442.875 284.576C442.275 284.455 441.368 284.394 440.153 284.394H439.448C437.982 284.394 436.904 284.694 436.216 285.293C435.535 285.885 435.195 286.809 435.195 288.064V291.808Z" fill="#1E2120"/>
<path d="M459.569 294.019C459.367 294.019 459.201 293.959 459.071 293.837C458.942 293.724 458.844 293.477 458.78 293.096C458.723 292.715 458.695 292.132 458.695 291.346L458.962 291.978C458.452 292.683 457.812 293.173 457.042 293.448C456.28 293.716 455.381 293.849 454.344 293.849H452.084C451.201 293.849 450.48 293.558 449.921 292.974C449.37 292.383 449.095 291.492 449.095 290.301C449.095 289.555 449.216 288.927 449.459 288.417C449.702 287.898 450.079 287.481 450.589 287.165C451.1 286.841 451.752 286.606 452.546 286.46C453.34 286.314 454.288 286.241 455.389 286.241H459.497L458.573 287.068V285.269C458.573 284.913 458.512 284.678 458.391 284.564C458.277 284.451 458.022 284.394 457.625 284.394H454.198C453.38 284.394 452.752 284.414 452.315 284.455C451.886 284.495 451.586 284.576 451.416 284.698C451.246 284.811 451.152 284.977 451.136 285.196C451.104 285.618 451.027 285.929 450.905 286.132C450.784 286.335 450.521 286.436 450.115 286.436C449.435 286.436 449.095 285.998 449.095 285.123C449.095 284.159 449.496 283.458 450.298 283.021C451.1 282.575 452.343 282.352 454.028 282.352H457.795C458.832 282.352 459.561 282.599 459.983 283.094C460.404 283.588 460.615 284.443 460.615 285.658V292.853C460.615 293.631 460.266 294.019 459.569 294.019ZM452.157 291.905H454.344C455.875 291.905 456.961 291.597 457.601 290.981C458.249 290.357 458.573 289.377 458.573 288.04L458.719 288.186H455.389C454.32 288.186 453.473 288.239 452.85 288.344C452.234 288.441 451.792 288.636 451.525 288.927C451.266 289.219 451.136 289.652 451.136 290.228C451.136 290.746 451.225 291.155 451.404 291.455C451.59 291.755 451.841 291.905 452.157 291.905Z" fill="#1E2120"/>
<path d="M464.813 294.384C464.149 294.384 463.816 293.995 463.816 293.217V283.009C463.816 282.644 463.906 282.356 464.084 282.146C464.27 281.927 464.521 281.818 464.837 281.818C465.153 281.818 465.4 281.927 465.578 282.146C465.765 282.356 465.858 282.644 465.858 283.009V293.217C465.858 293.995 465.51 294.384 464.813 294.384ZM462.747 280.627C462.326 280.627 461.953 280.489 461.629 280.213C461.305 279.93 461.143 279.606 461.143 279.241C461.143 278.885 461.309 278.565 461.641 278.281C461.973 277.997 462.35 277.856 462.771 277.856C463.193 277.856 463.569 277.997 463.902 278.281C464.234 278.565 464.4 278.885 464.4 279.241C464.4 279.598 464.23 279.918 463.889 280.201C463.557 280.485 463.176 280.627 462.747 280.627ZM466.879 280.627C466.457 280.627 466.085 280.489 465.761 280.213C465.437 279.93 465.275 279.606 465.275 279.241C465.275 278.885 465.441 278.565 465.773 278.281C466.105 277.997 466.482 277.856 466.903 277.856C467.324 277.856 467.701 277.997 468.033 278.281C468.365 278.565 468.531 278.885 468.531 279.241C468.531 279.598 468.361 279.918 468.021 280.201C467.689 280.485 467.308 280.627 466.879 280.627Z" fill="#1E2120"/>
<path d="M470.178 294.019C469.498 294.019 469.158 293.631 469.158 292.853V283.373C469.158 282.579 469.482 282.182 470.13 282.182C470.843 282.182 471.199 282.579 471.199 283.373V286.752H479.414V283.373C479.414 282.579 479.754 282.182 480.434 282.182C481.115 282.182 481.455 282.579 481.455 283.373V292.853C481.455 293.631 481.115 294.019 480.434 294.019C479.754 294.019 479.414 293.631 479.414 292.853V288.794H471.199V292.853C471.199 293.631 470.859 294.019 470.178 294.019Z" fill="#1E2120"/>
<path d="M490.753 293.849C489.197 293.849 487.958 293.712 487.034 293.436C486.119 293.153 485.459 292.687 485.053 292.038C484.657 291.382 484.458 290.495 484.458 289.377V286.825C484.458 285.707 484.657 284.823 485.053 284.175C485.459 283.519 486.119 283.053 487.034 282.778C487.958 282.494 489.197 282.352 490.753 282.352H494.179C494.819 282.352 495.346 282.462 495.759 282.68C496.18 282.891 496.492 283.219 496.695 283.665C496.897 284.102 496.999 284.661 496.999 285.342C496.999 285.78 496.909 286.116 496.731 286.351C496.561 286.586 496.31 286.703 495.978 286.703C495.654 286.703 495.403 286.594 495.224 286.375C495.046 286.148 494.957 285.836 494.957 285.439C494.957 285.034 494.892 284.759 494.763 284.613C494.633 284.467 494.382 284.394 494.009 284.394H490.753C489.529 284.394 488.614 284.455 488.006 284.576C487.399 284.69 486.994 284.925 486.791 285.281C486.597 285.638 486.5 286.177 486.5 286.898V289.304C486.5 290.017 486.597 290.556 486.791 290.92C486.994 291.277 487.399 291.516 488.006 291.637C488.614 291.751 489.529 291.808 490.753 291.808H494.009C494.39 291.808 494.641 291.739 494.763 291.601C494.892 291.463 494.957 291.192 494.957 290.787C494.957 290.406 495.042 290.098 495.212 289.863C495.382 289.62 495.629 289.498 495.954 289.498C496.269 289.498 496.521 289.616 496.707 289.851C496.901 290.078 496.999 290.422 496.999 290.884C496.999 291.556 496.897 292.115 496.695 292.561C496.492 292.999 496.18 293.323 495.759 293.533C495.346 293.744 494.819 293.849 494.179 293.849H490.753Z" fill="#1E2120"/>
<path d="M499.988 293.849V283.373C499.988 282.579 500.329 282.182 501.009 282.182C501.69 282.182 502.03 282.579 502.03 283.373V286.898H507.255C508.187 286.898 508.973 287.035 509.613 287.311C510.261 287.578 510.755 287.971 511.095 288.49C511.435 289 511.605 289.628 511.605 290.373C511.605 291.111 511.435 291.739 511.095 292.257C510.763 292.768 510.273 293.157 509.625 293.424C508.977 293.691 508.187 293.833 507.255 293.849H499.988ZM502.03 291.808H507.036C507.709 291.808 508.296 291.727 508.798 291.564C509.309 291.394 509.564 291.038 509.564 290.495C509.564 290.049 509.467 289.717 509.272 289.498C509.086 289.272 508.807 289.122 508.434 289.049C508.061 288.976 507.595 288.939 507.036 288.939H502.03V291.808Z" fill="#1E2120"/>
<path d="M514.987 294.019C514.688 294.019 514.444 293.914 514.258 293.703C514.08 293.493 513.991 293.225 513.991 292.901V283.3C513.991 282.96 514.088 282.689 514.282 282.486C514.477 282.283 514.736 282.182 515.06 282.182C515.352 282.182 515.587 282.288 515.765 282.498C515.943 282.701 516.032 282.968 516.032 283.3V287.068H518.365C518.527 287.068 518.722 286.946 518.949 286.703C519.184 286.46 519.516 286.019 519.945 285.378C520.277 284.9 520.654 284.418 521.075 283.932C521.505 283.446 522.051 283.029 522.716 282.68C523.388 282.332 524.133 282.158 524.952 282.158C525.332 282.158 525.636 282.247 525.863 282.425C526.098 282.603 526.215 282.855 526.215 283.179C526.215 283.519 526.106 283.774 525.887 283.944C525.677 284.115 525.365 284.2 524.952 284.2C524.53 284.2 524.117 284.362 523.712 284.686C523.315 285.01 522.829 285.581 522.254 286.399C522.108 286.602 521.966 286.792 521.829 286.971C521.699 287.141 521.573 287.299 521.452 287.445C521.339 287.582 521.225 287.708 521.112 287.821C521.744 288.097 522.315 288.478 522.825 288.964C523.344 289.45 523.692 289.944 523.87 290.446C524.065 290.949 524.255 291.33 524.441 291.589C524.628 291.848 524.798 291.978 524.952 291.978C525.332 291.978 525.636 292.071 525.863 292.257C526.098 292.444 526.215 292.691 526.215 292.999C526.215 293.679 525.794 294.019 524.952 294.019C524.385 294.019 523.894 293.934 523.481 293.764C523.068 293.594 522.74 293.335 522.497 292.986C522.254 292.654 522.055 292.33 521.902 292.014C521.748 291.698 521.569 291.378 521.367 291.054C521.164 290.722 520.869 290.386 520.48 290.045C519.807 289.421 518.649 289.11 517.004 289.11H516.032V292.926C516.032 293.258 515.939 293.521 515.753 293.716C515.566 293.918 515.311 294.019 514.987 294.019Z" fill="#1E2120"/>
<path d="M540.078 294.019C539.398 294.019 539.057 293.598 539.057 292.756V285.245L530.709 293.849H528.801V283.373C528.801 282.579 529.141 282.182 529.822 282.182C530.502 282.182 530.843 282.604 530.843 283.446V291.054L539.264 282.352H541.099V292.828C541.099 293.622 540.759 294.019 540.078 294.019Z" fill="#1E2120"/>
<path d="M544.805 294.117C544.489 294.117 544.222 294.024 544.003 293.837C543.793 293.659 543.687 293.428 543.687 293.144C543.687 292.999 543.716 292.865 543.772 292.743C543.829 292.614 543.91 292.496 544.015 292.391L548.074 288.113L544.015 283.811C543.797 283.568 543.687 283.308 543.687 283.033C543.687 282.749 543.789 282.522 543.991 282.352C544.202 282.174 544.465 282.085 544.781 282.085C545.121 282.085 545.393 282.198 545.595 282.425L549.593 286.8L553.579 282.425C553.797 282.198 554.065 282.085 554.381 282.085C554.689 282.085 554.944 282.174 555.146 282.352C555.349 282.522 555.45 282.749 555.45 283.033C555.45 283.308 555.341 283.568 555.122 283.811L551.063 288.113L555.11 292.391C555.215 292.496 555.296 292.614 555.353 292.743C555.418 292.865 555.45 292.999 555.45 293.144C555.45 293.42 555.345 293.651 555.134 293.837C554.924 294.024 554.664 294.117 554.356 294.117C554.032 294.117 553.769 294.003 553.567 293.776L549.593 289.401L545.583 293.776C545.372 294.003 545.113 294.117 544.805 294.117Z" fill="#1E2120"/>
<path d="M566.704 294.019C566.024 294.019 565.684 293.631 565.684 292.853V282.352H577.981V292.853C577.981 293.631 577.641 294.019 576.96 294.019C576.28 294.019 575.94 293.631 575.94 292.853V284.394H567.725V292.853C567.725 293.631 567.385 294.019 566.704 294.019Z" fill="#1E2120"/>
<path d="M582.344 298.273C581.679 298.273 581.347 297.86 581.347 297.033V283.349C581.347 282.571 581.696 282.182 582.392 282.182C582.757 282.182 583.008 282.296 583.146 282.522C583.291 282.749 583.364 283.138 583.364 283.689V284.418L583 283.932C583.51 283.373 584.154 282.972 584.932 282.729C585.718 282.478 586.621 282.352 587.642 282.352H588.347C589.902 282.352 591.137 282.494 592.053 282.778C592.968 283.061 593.624 283.531 594.021 284.187C594.418 284.836 594.617 285.715 594.617 286.825V289.377C594.617 290.487 594.418 291.37 594.021 292.026C593.624 292.674 592.972 293.14 592.065 293.424C591.166 293.708 589.951 293.849 588.42 293.849H583.389V297.033C583.389 297.86 583.04 298.273 582.344 298.273ZM583.389 291.808H588.42C589.618 291.808 590.514 291.751 591.105 291.637C591.696 291.516 592.089 291.277 592.284 290.92C592.478 290.556 592.575 290.017 592.575 289.304V286.898C592.575 286.177 592.474 285.638 592.272 285.281C592.077 284.925 591.676 284.69 591.069 284.576C590.469 284.455 589.562 284.394 588.347 284.394H587.642C586.175 284.394 585.098 284.694 584.409 285.293C583.729 285.885 583.389 286.809 583.389 288.064V291.808Z" fill="#1E2120"/>
<path d="M603.583 293.849C602.027 293.849 600.788 293.712 599.865 293.436C598.949 293.153 598.289 292.687 597.884 292.038C597.487 291.382 597.288 290.495 597.288 289.377V286.825C597.288 285.707 597.487 284.823 597.884 284.175C598.289 283.519 598.949 283.053 599.865 282.778C600.788 282.494 602.027 282.352 603.583 282.352H604.288C605.843 282.352 607.079 282.494 607.994 282.778C608.909 283.061 609.566 283.531 609.963 284.187C610.36 284.836 610.558 285.715 610.558 286.825V289.377C610.558 290.487 610.36 291.37 609.963 292.026C609.566 292.674 608.909 293.14 607.994 293.424C607.079 293.708 605.843 293.849 604.288 293.849H603.583ZM603.583 291.808H604.288C605.503 291.808 606.41 291.751 607.01 291.637C607.617 291.516 608.018 291.277 608.213 290.92C608.415 290.556 608.517 290.017 608.517 289.304V286.898C608.517 286.177 608.415 285.638 608.213 285.281C608.018 284.925 607.617 284.69 607.01 284.576C606.41 284.455 605.503 284.394 604.288 284.394H603.583C602.36 284.394 601.444 284.455 600.837 284.576C600.229 284.69 599.824 284.925 599.621 285.281C599.427 285.638 599.33 286.177 599.33 286.898V289.304C599.33 290.017 599.427 290.556 599.621 290.92C599.824 291.277 600.229 291.516 600.837 291.637C601.444 291.751 602.36 291.808 603.583 291.808Z" fill="#1E2120"/>
<path d="M613.165 296.086C612.484 296.086 612.144 295.672 612.144 294.846V293.703C612.144 292.415 612.743 291.783 613.942 291.808H614.574L613.48 292.294C615.255 289.571 616.13 286.258 616.105 282.352H623.761V291.808H624.417C625.503 291.808 626.045 292.44 626.045 293.703V294.846C626.045 295.672 625.705 296.086 625.025 296.086C624.344 296.086 624.004 295.672 624.004 294.846V293.849H614.185V294.846C614.185 295.672 613.845 296.086 613.165 296.086ZM616.117 291.808H621.646V284.394H618.317C618.22 287.043 617.486 289.515 616.117 291.808Z" fill="#1E2120"/>
<path d="M630.943 298.832C630.303 298.832 629.772 298.723 629.351 298.504C628.938 298.293 628.63 297.965 628.427 297.52C628.225 297.074 628.124 296.515 628.124 295.842C628.124 295.405 628.209 295.069 628.379 294.834C628.557 294.599 628.812 294.481 629.144 294.481C629.485 294.481 629.74 294.583 629.91 294.785C630.08 294.988 630.165 295.283 630.165 295.672C630.165 296.126 630.226 296.426 630.347 296.572C630.477 296.717 630.732 296.79 631.113 296.79H638.623C638.947 296.79 639.149 296.746 639.23 296.657C639.311 296.568 639.352 296.337 639.352 295.964V292.78C638.339 293.493 636.921 293.849 635.099 293.849H634.394C632.847 293.849 631.611 293.708 630.688 293.424C629.772 293.14 629.116 292.674 628.719 292.026C628.322 291.37 628.124 290.487 628.124 289.377V283.349C628.124 282.571 628.464 282.182 629.144 282.182C629.825 282.182 630.165 282.571 630.165 283.349V289.304C630.165 290.017 630.262 290.556 630.457 290.92C630.659 291.277 631.06 291.516 631.66 291.637C632.267 291.751 633.179 291.808 634.394 291.808H635.099C636.524 291.808 637.59 291.5 638.295 290.884C638.999 290.26 639.352 289.32 639.352 288.064V283.349C639.352 282.571 639.692 282.182 640.373 282.182C641.053 282.182 641.393 282.571 641.393 283.349V295.575C641.393 296.758 641.199 297.597 640.81 298.091C640.421 298.585 639.749 298.832 638.793 298.832H630.943Z" fill="#1E2120"/>
<path d="M645.737 294.019C645.437 294.019 645.194 293.914 645.007 293.703C644.829 293.493 644.74 293.225 644.74 292.901V283.3C644.74 282.96 644.837 282.689 645.032 282.486C645.226 282.283 645.485 282.182 645.809 282.182C646.101 282.182 646.336 282.288 646.514 282.498C646.692 282.701 646.782 282.968 646.782 283.3V287.068H649.115C649.277 287.068 649.471 286.946 649.698 286.703C649.933 286.46 650.265 286.019 650.694 285.378C651.027 284.9 651.403 284.418 651.825 283.932C652.254 283.446 652.801 283.029 653.465 282.68C654.137 282.332 654.883 282.158 655.701 282.158C656.082 282.158 656.385 282.247 656.612 282.425C656.847 282.603 656.965 282.855 656.965 283.179C656.965 283.519 656.855 283.774 656.637 283.944C656.426 284.115 656.114 284.2 655.701 284.2C655.28 284.2 654.867 284.362 654.461 284.686C654.064 285.01 653.578 285.581 653.003 286.399C652.857 286.602 652.716 286.792 652.578 286.971C652.448 287.141 652.323 287.299 652.201 287.445C652.088 287.582 651.974 287.708 651.861 287.821C652.493 288.097 653.064 288.478 653.574 288.964C654.093 289.45 654.441 289.944 654.619 290.446C654.814 290.949 655.004 291.33 655.191 291.589C655.377 291.848 655.547 291.978 655.701 291.978C656.082 291.978 656.385 292.071 656.612 292.257C656.847 292.444 656.965 292.691 656.965 292.999C656.965 293.679 656.543 294.019 655.701 294.019C655.134 294.019 654.644 293.934 654.231 293.764C653.817 293.594 653.489 293.335 653.246 292.986C653.003 292.654 652.805 292.33 652.651 292.014C652.497 291.698 652.319 291.378 652.116 291.054C651.914 290.722 651.618 290.386 651.229 290.045C650.557 289.421 649.398 289.11 647.754 289.11H646.782V292.926C646.782 293.258 646.688 293.521 646.502 293.716C646.316 293.918 646.061 294.019 645.737 294.019Z" fill="#1E2120"/>
<path d="M663.974 294.019C663.228 294.019 662.856 293.655 662.856 292.926V284.394H659.356C658.562 284.394 658.165 284.054 658.165 283.373C658.165 282.693 658.562 282.352 659.356 282.352H668.616C669.41 282.352 669.807 282.693 669.807 283.373C669.807 284.054 669.41 284.394 668.616 284.394H665.14V292.926C665.14 293.258 665.035 293.521 664.824 293.716C664.614 293.918 664.33 294.019 663.974 294.019Z" fill="#1E2120"/>
<path d="M672.721 294.384C672.056 294.384 671.724 293.995 671.724 293.217V283.009C671.724 282.644 671.813 282.356 671.992 282.146C672.178 281.927 672.429 281.818 672.745 281.818C673.061 281.818 673.308 281.927 673.486 282.146C673.673 282.356 673.766 282.644 673.766 283.009V293.217C673.766 293.995 673.417 294.384 672.721 294.384ZM672.745 280.481C672.324 280.481 671.947 280.339 671.615 280.055C671.283 279.772 671.117 279.452 671.117 279.095C671.117 278.731 671.279 278.411 671.603 278.135C671.927 277.852 672.299 277.71 672.721 277.71C673.15 277.71 673.531 277.852 673.863 278.135C674.203 278.419 674.373 278.739 674.373 279.095C674.373 279.508 674.187 279.845 673.814 280.104C673.442 280.355 673.085 280.481 672.745 280.481Z" fill="#1E2120"/>
<path d="M677.09 293.849V282.352H685.28C686.641 282.352 687.706 282.648 688.476 283.24C689.246 283.823 689.63 284.637 689.63 285.682C689.63 286.209 689.537 286.667 689.351 287.056C689.165 287.445 688.889 287.761 688.525 288.004C689.262 288.603 689.63 289.434 689.63 290.495C689.63 291.192 689.456 291.791 689.108 292.294C688.759 292.796 688.261 293.181 687.613 293.448C686.965 293.716 686.187 293.849 685.28 293.849H677.09ZM679.131 291.808H685.11C686.763 291.808 687.589 291.419 687.589 290.641C687.589 290.017 687.407 289.579 687.042 289.328C686.686 289.069 686.074 288.939 685.207 288.939H679.131V291.808ZM679.131 286.898H685.207C686.195 286.898 686.844 286.813 687.151 286.642C687.459 286.464 687.613 286.104 687.613 285.561C687.613 284.783 686.779 284.394 685.11 284.394H679.131V286.898Z" fill="#1E2120"/>
<path d="M402.82 323.552C402.156 323.552 401.824 323.163 401.824 322.385V312.176C401.824 311.812 401.913 311.524 402.091 311.314C402.278 311.095 402.529 310.985 402.845 310.985C403.161 310.985 403.408 311.095 403.586 311.314C403.772 311.524 403.865 311.812 403.865 312.176V322.385C403.865 323.163 403.517 323.552 402.82 323.552ZM402.845 309.649C402.423 309.649 402.047 309.507 401.715 309.223C401.382 308.94 401.216 308.62 401.216 308.263C401.216 307.898 401.378 307.578 401.702 307.303C402.026 307.019 402.399 306.878 402.82 306.878C403.25 306.878 403.63 307.019 403.963 307.303C404.303 307.587 404.473 307.907 404.473 308.263C404.473 308.676 404.287 309.013 403.914 309.272C403.541 309.523 403.185 309.649 402.845 309.649Z" fill="#1E2120"/>
<path d="M408.186 323.187C407.505 323.187 407.165 322.798 407.165 322.021V312.541C407.165 311.747 407.489 311.35 408.137 311.35C408.85 311.35 409.207 311.747 409.207 312.541V315.92H417.421V312.541C417.421 311.747 417.761 311.35 418.442 311.35C419.122 311.35 419.463 311.747 419.463 312.541V322.021C419.463 322.798 419.122 323.187 418.442 323.187C417.761 323.187 417.421 322.798 417.421 322.021V317.961H409.207V322.021C409.207 322.798 408.866 323.187 408.186 323.187Z" fill="#1E2120"/>
<path d="M422.393 325.253C421.712 325.253 421.372 324.84 421.372 324.014V322.871C421.372 321.583 421.971 320.951 423.17 320.975H423.802L422.708 321.461C424.483 318.739 425.358 315.425 425.333 311.52H432.989V320.975H433.645C434.731 320.975 435.273 321.607 435.273 322.871V324.014C435.273 324.84 434.933 325.253 434.253 325.253C433.572 325.253 433.232 324.84 433.232 324.014V323.017H423.413V324.014C423.413 324.84 423.073 325.253 422.393 325.253ZM425.345 320.975H430.874V313.562H427.545C427.448 316.211 426.714 318.682 425.345 320.975Z" fill="#1E2120"/>
<path d="M440.171 328C439.531 328 439 327.891 438.579 327.672C438.166 327.461 437.858 327.133 437.655 326.687C437.453 326.242 437.352 325.683 437.352 325.01C437.352 324.573 437.437 324.236 437.607 324.002C437.785 323.767 438.04 323.649 438.372 323.649C438.713 323.649 438.968 323.75 439.138 323.953C439.308 324.155 439.393 324.451 439.393 324.84C439.393 325.294 439.454 325.594 439.575 325.739C439.705 325.885 439.96 325.958 440.341 325.958H447.851C448.175 325.958 448.377 325.914 448.458 325.825C448.539 325.735 448.58 325.504 448.58 325.132V321.948C447.567 322.661 446.149 323.017 444.327 323.017H443.622C442.075 323.017 440.839 322.875 439.916 322.592C439 322.308 438.344 321.842 437.947 321.194C437.55 320.538 437.352 319.655 437.352 318.545V312.517C437.352 311.739 437.692 311.35 438.372 311.35C439.053 311.35 439.393 311.739 439.393 312.517V318.472C439.393 319.185 439.49 319.724 439.685 320.088C439.887 320.445 440.288 320.684 440.888 320.805C441.495 320.919 442.407 320.975 443.622 320.975H444.327C445.752 320.975 446.818 320.667 447.523 320.052C448.227 319.428 448.58 318.488 448.58 317.232V312.517C448.58 311.739 448.92 311.35 449.601 311.35C450.281 311.35 450.621 311.739 450.621 312.517V324.743C450.621 325.926 450.427 326.764 450.038 327.259C449.649 327.753 448.977 328 448.021 328H440.171Z" fill="#1E2120"/>
<path d="M459.922 323.017C458.367 323.017 457.128 322.879 456.204 322.604C455.289 322.32 454.628 321.854 454.223 321.206C453.826 320.55 453.628 319.663 453.628 318.545V315.993C453.628 314.874 453.826 313.991 454.223 313.343C454.628 312.687 455.289 312.221 456.204 311.945C457.128 311.662 458.367 311.52 459.922 311.52H463.349C463.989 311.52 464.516 311.63 464.929 311.848C465.35 312.059 465.662 312.387 465.865 312.833C466.067 313.27 466.168 313.829 466.168 314.51C466.168 314.947 466.079 315.284 465.901 315.519C465.731 315.754 465.48 315.871 465.148 315.871C464.824 315.871 464.572 315.762 464.394 315.543C464.216 315.316 464.127 315.004 464.127 314.607C464.127 314.202 464.062 313.926 463.932 313.781C463.803 313.635 463.552 313.562 463.179 313.562H459.922C458.699 313.562 457.784 313.623 457.176 313.744C456.569 313.858 456.164 314.093 455.961 314.449C455.767 314.806 455.669 315.344 455.669 316.065V318.472C455.669 319.185 455.767 319.724 455.961 320.088C456.164 320.445 456.569 320.684 457.176 320.805C457.784 320.919 458.699 320.975 459.922 320.975H463.179C463.56 320.975 463.811 320.906 463.932 320.769C464.062 320.631 464.127 320.36 464.127 319.954C464.127 319.574 464.212 319.266 464.382 319.031C464.552 318.788 464.799 318.666 465.123 318.666C465.439 318.666 465.69 318.784 465.877 319.019C466.071 319.246 466.168 319.59 466.168 320.052C466.168 320.724 466.067 321.283 465.865 321.729C465.662 322.166 465.35 322.49 464.929 322.701C464.516 322.912 463.989 323.017 463.349 323.017H459.922Z" fill="#1E2120"/>
<path d="M473.581 323.187C472.836 323.187 472.464 322.823 472.464 322.093V313.562H468.964C468.17 313.562 467.773 313.222 467.773 312.541C467.773 311.86 468.17 311.52 468.964 311.52H478.223C479.017 311.52 479.414 311.86 479.414 312.541C479.414 313.222 479.017 313.562 478.223 313.562H474.748V322.093C474.748 322.426 474.643 322.689 474.432 322.883C474.221 323.086 473.938 323.187 473.581 323.187Z" fill="#1E2120"/>
<path d="M482.377 327.441C481.713 327.441 481.381 327.028 481.381 326.201V312.517C481.381 311.739 481.729 311.35 482.426 311.35C482.79 311.35 483.041 311.463 483.179 311.69C483.325 311.917 483.398 312.306 483.398 312.857V313.586L483.033 313.1C483.544 312.541 484.188 312.14 484.965 311.897C485.751 311.646 486.654 311.52 487.675 311.52H488.38C489.935 311.52 491.171 311.662 492.086 311.945C493.002 312.229 493.658 312.699 494.055 313.355C494.452 314.003 494.65 314.883 494.65 315.993V318.545C494.65 319.655 494.452 320.538 494.055 321.194C493.658 321.842 493.006 322.308 492.098 322.592C491.199 322.875 489.984 323.017 488.453 323.017H483.422V326.201C483.422 327.028 483.074 327.441 482.377 327.441ZM483.422 320.975H488.453C489.652 320.975 490.547 320.919 491.138 320.805C491.73 320.684 492.123 320.445 492.317 320.088C492.512 319.724 492.609 319.185 492.609 318.472V316.065C492.609 315.344 492.507 314.806 492.305 314.449C492.111 314.093 491.71 313.858 491.102 313.744C490.502 313.623 489.595 313.562 488.38 313.562H487.675C486.209 313.562 485.131 313.862 484.443 314.461C483.762 315.053 483.422 315.976 483.422 317.232V320.975Z" fill="#1E2120"/>
<path d="M498.61 323.552C497.946 323.552 497.613 323.163 497.613 322.385V312.176C497.613 311.812 497.702 311.524 497.881 311.314C498.067 311.095 498.318 310.985 498.634 310.985C498.95 310.985 499.197 311.095 499.375 311.314C499.562 311.524 499.655 311.812 499.655 312.176V322.385C499.655 323.163 499.306 323.552 498.61 323.552ZM498.634 309.649C498.213 309.649 497.836 309.507 497.504 309.223C497.172 308.94 497.006 308.62 497.006 308.263C497.006 307.898 497.168 307.578 497.492 307.303C497.816 307.019 498.189 306.878 498.61 306.878C499.039 306.878 499.42 307.019 499.752 307.303C500.092 307.587 500.262 307.907 500.262 308.263C500.262 308.676 500.076 309.013 499.703 309.272C499.331 309.523 498.974 309.649 498.634 309.649Z" fill="#1E2120"/>
<path d="M503.902 323.552C503.238 323.552 502.906 323.163 502.906 322.385V312.176C502.906 311.812 502.995 311.524 503.173 311.314C503.36 311.095 503.611 310.985 503.927 310.985C504.243 310.985 504.49 311.095 504.668 311.314C504.854 311.524 504.947 311.812 504.947 312.176V322.385C504.947 323.163 504.599 323.552 503.902 323.552ZM501.837 309.794C501.415 309.794 501.043 309.657 500.719 309.381C500.395 309.098 500.233 308.773 500.233 308.409C500.233 308.052 500.399 307.732 500.731 307.449C501.063 307.165 501.44 307.023 501.861 307.023C502.282 307.023 502.659 307.165 502.991 307.449C503.323 307.732 503.489 308.052 503.489 308.409C503.489 308.765 503.319 309.085 502.979 309.369C502.647 309.653 502.266 309.794 501.837 309.794ZM505.968 309.794C505.547 309.794 505.174 309.657 504.85 309.381C504.526 309.098 504.364 308.773 504.364 308.409C504.364 308.052 504.53 307.732 504.862 307.449C505.195 307.165 505.571 307.023 505.993 307.023C506.414 307.023 506.79 307.165 507.123 307.449C507.455 307.732 507.621 308.052 507.621 308.409C507.621 308.765 507.451 309.085 507.11 309.369C506.778 309.653 506.398 309.794 505.968 309.794Z" fill="#1E2120"/>
<path d="M515.914 323.017V311.52H524.104C525.465 311.52 526.53 311.816 527.3 312.407C528.07 312.991 528.454 313.805 528.454 314.85C528.454 315.377 528.361 315.835 528.175 316.223C527.989 316.612 527.713 316.928 527.349 317.171C528.086 317.771 528.454 318.601 528.454 319.663C528.454 320.36 528.28 320.959 527.932 321.461C527.583 321.964 527.085 322.349 526.437 322.616C525.789 322.883 525.011 323.017 524.104 323.017H515.914ZM517.955 320.975H523.934C525.587 320.975 526.413 320.586 526.413 319.809C526.413 319.185 526.231 318.747 525.866 318.496C525.51 318.237 524.898 318.107 524.031 318.107H517.955V320.975ZM517.955 316.065H524.031C525.019 316.065 525.668 315.98 525.975 315.81C526.283 315.632 526.437 315.271 526.437 314.729C526.437 313.951 525.603 313.562 523.934 313.562H517.955V316.065Z" fill="#1E2120"/>
<path d="M532.454 323.552C531.79 323.552 531.458 323.163 531.458 322.385V312.176C531.458 311.812 531.547 311.524 531.725 311.314C531.911 311.095 532.163 310.985 532.478 310.985C532.794 310.985 533.041 311.095 533.22 311.314C533.406 311.524 533.499 311.812 533.499 312.176V322.385C533.499 323.163 533.151 323.552 532.454 323.552ZM532.478 309.649C532.057 309.649 531.68 309.507 531.348 309.223C531.016 308.94 530.85 308.62 530.85 308.263C530.85 307.898 531.012 307.578 531.336 307.303C531.66 307.019 532.033 306.878 532.454 306.878C532.884 306.878 533.264 307.019 533.596 307.303C533.937 307.587 534.107 307.907 534.107 308.263C534.107 308.676 533.92 309.013 533.548 309.272C533.175 309.523 532.819 309.649 532.478 309.649Z" fill="#1E2120"/>
<path d="M536.386 325.253C535.705 325.253 535.365 324.84 535.365 324.014V322.871C535.365 321.583 535.965 320.951 537.164 320.975H537.795L536.702 321.461C538.476 318.739 539.351 315.425 539.327 311.52H546.982V320.975H547.638C548.724 320.975 549.267 321.607 549.267 322.871V324.014C549.267 324.84 548.926 325.253 548.246 325.253C547.565 325.253 547.225 324.84 547.225 324.014V323.017H537.407V324.014C537.407 324.84 537.066 325.253 536.386 325.253ZM539.339 320.975H544.868V313.562H541.538C541.441 316.211 540.708 318.682 539.339 320.975Z" fill="#1E2120"/>
<path d="M557.421 323.017C555.865 323.017 554.626 322.879 553.702 322.604C552.787 322.32 552.127 321.854 551.722 321.206C551.325 320.55 551.126 319.663 551.126 318.545V315.993C551.126 314.874 551.325 313.991 551.722 313.343C552.127 312.687 552.787 312.221 553.702 311.945C554.626 311.662 555.865 311.52 557.421 311.52H558.126C559.681 311.52 560.916 311.662 561.832 311.945C562.747 312.229 563.403 312.699 563.8 313.355C564.197 314.003 564.396 314.883 564.396 315.993V317.305H553.168V318.472C553.168 319.185 553.265 319.724 553.459 320.088C553.662 320.445 554.067 320.684 554.674 320.805C555.282 320.919 556.197 320.975 557.421 320.975H561.163C561.544 320.975 561.795 320.906 561.917 320.769C562.046 320.631 562.111 320.36 562.111 319.954C562.111 319.549 562.2 319.233 562.379 319.007C562.565 318.78 562.82 318.666 563.144 318.666C563.476 318.674 563.727 318.8 563.898 319.043C564.068 319.278 564.153 319.614 564.153 320.052C564.153 320.724 564.052 321.283 563.849 321.729C563.646 322.166 563.335 322.49 562.913 322.701C562.5 322.912 561.974 323.017 561.334 323.017H557.421ZM553.18 315.263H562.342C562.253 314.55 561.965 314.097 561.479 313.902C561.188 313.789 560.754 313.704 560.179 313.647C559.612 313.59 558.928 313.562 558.126 313.562H557.421C556.546 313.562 555.821 313.594 555.246 313.659C554.679 313.716 554.261 313.805 553.994 313.926C553.508 314.129 553.237 314.575 553.18 315.263Z" fill="#1E2120"/>
<path d="M573.251 323.017C571.696 323.017 570.456 322.879 569.533 322.604C568.617 322.32 567.957 321.854 567.552 321.206C567.155 320.55 566.957 319.663 566.957 318.545V315.993C566.957 314.874 567.155 313.991 567.552 313.343C567.957 312.687 568.617 312.221 569.533 311.945C570.456 311.662 571.696 311.52 573.251 311.52H573.956C575.511 311.52 576.747 311.662 577.662 311.945C578.578 312.229 579.234 312.699 579.631 313.355C580.028 314.003 580.226 314.883 580.226 315.993V318.545C580.226 319.655 580.028 320.538 579.631 321.194C579.234 321.842 578.578 322.308 577.662 322.592C576.747 322.875 575.511 323.017 573.956 323.017H573.251ZM573.251 320.975H573.956C575.171 320.975 576.078 320.919 576.678 320.805C577.286 320.684 577.687 320.445 577.881 320.088C578.083 319.724 578.185 319.185 578.185 318.472V316.065C578.185 315.344 578.083 314.806 577.881 314.449C577.687 314.093 577.286 313.858 576.678 313.744C576.078 313.623 575.171 313.562 573.956 313.562H573.251C572.028 313.562 571.112 313.623 570.505 313.744C569.897 313.858 569.492 314.093 569.29 314.449C569.095 314.806 568.998 315.344 568.998 316.065V318.472C568.998 319.185 569.095 319.724 569.29 320.088C569.492 320.445 569.897 320.684 570.505 320.805C571.112 320.919 572.028 320.975 573.251 320.975Z" fill="#1E2120"/>
<path d="M584.194 323.552C583.529 323.552 583.197 323.163 583.197 322.385V312.176C583.197 311.812 583.286 311.524 583.465 311.314C583.651 311.095 583.902 310.985 584.218 310.985C584.534 310.985 584.781 311.095 584.959 311.314C585.146 311.524 585.239 311.812 585.239 312.176V322.385C585.239 323.163 584.89 323.552 584.194 323.552ZM584.218 309.649C583.797 309.649 583.42 309.507 583.088 309.223C582.756 308.94 582.59 308.62 582.59 308.263C582.59 307.898 582.752 307.578 583.076 307.303C583.4 307.019 583.773 306.878 584.194 306.878C584.623 306.878 585.004 307.019 585.336 307.303C585.676 307.587 585.846 307.907 585.846 308.263C585.846 308.676 585.66 309.013 585.287 309.272C584.915 309.523 584.558 309.649 584.218 309.649Z" fill="#1E2120"/>
<path d="M597.968 313.562H591.479C591.09 313.562 590.835 313.627 590.714 313.756C590.592 313.878 590.531 314.145 590.531 314.558V322.021C590.531 322.798 590.191 323.187 589.511 323.187C588.83 323.187 588.49 322.798 588.49 322.021V314.826C588.49 313.61 588.701 312.756 589.122 312.261C589.543 311.767 590.272 311.52 591.309 311.52H597.968C598.795 311.52 599.208 311.86 599.208 312.541C599.208 313.222 598.795 313.562 597.968 313.562Z" fill="#1E2120"/>
<path d="M607.119 323.017C605.564 323.017 604.324 322.879 603.401 322.604C602.485 322.32 601.825 321.854 601.42 321.206C601.023 320.55 600.825 319.663 600.825 318.545V315.993C600.825 314.874 601.023 313.991 601.42 313.343C601.825 312.687 602.485 312.221 603.401 311.945C604.324 311.662 605.564 311.52 607.119 311.52H607.824C609.379 311.52 610.615 311.662 611.53 311.945C612.446 312.229 613.102 312.699 613.499 313.355C613.896 314.003 614.094 314.883 614.094 315.993V318.545C614.094 319.655 613.896 320.538 613.499 321.194C613.102 321.842 612.446 322.308 611.53 322.592C610.615 322.875 609.379 323.017 607.824 323.017H607.119ZM607.119 320.975H607.824C609.039 320.975 609.947 320.919 610.546 320.805C611.154 320.684 611.555 320.445 611.749 320.088C611.952 319.724 612.053 319.185 612.053 318.472V316.065C612.053 315.344 611.952 314.806 611.749 314.449C611.555 314.093 611.154 313.858 610.546 313.744C609.947 313.623 609.039 313.562 607.824 313.562H607.119C605.896 313.562 604.981 313.623 604.373 313.744C603.765 313.858 603.36 314.093 603.158 314.449C602.963 314.806 602.866 315.344 602.866 316.065V318.472C602.866 319.185 602.963 319.724 603.158 320.088C603.36 320.445 603.765 320.684 604.373 320.805C604.981 320.919 605.896 320.975 607.119 320.975Z" fill="#1E2120"/>
<path d="M618.11 327.441C617.446 327.441 617.114 327.028 617.114 326.201V312.517C617.114 311.739 617.462 311.35 618.159 311.35C618.524 311.35 618.775 311.463 618.912 311.69C619.058 311.917 619.131 312.306 619.131 312.857V313.586L618.767 313.1C619.277 312.541 619.921 312.14 620.699 311.897C621.485 311.646 622.388 311.52 623.409 311.52H624.113C625.669 311.52 626.904 311.662 627.82 311.945C628.735 312.229 629.391 312.699 629.788 313.355C630.185 314.003 630.384 314.883 630.384 315.993V318.545C630.384 319.655 630.185 320.538 629.788 321.194C629.391 321.842 628.739 322.308 627.832 322.592C626.933 322.875 625.717 323.017 624.186 323.017H619.155V326.201C619.155 327.028 618.807 327.441 618.11 327.441ZM619.155 320.975H624.186C625.385 320.975 626.28 320.919 626.872 320.805C627.463 320.684 627.856 320.445 628.051 320.088C628.245 319.724 628.342 319.185 628.342 318.472V316.065C628.342 315.344 628.241 314.806 628.038 314.449C627.844 314.093 627.443 313.858 626.835 313.744C626.236 313.623 625.329 313.562 624.113 313.562H623.409C621.942 313.562 620.865 313.862 620.176 314.461C619.496 315.053 619.155 315.976 619.155 317.232V320.975Z" fill="#1E2120"/>
<path d="M26.9 266.376C26.442 266.376 26.213 266.078 26.213 265.482V252.933C26.213 251.697 26.3988 250.838 26.7704 250.354C27.1506 249.87 27.8332 249.628 28.8183 249.628H36.9195C37.5243 249.628 37.8268 249.852 37.8268 250.302C37.8268 250.76 37.5243 250.989 36.9195 250.989H28.9998C28.464 250.989 28.0925 251.101 27.8851 251.326C27.6777 251.551 27.574 251.948 27.574 252.518V265.482C27.574 266.078 27.3493 266.376 26.9 266.376Z" fill="#1E2120"/>
<path d="M40.9708 270.914C40.5301 270.914 40.3098 270.607 40.3098 269.993V254.878C40.3098 254.282 40.5388 253.983 40.9968 253.983C41.2301 253.983 41.3986 254.061 41.5023 254.217C41.6146 254.372 41.6708 254.623 41.6708 254.969V256.485L41.4375 256.174C41.93 255.491 42.5608 254.986 43.3299 254.657C44.0989 254.329 45.002 254.165 46.0389 254.165H46.7907C48.1128 254.165 49.1929 254.299 50.0311 254.567C50.8693 254.826 51.4872 255.288 51.8847 255.954C52.2822 256.619 52.4809 257.553 52.4809 258.754V261.593C52.4809 262.803 52.2822 263.741 51.8847 264.406C51.4872 265.071 50.8693 265.538 50.0311 265.806C49.1929 266.065 48.1171 266.195 46.8036 266.195H41.6708V269.993C41.6708 270.607 41.4375 270.914 40.9708 270.914ZM41.6708 264.834H46.8036C47.9356 264.834 48.8127 264.756 49.4349 264.6C50.0571 264.436 50.4934 264.121 50.744 263.654C50.9946 263.179 51.1199 262.487 51.1199 261.58V258.78C51.1199 257.821 50.986 257.112 50.7181 256.654C50.4502 256.187 50.0009 255.885 49.3701 255.746C48.7393 255.599 47.8795 255.526 46.7907 255.526H46.0389C44.6045 255.526 43.5157 255.919 42.7725 256.706C42.038 257.492 41.6708 258.637 41.6708 260.141V264.834Z" fill="#1E2120"/>
<path d="M61.3342 266.195C60.0035 266.195 58.919 266.065 58.0808 265.806C57.2426 265.538 56.6205 265.071 56.2143 264.406C55.8168 263.741 55.6181 262.803 55.6181 261.593V258.754C55.6181 257.553 55.8168 256.619 56.2143 255.954C56.6205 255.288 57.2426 254.826 58.0808 254.567C58.919 254.299 60.0035 254.165 61.3342 254.165H62.086C63.4081 254.165 64.4883 254.299 65.3265 254.567C66.1733 254.826 66.7955 255.288 67.193 255.954C67.5905 256.619 67.7892 257.553 67.7892 258.754V261.593C67.7892 262.803 67.5905 263.741 67.193 264.406C66.7955 265.071 66.1733 265.538 65.3265 265.806C64.4883 266.065 63.4081 266.195 62.086 266.195H61.3342ZM61.3342 264.834H62.086C63.218 264.834 64.0994 264.756 64.7302 264.6C65.361 264.436 65.8017 264.121 66.0523 263.654C66.3029 263.179 66.4282 262.487 66.4282 261.58V258.78C66.4282 257.821 66.2943 257.112 66.0264 256.654C65.7585 256.187 65.3092 255.885 64.6784 255.746C64.0476 255.599 63.1834 255.526 62.086 255.526H61.3342C60.2195 255.526 59.3424 255.599 58.703 255.746C58.0722 255.885 57.6271 256.187 57.3679 256.654C57.1087 257.121 56.9791 257.829 56.9791 258.78V261.58C56.9791 262.496 57.1044 263.187 57.355 263.654C57.6055 264.121 58.0462 264.436 58.6771 264.6C59.3165 264.756 60.2022 264.834 61.3342 264.834Z" fill="#1E2120"/>
<path d="M71.907 266.376C71.4577 266.376 71.233 266.078 71.233 265.482V254.904C71.233 254.29 71.4404 253.983 71.8552 253.983C72.1576 253.983 72.4212 254.148 72.6458 254.476L77.4806 261.684L82.3413 254.476C82.5573 254.148 82.8079 253.983 83.093 253.983C83.5337 253.983 83.7541 254.29 83.7541 254.904V265.482C83.7541 266.078 83.5251 266.376 83.0671 266.376C82.6178 266.376 82.3931 266.07 82.3931 265.456V256.589L77.9342 263.291C77.8478 263.429 77.7052 263.499 77.5065 263.499C77.4201 263.499 77.3337 263.481 77.2473 263.447C77.1609 263.412 77.0917 263.36 77.0399 263.291L72.594 256.589V265.456C72.594 266.07 72.365 266.376 71.907 266.376Z" fill="#1E2120"/>
<path d="M97.3745 266.376C97.1498 266.376 96.9943 266.294 96.9079 266.13C96.8215 265.966 96.7696 265.685 96.7523 265.287C96.7437 264.881 96.7351 264.32 96.7264 263.602L96.9338 264.095C96.4499 264.821 95.8277 265.352 95.0673 265.689C94.3069 266.026 93.4039 266.195 92.3583 266.195H89.9474C89.1265 266.195 88.4568 265.91 87.9383 265.339C87.4285 264.769 87.1736 263.887 87.1736 262.695C87.1736 261.744 87.3334 260.992 87.6532 260.439C87.9729 259.886 88.4049 259.471 88.9493 259.195C89.5024 258.918 90.1159 258.737 90.7899 258.65C91.4726 258.564 92.1725 258.521 92.8897 258.521H97.3097L96.7005 259.117V257.017C96.7005 256.464 96.5968 256.079 96.3894 255.863C96.1907 255.638 95.8191 255.526 95.2747 255.526H91.6195C90.885 255.526 90.2887 255.582 89.8307 255.695C89.3814 255.798 89.053 255.962 88.8456 256.187C88.6383 256.412 88.5346 256.701 88.5346 257.056C88.5259 257.332 88.4784 257.544 88.392 257.691C88.3142 257.838 88.1327 257.911 87.8476 257.911C87.3982 257.911 87.1736 257.587 87.1736 256.939C87.1736 256.014 87.5538 255.323 88.3142 254.865C89.0833 254.398 90.1245 254.165 91.438 254.165H95.4562C96.4499 254.165 97.1326 254.407 97.5041 254.891C97.8757 255.366 98.0615 256.222 98.0615 257.458V265.482C98.0615 266.078 97.8325 266.376 97.3745 266.376ZM89.9733 264.86H92.3583C93.9483 264.86 95.076 264.41 95.7413 263.512C96.4153 262.604 96.7351 261.265 96.7005 259.493L97.1023 259.856H92.8897C91.9305 259.856 91.1269 259.921 90.4788 260.05C89.8307 260.171 89.3425 260.426 89.0141 260.815C88.6944 261.204 88.5346 261.792 88.5346 262.578C88.5346 263.391 88.6771 263.974 88.9623 264.328C89.2561 264.683 89.5931 264.86 89.9733 264.86Z" fill="#1E2120"/>
<path d="M100.818 268.58C100.36 268.58 100.131 268.273 100.131 267.66V266.351C100.131 265.331 100.589 264.825 101.505 264.834H102.296L101.518 265.158C103.376 262.185 104.305 258.521 104.305 254.165H111.123V264.834H112.237C113.119 264.834 113.559 265.339 113.559 266.351V267.66C113.559 268.273 113.335 268.58 112.885 268.58C112.427 268.58 112.198 268.273 112.198 267.66V266.195H101.492V267.66C101.492 268.273 101.267 268.58 100.818 268.58ZM103.229 264.834H109.749V255.526H105.692C105.666 258.94 104.845 262.042 103.229 264.834Z" fill="#1E2120"/>
<path d="M121.46 266.195C120.129 266.195 119.045 266.065 118.206 265.806C117.368 265.538 116.746 265.071 116.34 264.406C115.942 263.741 115.744 262.803 115.744 261.593V258.754C115.744 257.553 115.942 256.619 116.34 255.954C116.746 255.288 117.368 254.826 118.206 254.567C119.045 254.299 120.129 254.165 121.46 254.165H125.193C125.875 254.165 126.398 254.294 126.761 254.554C127.124 254.804 127.375 255.133 127.513 255.539C127.651 255.945 127.72 256.373 127.72 256.822C127.72 257.237 127.664 257.535 127.552 257.717C127.448 257.898 127.275 257.989 127.033 257.989C126.765 257.989 126.584 257.885 126.489 257.678C126.403 257.471 126.359 257.254 126.359 257.03C126.351 256.58 126.264 256.217 126.1 255.941C125.945 255.664 125.556 255.526 124.934 255.526H121.46C120.345 255.526 119.468 255.599 118.829 255.746C118.198 255.885 117.753 256.187 117.493 256.654C117.234 257.121 117.105 257.829 117.105 258.78V261.58C117.105 262.496 117.23 263.187 117.48 263.654C117.731 264.121 118.172 264.436 118.803 264.6C119.442 264.756 120.328 264.834 121.46 264.834H124.934C125.564 264.834 125.953 264.704 126.1 264.445C126.247 264.186 126.333 263.814 126.359 263.33C126.377 262.984 126.446 262.738 126.567 262.591C126.688 262.444 126.848 262.371 127.046 262.371C127.271 262.371 127.439 262.457 127.552 262.63C127.664 262.803 127.72 263.097 127.72 263.512C127.72 264.021 127.643 264.479 127.487 264.886C127.34 265.292 127.077 265.612 126.696 265.845C126.316 266.078 125.789 266.195 125.115 266.195H121.46Z" fill="#1E2120"/>
<path d="M131.106 266.195V254.904C131.106 254.29 131.331 253.983 131.78 253.983C132.238 253.983 132.467 254.29 132.467 254.904V259.298H137.976C138.771 259.298 139.475 259.419 140.088 259.661C140.711 259.895 141.199 260.266 141.553 260.776C141.916 261.277 142.098 261.93 142.098 262.734C142.098 263.546 141.916 264.207 141.553 264.717C141.199 265.218 140.711 265.59 140.088 265.832C139.475 266.065 138.771 266.186 137.976 266.195H131.106ZM132.467 264.834H137.781C138.732 264.834 139.462 264.67 139.972 264.341C140.49 264.013 140.75 263.481 140.75 262.747C140.75 262.133 140.607 261.679 140.322 261.385C140.037 261.083 139.665 260.889 139.207 260.802C138.758 260.707 138.282 260.66 137.781 260.66H132.467V264.834Z" fill="#1E2120"/>
<path d="M145.526 266.376C145.31 266.376 145.141 266.303 145.02 266.156C144.908 266.018 144.852 265.815 144.852 265.547V254.826C144.852 254.549 144.908 254.342 145.02 254.204C145.141 254.057 145.314 253.983 145.539 253.983C145.755 253.983 145.919 254.057 146.031 254.204C146.152 254.342 146.213 254.549 146.213 254.826V259.48H148.987C149.298 259.48 149.605 259.303 149.907 258.948C150.21 258.585 150.538 258.114 150.892 257.535C151.186 257.06 151.527 256.537 151.916 255.967C152.305 255.396 152.823 254.917 153.472 254.528C154.085 254.148 154.746 253.957 155.455 253.957C155.783 253.957 156.038 254.018 156.219 254.139C156.401 254.251 156.492 254.415 156.492 254.632C156.492 254.917 156.384 255.103 156.168 255.189C155.952 255.275 155.744 255.319 155.545 255.319C154.949 255.345 154.431 255.548 153.99 255.928C153.558 256.299 153.156 256.77 152.785 257.341C152.465 257.859 152.206 258.279 152.007 258.598C151.808 258.909 151.622 259.169 151.45 259.376C151.285 259.584 151.1 259.795 150.892 260.011C151.774 260.366 152.448 260.811 152.914 261.347C153.389 261.874 153.744 262.436 153.977 263.032C154.245 263.697 154.478 264.186 154.677 264.497C154.884 264.808 155.174 264.981 155.545 265.015C155.805 265.024 156.025 265.076 156.206 265.171C156.397 265.257 156.492 265.426 156.492 265.676C156.492 266.143 156.163 266.376 155.507 266.376C154.902 266.376 154.4 266.208 154.003 265.871C153.614 265.534 153.294 265.11 153.044 264.6C152.897 264.324 152.737 264.004 152.564 263.641C152.391 263.27 152.158 262.898 151.864 262.526C151.579 262.146 151.19 261.813 150.698 261.528C149.989 261.07 148.974 260.841 147.652 260.841H146.213V265.56C146.213 265.819 146.152 266.018 146.031 266.156C145.911 266.303 145.742 266.376 145.526 266.376Z" fill="#1E2120"/>
<path d="M169.095 266.376C168.87 266.376 168.715 266.294 168.628 266.13C168.542 265.966 168.49 265.685 168.473 265.287C168.464 264.881 168.455 264.32 168.447 263.602L168.654 264.095C168.17 264.821 167.548 265.352 166.788 265.689C166.027 266.026 165.124 266.195 164.079 266.195H161.668C160.847 266.195 160.177 265.91 159.659 265.339C159.149 264.769 158.894 263.887 158.894 262.695C158.894 261.744 159.054 260.992 159.373 260.439C159.693 259.886 160.125 259.471 160.67 259.195C161.223 258.918 161.836 258.737 162.51 258.65C163.193 258.564 163.893 258.521 164.61 258.521H169.03L168.421 259.117V257.017C168.421 256.464 168.317 256.079 168.11 255.863C167.911 255.638 167.539 255.526 166.995 255.526H163.34C162.605 255.526 162.009 255.582 161.551 255.695C161.102 255.798 160.773 255.962 160.566 256.187C160.359 256.412 160.255 256.701 160.255 257.056C160.246 257.332 160.199 257.544 160.112 257.691C160.034 257.838 159.853 257.911 159.568 257.911C159.119 257.911 158.894 257.587 158.894 256.939C158.894 256.014 159.274 255.323 160.034 254.865C160.804 254.398 161.845 254.165 163.158 254.165H167.176C168.17 254.165 168.853 254.407 169.224 254.891C169.596 255.366 169.782 256.222 169.782 257.458V265.482C169.782 266.078 169.553 266.376 169.095 266.376ZM161.694 264.86H164.079C165.669 264.86 166.796 264.41 167.462 263.512C168.136 262.604 168.455 261.265 168.421 259.493L168.823 259.856H164.61C163.651 259.856 162.847 259.921 162.199 260.05C161.551 260.171 161.063 260.426 160.734 260.815C160.415 261.204 160.255 261.792 160.255 262.578C160.255 263.391 160.397 263.974 160.683 264.328C160.976 264.683 161.313 264.86 161.694 264.86Z" fill="#1E2120"/>
<path d="M185.733 266.428C184.549 266.428 183.508 266.178 182.609 265.676C181.71 265.175 181.006 264.466 180.496 263.55C179.995 262.626 179.744 261.524 179.744 260.245V255.565C179.744 254.294 179.995 253.197 180.496 252.272C181.006 251.347 181.71 250.639 182.609 250.146C183.508 249.645 184.549 249.394 185.733 249.394C186.908 249.394 187.945 249.645 188.844 250.146C189.742 250.647 190.446 251.36 190.956 252.285C191.466 253.201 191.721 254.294 191.721 255.565V260.245C191.721 261.506 191.47 262.6 190.969 263.524C190.477 264.449 189.781 265.167 188.882 265.676C187.984 266.178 186.934 266.428 185.733 266.428ZM185.733 265.067C187.184 265.067 188.316 264.639 189.129 263.784C189.95 262.928 190.36 261.744 190.36 260.232V255.591C190.36 254.07 189.958 252.886 189.155 252.039C188.36 251.183 187.219 250.755 185.733 250.755C184.272 250.755 183.136 251.179 182.324 252.026C181.511 252.873 181.105 254.061 181.105 255.591V260.232C181.105 261.744 181.511 262.928 182.324 263.784C183.136 264.639 184.272 265.067 185.733 265.067Z" fill="#1E2120"/>
<path d="M195.93 270.914C195.489 270.914 195.269 270.607 195.269 269.993V254.878C195.269 254.282 195.498 253.983 195.956 253.983C196.189 253.983 196.358 254.061 196.462 254.217C196.574 254.372 196.63 254.623 196.63 254.969V256.485L196.397 256.174C196.889 255.491 197.52 254.986 198.289 254.657C199.058 254.329 199.961 254.165 200.998 254.165H201.75C203.072 254.165 204.152 254.299 204.99 254.567C205.829 254.826 206.446 255.288 206.844 255.954C207.241 256.619 207.44 257.553 207.44 258.754V261.593C207.44 262.803 207.241 263.741 206.844 264.406C206.446 265.071 205.829 265.538 204.99 265.806C204.152 266.065 203.076 266.195 201.763 266.195H196.63V269.993C196.63 270.607 196.397 270.914 195.93 270.914ZM196.63 264.834H201.763C202.895 264.834 203.772 264.756 204.394 264.6C205.016 264.436 205.453 264.121 205.703 263.654C205.954 263.179 206.079 262.487 206.079 261.58V258.78C206.079 257.821 205.945 257.112 205.677 256.654C205.41 256.187 204.96 255.885 204.329 255.746C203.699 255.599 202.839 255.526 201.75 255.526H200.998C199.564 255.526 198.475 255.919 197.732 256.706C196.997 257.492 196.63 258.637 196.63 260.141V264.834Z" fill="#1E2120"/>
<path d="M219.988 255.526H213.649C213.105 255.526 212.729 255.638 212.522 255.863C212.323 256.088 212.224 256.485 212.224 257.056V265.482C212.224 266.078 211.999 266.376 211.55 266.376C211.092 266.376 210.863 266.078 210.863 265.482V257.458C210.863 256.222 211.048 255.366 211.42 254.891C211.8 254.407 212.483 254.165 213.468 254.165H219.988C220.593 254.165 220.895 254.39 220.895 254.839C220.895 255.297 220.593 255.526 219.988 255.526Z" fill="#1E2120"/>
<path d="M233.018 266.376C232.793 266.376 232.637 266.294 232.551 266.13C232.465 265.966 232.413 265.685 232.396 265.287C232.387 264.881 232.378 264.32 232.37 263.602L232.577 264.095C232.093 264.821 231.471 265.352 230.711 265.689C229.95 266.026 229.047 266.195 228.001 266.195H225.591C224.77 266.195 224.1 265.91 223.582 265.339C223.072 264.769 222.817 263.887 222.817 262.695C222.817 261.744 222.977 260.992 223.296 260.439C223.616 259.886 224.048 259.471 224.593 259.195C225.146 258.918 225.759 258.737 226.433 258.65C227.116 258.564 227.816 258.521 228.533 258.521H232.953L232.344 259.117V257.017C232.344 256.464 232.24 256.079 232.033 255.863C231.834 255.638 231.462 255.526 230.918 255.526H227.263C226.528 255.526 225.932 255.582 225.474 255.695C225.025 255.798 224.696 255.962 224.489 256.187C224.281 256.412 224.178 256.701 224.178 257.056C224.169 257.332 224.122 257.544 224.035 257.691C223.957 257.838 223.776 257.911 223.491 257.911C223.041 257.911 222.817 257.587 222.817 256.939C222.817 256.014 223.197 255.323 223.957 254.865C224.726 254.398 225.768 254.165 227.081 254.165H231.099C232.093 254.165 232.776 254.407 233.147 254.891C233.519 255.366 233.705 256.222 233.705 257.458V265.482C233.705 266.078 233.476 266.376 233.018 266.376ZM225.617 264.86H228.001C229.591 264.86 230.719 264.41 231.385 263.512C232.059 262.604 232.378 261.265 232.344 259.493L232.746 259.856H228.533C227.574 259.856 226.77 259.921 226.122 260.05C225.474 260.171 224.986 260.426 224.657 260.815C224.338 261.204 224.178 261.792 224.178 262.578C224.178 263.391 224.32 263.974 224.605 264.328C224.899 264.683 225.236 264.86 225.617 264.86Z" fill="#1E2120"/>
<path d="M238.081 266.376C237.632 266.376 237.407 266.078 237.407 265.482V254.904C237.407 254.29 237.615 253.983 238.029 253.983C238.522 253.983 238.768 254.29 238.768 254.904V259.143H247.764V254.904C247.764 254.29 247.988 253.983 248.438 253.983C248.896 253.983 249.125 254.29 249.125 254.904V265.482C249.125 266.078 248.896 266.376 248.438 266.376C247.988 266.376 247.764 266.078 247.764 265.482V260.504H238.768V265.482C238.768 266.078 238.539 266.376 238.081 266.376Z" fill="#1E2120"/>
<path d="M253.562 266.467C253.112 266.467 252.888 266.191 252.888 265.638V254.748C252.888 254.463 252.944 254.247 253.056 254.1C253.177 253.953 253.346 253.88 253.562 253.88C253.786 253.88 253.955 253.953 254.067 254.1C254.188 254.247 254.249 254.463 254.249 254.748V265.638C254.249 266.191 254.02 266.467 253.562 266.467ZM253.549 251.637C253.229 251.637 252.931 251.529 252.654 251.313C252.378 251.097 252.24 250.851 252.24 250.574C252.248 250.289 252.387 250.038 252.654 249.822C252.931 249.606 253.225 249.498 253.536 249.498C253.856 249.498 254.162 249.606 254.456 249.822C254.75 250.038 254.897 250.289 254.897 250.574C254.897 250.868 254.746 251.118 254.443 251.326C254.141 251.533 253.843 251.637 253.549 251.637Z" fill="#1E2120"/>
<path d="M260.205 266.195C259.22 266.195 258.542 265.949 258.17 265.456C257.799 264.963 257.613 264.091 257.613 262.837C257.613 262.232 257.837 261.93 258.287 261.93C258.745 261.93 258.974 262.232 258.974 262.837V263.304C258.974 263.874 259.073 264.272 259.272 264.497C259.479 264.721 259.851 264.834 260.387 264.834H265.131C267.196 264.834 268.228 264.294 268.228 263.213C268.228 262.34 267.986 261.697 267.503 261.282C267.019 260.867 266.263 260.66 265.234 260.66H263.005C262.383 260.66 262.072 260.452 262.072 260.037C262.072 259.545 262.383 259.298 263.005 259.298H265.234C265.943 259.298 266.518 259.238 266.958 259.117C267.399 258.996 267.723 258.78 267.93 258.469C268.146 258.149 268.254 257.704 268.254 257.133C268.254 256.062 267.213 255.526 265.131 255.526H260.387C259.851 255.526 259.479 255.638 259.272 255.863C259.073 256.079 258.974 256.472 258.974 257.043V257.509C258.974 258.123 258.745 258.43 258.287 258.43C257.837 258.43 257.613 258.123 257.613 257.509C257.613 256.256 257.799 255.388 258.17 254.904C258.542 254.411 259.22 254.165 260.205 254.165H265.312C266.574 254.165 267.602 254.433 268.397 254.969C269.192 255.504 269.589 256.334 269.589 257.458C269.589 258.192 269.451 258.745 269.175 259.117C268.898 259.489 268.514 259.787 268.021 260.011C269.067 260.66 269.589 261.584 269.589 262.786C269.589 263.978 269.192 264.847 268.397 265.391C267.602 265.927 266.574 266.195 265.312 266.195H260.205Z" fill="#1E2120"/>
<path d="M282.916 266.376C282.691 266.376 282.535 266.294 282.449 266.13C282.363 265.966 282.311 265.685 282.293 265.287C282.285 264.881 282.276 264.32 282.267 263.602L282.475 264.095C281.991 264.821 281.369 265.352 280.608 265.689C279.848 266.026 278.945 266.195 277.899 266.195H275.488C274.668 266.195 273.998 265.91 273.479 265.339C272.97 264.769 272.715 263.887 272.715 262.695C272.715 261.744 272.875 260.992 273.194 260.439C273.514 259.886 273.946 259.471 274.49 259.195C275.043 258.918 275.657 258.737 276.331 258.65C277.014 258.564 277.714 258.521 278.431 258.521H282.851L282.242 259.117V257.017C282.242 256.464 282.138 256.079 281.93 255.863C281.732 255.638 281.36 255.526 280.816 255.526H277.161C276.426 255.526 275.83 255.582 275.372 255.695C274.922 255.798 274.594 255.962 274.387 256.187C274.179 256.412 274.076 256.701 274.076 257.056C274.067 257.332 274.019 257.544 273.933 257.691C273.855 257.838 273.674 257.911 273.389 257.911C272.939 257.911 272.715 257.587 272.715 256.939C272.715 256.014 273.095 255.323 273.855 254.865C274.624 254.398 275.666 254.165 276.979 254.165H280.997C281.991 254.165 282.674 254.407 283.045 254.891C283.417 255.366 283.603 256.222 283.603 257.458V265.482C283.603 266.078 283.374 266.376 282.916 266.376ZM275.514 264.86H277.899C279.489 264.86 280.617 264.41 281.282 263.512C281.956 262.604 282.276 261.265 282.242 259.493L282.643 259.856H278.431C277.472 259.856 276.668 259.921 276.02 260.05C275.372 260.171 274.884 260.426 274.555 260.815C274.236 261.204 274.076 261.792 274.076 262.578C274.076 263.391 274.218 263.974 274.503 264.328C274.797 264.683 275.134 264.86 275.514 264.86Z" fill="#1E2120"/>
<path d="M298.362 268.58C297.912 268.58 297.688 268.273 297.688 267.66V266.195H287.331V254.878C287.331 254.282 287.556 253.983 288.005 253.983C288.463 253.983 288.692 254.282 288.692 254.878V264.834H296.184V254.878C296.184 254.282 296.409 253.983 296.858 253.983C297.316 253.983 297.545 254.282 297.545 254.878V265.482L296.975 264.873H297.726C298.608 264.881 299.049 265.374 299.049 266.351V267.66C299.049 268.273 298.82 268.58 298.362 268.58Z" fill="#1E2120"/>
<path d="M302.422 266.467C301.972 266.467 301.748 266.191 301.748 265.638V254.748C301.748 254.463 301.804 254.247 301.916 254.1C302.037 253.953 302.206 253.88 302.422 253.88C302.646 253.88 302.815 253.953 302.927 254.1C303.048 254.247 303.109 254.463 303.109 254.748V265.638C303.109 266.191 302.88 266.467 302.422 266.467ZM302.409 251.637C302.089 251.637 301.791 251.529 301.514 251.313C301.238 251.097 301.1 250.851 301.1 250.574C301.108 250.289 301.246 250.038 301.514 249.822C301.791 249.606 302.085 249.498 302.396 249.498C302.715 249.498 303.022 249.606 303.316 249.822C303.61 250.038 303.757 250.289 303.757 250.574C303.757 250.868 303.606 251.118 303.303 251.326C303.001 251.533 302.703 251.637 302.409 251.637Z" fill="#1E2120"/>
<path d="M306.524 266.402C305.833 266.402 305.488 266.173 305.488 265.715C305.488 265.266 305.786 265.041 306.382 265.041C306.831 265.041 307.224 264.864 307.561 264.51C307.898 264.155 308.162 263.654 308.352 263.006C308.482 262.548 308.65 262.146 308.858 261.8C309.074 261.446 309.342 261.126 309.661 260.841C308.745 260.668 308.089 260.34 307.691 259.856C307.294 259.372 307.095 258.711 307.095 257.872C307.095 256.818 307.276 256.027 307.639 255.5C308.011 254.973 308.607 254.619 309.428 254.437C310.258 254.256 311.368 254.165 312.759 254.165H316.648C316.855 254.165 317.011 254.243 317.114 254.398C317.227 254.545 317.283 254.765 317.283 255.059V265.586C317.283 265.836 317.222 266.031 317.101 266.169C316.98 266.307 316.812 266.376 316.596 266.376C316.38 266.376 316.211 266.307 316.09 266.169C315.978 266.031 315.922 265.836 315.922 265.586V261.048H312.772C312.141 261.048 311.623 261.126 311.217 261.282C310.819 261.429 310.499 261.671 310.257 262.008C310.016 262.345 309.817 262.794 309.661 263.356C309.411 264.237 308.987 264.968 308.391 265.547C307.803 266.117 307.181 266.402 306.524 266.402ZM311.943 259.687H315.922V255.526H311.943C311.078 255.526 310.391 255.569 309.882 255.656C309.372 255.742 309.005 255.932 308.78 256.226C308.564 256.52 308.456 256.978 308.456 257.6C308.456 258.231 308.564 258.698 308.78 259C309.005 259.294 309.372 259.484 309.882 259.571C310.391 259.648 311.078 259.687 311.943 259.687Z" fill="#1E2120"/>
<path d="M197.667 0H157.162V182.3H136.909V0H96.4034V222.811H197.667V0Z" fill="#464DF6"/>
<path d="M0.405058 101.277L76.1506 101.277V131.66H30.7843V146.649H76.1506V222.81H0L1.32792e-06 192.426H45.7714V177.032L0.405058 177.032V101.277Z" fill="#464DF6"/>
<path d="M217.92 101.279H258.426V222.811H217.92V101.279Z" fill="#464DF6"/>
<path fill-rule="evenodd" clip-rule="evenodd" d="M440.701 222.811L379.943 222.811V324.087H339.437V101.277H379.943V101.279H440.701V222.811ZM400.196 182.3H379.943V141.789H400.196V182.3Z" fill="#464DF6"/>
<path d="M319.184 0H278.679V222.81H319.184V81.0234H379.943V40.5126L319.184 40.5126V0Z" fill="#464DF6"/>
<g clip-path="url(#clip0_202_555)">
<path d="M25.7978 7.06299H22.0957V10.6126H25.7978V7.06299Z" fill="#1E2120"/>
<path d="M25.7978 3.54956H22.0957V7.06305H25.7978V3.54956Z" fill="#1E2120"/>
<path d="M22.0975 10.6125H18.4331V14.126H22.0975V10.6125Z" fill="#1E2120"/>
<path d="M22.0975 7.06299H18.4331V10.6126H22.0975V7.06299Z" fill="#464DF6"/>
<path d="M22.0975 3.54956H18.4331V7.06305H22.0975V3.54956Z" fill="#464DF6"/>
<path d="M22.0975 0H18.4331V3.54957H22.0975V0Z" fill="#1E2120"/>
<path d="M18.4331 14.1279H14.7311V17.6775H18.4331V14.1279Z" fill="#1E2120"/>
<path d="M18.4331 10.6125H14.7311V14.126H18.4331V10.6125Z" fill="#464DF6"/>
<path d="M18.4331 7.06299H14.7311V10.6126H18.4331V7.06299Z" fill="#FFD40C"/>
<path d="M18.4331 3.54956H14.7311V7.06305H18.4331V3.54956Z" fill="#FFD40C"/>
<path d="M18.4331 0H14.7311V3.54957H18.4331V0Z" fill="#1E2120"/>
<path d="M14.7311 17.6758H11.0667V21.1893H14.7311V17.6758Z" fill="#1E2120"/>
<path d="M14.7311 14.1279H11.0667V17.6775H14.7311V14.1279Z" fill="#464DF6"/>
<path d="M14.7311 10.6125H11.0667V14.126H14.7311V10.6125Z" fill="#FFD40C"/>
<path d="M14.7311 7.06299H11.0667V10.6126H14.7311V7.06299Z" fill="#FFD40C"/>
<path d="M14.7311 3.54956H11.0667V7.06305H14.7311V3.54956Z" fill="#1E2120"/>
<path d="M11.0667 14.1279H7.36462V17.6775H11.0667V14.1279Z" fill="#1E2120"/>
<path d="M11.0667 10.6125H7.36462V14.126H11.0667V10.6125Z" fill="#FFD40C"/>
<path d="M11.0667 7.06299H7.36462V10.6126H11.0667V7.06299Z" fill="#FFD40C"/>
<path d="M11.0667 3.54956H7.36462V7.06305H11.0667V3.54956Z" fill="#FFD40C"/>
<path d="M11.0667 0H7.36462V3.54957H11.0667V0Z" fill="#1E2120"/>
<path d="M7.3665 10.6125H3.66443V14.126H7.3665V10.6125Z" fill="#1E2120"/>
<path d="M7.3665 7.06299H3.66443V10.6126H7.3665V7.06299Z" fill="#FFD40C"/>
<path d="M7.3665 3.54956H3.66443V7.06305H7.3665V3.54956Z" fill="white"/>
<path d="M7.3665 0H3.66443V3.54957H7.3665V0Z" fill="#1E2120"/>
<path d="M3.66441 7.06299H0V10.6126H3.66441V7.06299Z" fill="#1E2120"/>
<path d="M3.66441 3.54956H0V7.06305H3.66441V3.54956Z" fill="#1E2120"/>
</g>
<g clip-path="url(#clip1_202_555)">
<path d="M53.4384 7.06299H49.8685V10.6126H53.4384V7.06299Z" fill="#1E2120"/>
<path d="M53.4384 3.54956H49.8685V7.06305H53.4384V3.54956Z" fill="#1E2120"/>
<path d="M49.8703 10.6125H46.3368V14.126H49.8703V10.6125Z" fill="#1E2120"/>
<path d="M49.8703 7.06299H46.3368V10.6126H49.8703V7.06299Z" fill="#464DF6"/>
<path d="M49.8703 3.54956H46.3368V7.06305H49.8703V3.54956Z" fill="#464DF6"/>
<path d="M49.8703 0H46.3368V3.54957H49.8703V0Z" fill="#1E2120"/>
<path d="M46.3368 14.1279H42.767V17.6775H46.3368V14.1279Z" fill="#1E2120"/>
<path d="M46.3368 10.6125H42.767V14.126H46.3368V10.6125Z" fill="#464DF6"/>
<path d="M46.3368 7.06299H42.767V10.6126H46.3368V7.06299Z" fill="#FFD40C"/>
<path d="M46.3368 3.54956H42.767V7.06305H46.3368V3.54956Z" fill="#FFD40C"/>
<path d="M46.3368 0H42.767V3.54957H46.3368V0Z" fill="#1E2120"/>
<path d="M42.7669 17.6758H39.2334V21.1893H42.7669V17.6758Z" fill="#1E2120"/>
<path d="M42.7669 14.1279H39.2334V17.6775H42.7669V14.1279Z" fill="#464DF6"/>
<path d="M42.7669 10.6125H39.2334V14.126H42.7669V10.6125Z" fill="#FFD40C"/>
<path d="M42.7669 7.06299H39.2334V10.6126H42.7669V7.06299Z" fill="#FFD40C"/>
<path d="M42.7669 3.54956H39.2334V7.06305H42.7669V3.54956Z" fill="#1E2120"/>
<path d="M39.2334 14.1279H35.6636V17.6775H39.2334V14.1279Z" fill="#1E2120"/>
<path d="M39.2334 10.6125H35.6636V14.126H39.2334V10.6125Z" fill="#FFD40C"/>
<path d="M39.2334 7.06299H35.6636V10.6126H39.2334V7.06299Z" fill="#FFD40C"/>
<path d="M39.2334 3.54956H35.6636V7.06305H39.2334V3.54956Z" fill="#FFD40C"/>
<path d="M39.2334 0H35.6636V3.54957H39.2334V0Z" fill="#1E2120"/>
<path d="M35.6654 10.6125H32.0956V14.126H35.6654V10.6125Z" fill="#1E2120"/>
<path d="M35.6654 7.06299H32.0956V10.6126H35.6654V7.06299Z" fill="#FFD40C"/>
<path d="M35.6654 3.54956H32.0956V7.06305H35.6654V3.54956Z" fill="white"/>
<path d="M35.6654 0H32.0956V3.54957H35.6654V0Z" fill="#1E2120"/>
<path d="M32.0955 7.06299H28.562V10.6126H32.0955V7.06299Z" fill="#1E2120"/>
<path d="M32.0955 3.54956H28.562V7.06305H32.0955V3.54956Z" fill="#1E2120"/>
</g>
<g clip-path="url(#clip2_202_555)">
<path d="M82 7.06299H78.298V10.6126H82V7.06299Z" fill="#1E2120"/>
<path d="M82 3.54956H78.298V7.06305H82V3.54956Z" fill="#1E2120"/>
<path d="M78.2998 10.6125H74.6354V14.126H78.2998V10.6125Z" fill="#1E2120"/>
<path d="M78.2998 7.06299H74.6354V10.6126H78.2998V7.06299Z" fill="#464DF6"/>
<path d="M78.2998 3.54956H74.6354V7.06305H78.2998V3.54956Z" fill="#464DF6"/>
<path d="M78.2998 0H74.6354V3.54957H78.2998V0Z" fill="#1E2120"/>
<path d="M74.6354 14.1279H70.9333V17.6775H74.6354V14.1279Z" fill="#1E2120"/>
<path d="M74.6354 10.6125H70.9333V14.126H74.6354V10.6125Z" fill="#464DF6"/>
<path d="M74.6354 7.06299H70.9333V10.6126H74.6354V7.06299Z" fill="#FFD40C"/>
<path d="M74.6354 3.54956H70.9333V7.06305H74.6354V3.54956Z" fill="#FFD40C"/>
<path d="M74.6354 0H70.9333V3.54957H74.6354V0Z" fill="#1E2120"/>
<path d="M70.9333 17.6758H67.2689V21.1893H70.9333V17.6758Z" fill="#1E2120"/>
<path d="M70.9333 14.1279H67.2689V17.6775H70.9333V14.1279Z" fill="#464DF6"/>
<path d="M70.9333 10.6125H67.2689V14.126H70.9333V10.6125Z" fill="#FFD40C"/>
<path d="M70.9333 7.06299H67.2689V10.6126H70.9333V7.06299Z" fill="#FFD40C"/>
<path d="M70.9333 3.54956H67.2689V7.06305H70.9333V3.54956Z" fill="#1E2120"/>
<path d="M67.269 14.1279H63.5669V17.6775H67.269V14.1279Z" fill="#1E2120"/>
<path d="M67.269 10.6125H63.5669V14.126H67.269V10.6125Z" fill="#FFD40C"/>
<path d="M67.269 7.06299H63.5669V10.6126H67.269V7.06299Z" fill="#FFD40C"/>
<path d="M67.269 3.54956H63.5669V7.06305H67.269V3.54956Z" fill="#FFD40C"/>
<path d="M67.269 0H63.5669V3.54957H67.269V0Z" fill="#1E2120"/>
<path d="M63.5688 10.6125H59.8667V14.126H63.5688V10.6125Z" fill="#1E2120"/>
<path d="M63.5688 7.06299H59.8667V10.6126H63.5688V7.06299Z" fill="#FFD40C"/>
<path d="M63.5688 3.54956H59.8667V7.06305H63.5688V3.54956Z" fill="white"/>
<path d="M63.5688 0H59.8667V3.54957H63.5688V0Z" fill="#1E2120"/>
<path d="M59.8667 7.06299H56.2023V10.6126H59.8667V7.06299Z" fill="#1E2120"/>
<path d="M59.8667 3.54956H56.2023V7.06305H59.8667V3.54956Z" fill="#1E2120"/>
</g>
<defs>
<clipPath id="clip0_202_555">
<rect width="25.7977" height="21.191" fill="white"/>
</clipPath>
<clipPath id="clip1_202_555">
<rect width="24.8764" height="21.191" fill="white" transform="translate(28.562)"/>
</clipPath>
<clipPath id="clip2_202_555">
<rect width="25.7977" height="21.191" fill="white" transform="translate(56.2023)"/>
</clipPath>
</defs>
</svg>
