<svg width="598" height="440" viewBox="0 0 598 440" fill="none" xmlns="http://www.w3.org/2000/svg">
<path d="M268.221 0H213.257V247.502H185.776V0H130.812V302.502L268.221 302.502V0Z" fill="#464DF6"/>
<path d="M0.549634 137.5L103.331 137.5V178.75H41.7721V199.1H103.331V302.5H0L1.80189e-06 261.25H62.1085V240.35H0.549634V137.5Z" fill="#464DF6"/>
<path d="M295.702 137.502H350.665V302.502H295.702V137.502Z" fill="#464DF6"/>
<path fill-rule="evenodd" clip-rule="evenodd" d="M598 302.502L515.555 302.502V440H460.592V137.5H515.555V137.502H598V302.502ZM543.037 247.502H515.555V192.502H543.037V247.502Z" fill="#464DF6"/>
<path d="M433.11 0H378.147V302.5H433.11V110.002H515.555V55.0024L433.11 55.0024V0Z" fill="#464DF6"/>
<mask id="mask0_403_2" style="mask-type:alpha" maskUnits="userSpaceOnUse" x="0" y="0" width="598" height="440">
<path d="M268.221 0H213.257V247.502H185.776V0H130.812V302.502L268.221 302.502V0Z" fill="#464DF6"/>
<path d="M0.549634 137.5L103.331 137.5V178.75H41.7721V199.1H103.331V302.5H0L1.80189e-06 261.25H62.1085V240.35H0.549634V137.5Z" fill="#464DF6"/>
<path d="M295.702 137.502H350.665V302.502H295.702V137.502Z" fill="#464DF6"/>
<path fill-rule="evenodd" clip-rule="evenodd" d="M598 302.502L515.555 302.502V440H460.592V137.5H515.555V137.502H598V302.502ZM543.037 247.502H515.555V192.502H543.037V247.502Z" fill="#464DF6"/>
<path d="M433.11 0H378.147V302.5H433.11V110.002H515.555V55.0024L433.11 55.0024V0Z" fill="#464DF6"/>
</mask>
<g mask="url(#mask0_403_2)">
<path d="M475.142 190.143H418.095V247.19H475.142H532.19V190.143V133.095H475.142V190.143Z" fill="#3C41C0"/>
<path d="M532.192 361.286H475.145V446.858H532.192V361.286Z" fill="#FFD40C"/>
<path d="M475.143 304.238H418.096V446.857H475.143V304.238Z" fill="#FFD40C"/>
<path d="M389.572 133.095H332.524V190.143H389.572V133.095Z" fill="#3C41C0"/>
<path d="M418.095 76.0476V19H361.048V76.0476H304V133.095H475.143V76.0476H418.095Z" fill="#FFD40C"/>
<path d="M418.095 247.19H304V304.238H418.095V247.19Z" fill="#3C41C0"/>
<path d="M304 389.81V503.905H361.048V389.81H304Z" fill="#3C41C0"/>
</g>
</svg>
