<svg width="218" height="160" viewBox="0 0 218 160" fill="none" xmlns="http://www.w3.org/2000/svg">
<path d="M97.6471 0H77.6374V90.0008H67.6326V0H47.623V110.001H97.6471V0Z" fill="#1E2120"/>
<path d="M0.200097 50L37.6181 50V65H15.2073V72.4H37.6181V110H0L6.55987e-07 95H22.6109V87.4H0.200097V50Z" fill="#1E2120"/>
<path d="M107.652 50.0008H127.662V110.001H107.652V50.0008Z" fill="#1E2120"/>
<path fill-rule="evenodd" clip-rule="evenodd" d="M187.69 110.001H217.705V50.0008L187.69 50H167.681V160H187.69V110.001ZM197.695 70.0008H187.69V90.0008H197.695V70.0008Z" fill="#1E2120"/>
<path d="M157.676 0H137.666V110H157.676V40.0008H187.69V20.0008L157.676 20.0008V0Z" fill="#1E2120"/>
</svg>
