<svg width="677" height="443" viewBox="0 0 677 443" fill="none" xmlns="http://www.w3.org/2000/svg">
<g opacity="0.25">
<rect x="451.087" y="433.043" width="9.5856" height="9.5856" fill="#1E2120"/>
<rect x="433.044" y="433.043" width="9.5856" height="9.5856" fill="#1E2120"/>
<rect x="451.087" y="360.87" width="9.5856" height="9.5856" fill="#1E2120"/>
<rect x="433.044" y="360.87" width="9.5856" height="9.5856" fill="#1E2120"/>
<rect x="288.696" y="360.87" width="9.5856" height="9.5856" fill="#1E2120"/>
<rect x="270.652" y="360.87" width="9.5856" height="9.5856" fill="#1E2120"/>
<rect x="252.609" y="360.87" width="9.5856" height="9.5856" fill="#1E2120"/>
<rect x="451.087" y="288.696" width="9.5856" height="9.5856" fill="#1E2120"/>
<rect x="433.044" y="288.696" width="9.5856" height="9.5856" fill="#1E2120"/>
<rect x="415" y="288.696" width="9.5856" height="9.5856" fill="#1E2120"/>
<rect x="396.957" y="288.696" width="9.5856" height="9.5856" fill="#1E2120"/>
<rect x="378.913" y="288.696" width="9.5856" height="9.5856" fill="#1E2120"/>
<rect x="360.87" y="288.696" width="9.5856" height="9.5856" fill="#1E2120"/>
<rect x="342.826" y="288.696" width="9.5856" height="9.5856" fill="#1E2120"/>
<rect x="324.783" y="288.696" width="9.5856" height="9.5856" fill="#1E2120"/>
<rect x="306.739" y="288.696" width="9.5856" height="9.5856" fill="#1E2120"/>
<rect x="288.696" y="288.696" width="9.5856" height="9.5856" fill="#1E2120"/>
<rect x="270.652" y="288.696" width="9.5856" height="9.5856" fill="#1E2120"/>
<rect x="451.087" y="216.522" width="9.5856" height="9.5856" fill="#1E2120"/>
<rect x="433.044" y="216.522" width="9.5856" height="9.5856" fill="#1E2120"/>
<rect x="415" y="216.522" width="9.5856" height="9.5856" fill="#1E2120"/>
<rect x="396.957" y="216.522" width="9.5856" height="9.5856" fill="#1E2120"/>
<rect x="378.913" y="216.522" width="9.5856" height="9.5856" fill="#1E2120"/>
<rect x="360.87" y="216.522" width="9.5856" height="9.5856" fill="#1E2120"/>
<rect x="342.826" y="216.522" width="9.5856" height="9.5856" fill="#1E2120"/>
<rect x="324.783" y="216.522" width="9.5856" height="9.5856" fill="#1E2120"/>
<rect x="306.739" y="216.522" width="9.5856" height="9.5856" fill="#1E2120"/>
<rect x="288.696" y="216.522" width="9.5856" height="9.5856" fill="#1E2120"/>
<rect x="270.652" y="216.522" width="9.5856" height="9.5856" fill="#1E2120"/>
<rect x="252.609" y="216.522" width="9.5856" height="9.5856" fill="#1E2120"/>
<rect x="234.565" y="216.522" width="9.5856" height="9.5856" fill="#1E2120"/>
<rect x="216.522" y="216.522" width="9.5856" height="9.5856" fill="#1E2120"/>
<rect x="198.479" y="216.522" width="9.5856" height="9.5856" fill="#1E2120"/>
<rect x="180.435" y="216.522" width="9.5856" height="9.5856" fill="#1E2120"/>
<rect x="162.391" y="216.522" width="9.5856" height="9.5856" fill="#1E2120"/>
<rect x="144.348" y="216.522" width="9.5856" height="9.5856" fill="#1E2120"/>
<rect x="126.304" y="216.522" width="9.5856" height="9.5856" fill="#1E2120"/>
<rect x="108.261" y="216.522" width="9.5856" height="9.5856" fill="#1E2120"/>
<rect x="90.2173" y="216.522" width="9.5856" height="9.5856" fill="#1E2120"/>
<rect x="72.1738" y="216.522" width="9.5856" height="9.5856" fill="#1E2120"/>
<rect x="54.1305" y="216.522" width="9.5856" height="9.5856" fill="#1E2120"/>
<rect x="36.0869" y="216.522" width="9.5856" height="9.5856" fill="#1E2120"/>
<rect x="18.0433" y="216.522" width="9.5856" height="9.5856" fill="#1E2120"/>
<rect y="216.522" width="9.5856" height="9.5856" fill="#1E2120"/>
<rect x="451.087" y="144.348" width="9.5856" height="9.5856" fill="#1E2120"/>
<rect x="433.044" y="144.348" width="9.5856" height="9.5856" fill="#1E2120"/>
<rect x="415" y="144.348" width="9.5856" height="9.5856" fill="#1E2120"/>
<rect x="396.957" y="144.348" width="9.5856" height="9.5856" fill="#1E2120"/>
<rect x="378.913" y="144.348" width="9.5856" height="9.5856" fill="#1E2120"/>
<rect x="360.87" y="144.348" width="9.5856" height="9.5856" fill="#1E2120"/>
<rect x="342.826" y="144.348" width="9.5856" height="9.5856" fill="#1E2120"/>
<rect x="324.783" y="144.348" width="9.5856" height="9.5856" fill="#1E2120"/>
<rect x="306.739" y="144.348" width="9.5856" height="9.5856" fill="#1E2120"/>
<rect x="288.696" y="144.348" width="9.5856" height="9.5856" fill="#1E2120"/>
<rect x="270.652" y="144.348" width="9.5856" height="9.5856" fill="#1E2120"/>
<rect x="252.609" y="144.348" width="9.5856" height="9.5856" fill="#1E2120"/>
<rect x="234.565" y="144.348" width="9.5856" height="9.5856" fill="#1E2120"/>
<rect x="216.522" y="144.348" width="9.5856" height="9.5856" fill="#1E2120"/>
<rect x="198.479" y="144.348" width="9.5856" height="9.5856" fill="#1E2120"/>
<rect x="180.435" y="144.348" width="9.5856" height="9.5856" fill="#1E2120"/>
<rect x="162.391" y="144.348" width="9.5856" height="9.5856" fill="#1E2120"/>
<rect x="144.348" y="144.348" width="9.5856" height="9.5856" fill="#1E2120"/>
<rect x="126.304" y="144.348" width="9.5856" height="9.5856" fill="#1E2120"/>
<rect x="108.261" y="144.348" width="9.5856" height="9.5856" fill="#1E2120"/>
<rect x="90.2173" y="144.348" width="9.5856" height="9.5856" fill="#1E2120"/>
<rect x="72.1738" y="144.348" width="9.5856" height="9.5856" fill="#1E2120"/>
<rect x="54.1305" y="144.348" width="9.5856" height="9.5856" fill="#1E2120"/>
<rect x="36.0869" y="144.348" width="9.5856" height="9.5856" fill="#1E2120"/>
<rect x="18.0433" y="144.348" width="9.5856" height="9.5856" fill="#1E2120"/>
<rect x="451.087" y="72.1738" width="9.5856" height="9.5856" fill="#1E2120"/>
<rect x="433.044" y="72.1738" width="9.5856" height="9.5856" fill="#1E2120"/>
<rect x="415" y="72.1738" width="9.5856" height="9.5856" fill="#1E2120"/>
<rect x="396.957" y="72.1738" width="9.5856" height="9.5856" fill="#1E2120"/>
<rect x="378.913" y="72.1738" width="9.5856" height="9.5856" fill="#1E2120"/>
<rect x="360.87" y="72.1738" width="9.5856" height="9.5856" fill="#1E2120"/>
<rect x="342.826" y="72.1738" width="9.5856" height="9.5856" fill="#1E2120"/>
<rect x="324.783" y="72.1738" width="9.5856" height="9.5856" fill="#1E2120"/>
<rect x="306.739" y="72.1738" width="9.5856" height="9.5856" fill="#1E2120"/>
<rect x="288.696" y="72.1738" width="9.5856" height="9.5856" fill="#1E2120"/>
<rect x="270.652" y="72.1738" width="9.5856" height="9.5856" fill="#1E2120"/>
<rect x="252.609" y="72.1738" width="9.5856" height="9.5856" fill="#1E2120"/>
<rect x="234.565" y="72.1738" width="9.5856" height="9.5856" fill="#1E2120"/>
<rect x="216.522" y="72.1738" width="9.5856" height="9.5856" fill="#1E2120"/>
<rect x="198.479" y="72.1738" width="9.5856" height="9.5856" fill="#1E2120"/>
<rect x="180.435" y="72.1738" width="9.5856" height="9.5856" fill="#1E2120"/>
<rect x="162.391" y="72.1738" width="9.5856" height="9.5856" fill="#1E2120"/>
<rect x="144.348" y="72.1738" width="9.5856" height="9.5856" fill="#1E2120"/>
<rect x="126.304" y="72.1738" width="9.5856" height="9.5856" fill="#1E2120"/>
<rect x="108.261" y="72.1738" width="9.5856" height="9.5856" fill="#1E2120"/>
<rect x="90.2173" y="72.1738" width="9.5856" height="9.5856" fill="#1E2120"/>
<rect x="72.1738" y="72.1738" width="9.5856" height="9.5856" fill="#1E2120"/>
<rect x="451.087" y="396.957" width="9.5856" height="9.5856" fill="#1E2120"/>
<rect x="433.044" y="396.957" width="9.5856" height="9.5856" fill="#1E2120"/>
<rect x="415" y="396.957" width="9.5856" height="9.5856" fill="#1E2120"/>
<rect x="234.565" y="396.957" width="9.5856" height="9.5856" fill="#1E2120"/>
<rect x="451.087" y="324.783" width="9.5856" height="9.5856" fill="#1E2120"/>
<rect x="433.044" y="324.783" width="9.5856" height="9.5856" fill="#1E2120"/>
<rect x="415" y="324.783" width="9.5856" height="9.5856" fill="#1E2120"/>
<rect x="396.957" y="324.783" width="9.5856" height="9.5856" fill="#1E2120"/>
<rect x="378.913" y="324.783" width="9.5856" height="9.5856" fill="#1E2120"/>
<rect x="324.783" y="324.783" width="9.5856" height="9.5856" fill="#1E2120"/>
<rect x="306.739" y="324.783" width="9.5856" height="9.5856" fill="#1E2120"/>
<rect x="288.696" y="324.783" width="9.5856" height="9.5856" fill="#1E2120"/>
<rect x="451.087" y="252.609" width="9.5856" height="9.5856" fill="#1E2120"/>
<rect x="433.044" y="252.609" width="9.5856" height="9.5856" fill="#1E2120"/>
<rect x="415" y="252.609" width="9.5856" height="9.5856" fill="#1E2120"/>
<rect x="396.957" y="252.609" width="9.5856" height="9.5856" fill="#1E2120"/>
<rect x="378.913" y="252.609" width="9.5856" height="9.5856" fill="#1E2120"/>
<rect x="360.87" y="252.609" width="9.5856" height="9.5856" fill="#1E2120"/>
<rect x="342.826" y="252.609" width="9.5856" height="9.5856" fill="#1E2120"/>
<rect x="324.783" y="252.609" width="9.5856" height="9.5856" fill="#1E2120"/>
<rect x="306.739" y="252.609" width="9.5856" height="9.5856" fill="#1E2120"/>
<rect x="288.696" y="252.609" width="9.5856" height="9.5856" fill="#1E2120"/>
<rect x="270.652" y="252.609" width="9.5856" height="9.5856" fill="#1E2120"/>
<rect x="90.2173" y="252.609" width="9.5856" height="9.5856" fill="#1E2120"/>
<rect x="451.087" y="180.435" width="9.5856" height="9.5856" fill="#1E2120"/>
<rect x="433.044" y="180.435" width="9.5856" height="9.5856" fill="#1E2120"/>
<rect x="415" y="180.435" width="9.5856" height="9.5856" fill="#1E2120"/>
<rect x="396.957" y="180.435" width="9.5856" height="9.5856" fill="#1E2120"/>
<rect x="378.913" y="180.435" width="9.5856" height="9.5856" fill="#1E2120"/>
<rect x="360.87" y="180.435" width="9.5856" height="9.5856" fill="#1E2120"/>
<rect x="342.826" y="180.435" width="9.5856" height="9.5856" fill="#1E2120"/>
<rect x="324.783" y="180.435" width="9.5856" height="9.5856" fill="#1E2120"/>
<rect x="306.739" y="180.435" width="9.5856" height="9.5856" fill="#1E2120"/>
<rect x="288.696" y="180.435" width="9.5856" height="9.5856" fill="#1E2120"/>
<rect x="270.652" y="180.435" width="9.5856" height="9.5856" fill="#1E2120"/>
<rect x="252.609" y="180.435" width="9.5856" height="9.5856" fill="#1E2120"/>
<rect x="234.565" y="180.435" width="9.5856" height="9.5856" fill="#1E2120"/>
<rect x="216.522" y="180.435" width="9.5856" height="9.5856" fill="#1E2120"/>
<rect x="198.479" y="180.435" width="9.5856" height="9.5856" fill="#1E2120"/>
<rect x="180.435" y="180.435" width="9.5856" height="9.5856" fill="#1E2120"/>
<rect x="162.391" y="180.435" width="9.5856" height="9.5856" fill="#1E2120"/>
<rect x="144.348" y="180.435" width="9.5856" height="9.5856" fill="#1E2120"/>
<rect x="126.304" y="180.435" width="9.5856" height="9.5856" fill="#1E2120"/>
<rect x="108.261" y="180.435" width="9.5856" height="9.5856" fill="#1E2120"/>
<rect x="90.2173" y="180.435" width="9.5856" height="9.5856" fill="#1E2120"/>
<rect x="72.1738" y="180.435" width="9.5856" height="9.5856" fill="#1E2120"/>
<rect x="54.1305" y="180.435" width="9.5856" height="9.5856" fill="#1E2120"/>
<rect x="36.0869" y="180.435" width="9.5856" height="9.5856" fill="#1E2120"/>
<rect x="18.0433" y="180.435" width="9.5856" height="9.5856" fill="#1E2120"/>
<rect x="451.087" y="108.261" width="9.5856" height="9.5856" fill="#1E2120"/>
<rect x="433.044" y="108.261" width="9.5856" height="9.5856" fill="#1E2120"/>
<rect x="415" y="108.261" width="9.5856" height="9.5856" fill="#1E2120"/>
<rect x="396.957" y="108.261" width="9.5856" height="9.5856" fill="#1E2120"/>
<rect x="378.913" y="108.261" width="9.5856" height="9.5856" fill="#1E2120"/>
<rect x="360.87" y="108.261" width="9.5856" height="9.5856" fill="#1E2120"/>
<rect x="342.826" y="108.261" width="9.5856" height="9.5856" fill="#1E2120"/>
<rect x="324.783" y="108.261" width="9.5856" height="9.5856" fill="#1E2120"/>
<rect x="306.739" y="108.261" width="9.5856" height="9.5856" fill="#1E2120"/>
<rect x="288.696" y="108.261" width="9.5856" height="9.5856" fill="#1E2120"/>
<rect x="270.652" y="108.261" width="9.5856" height="9.5856" fill="#1E2120"/>
<rect x="252.609" y="108.261" width="9.5856" height="9.5856" fill="#1E2120"/>
<rect x="234.565" y="108.261" width="9.5856" height="9.5856" fill="#1E2120"/>
<rect x="216.522" y="108.261" width="9.5856" height="9.5856" fill="#1E2120"/>
<rect x="198.479" y="108.261" width="9.5856" height="9.5856" fill="#1E2120"/>
<rect x="180.435" y="108.261" width="9.5856" height="9.5856" fill="#1E2120"/>
<rect x="162.391" y="108.261" width="9.5856" height="9.5856" fill="#1E2120"/>
<rect x="144.348" y="108.261" width="9.5856" height="9.5856" fill="#1E2120"/>
<rect x="126.304" y="108.261" width="9.5856" height="9.5856" fill="#1E2120"/>
<rect x="108.261" y="108.261" width="9.5856" height="9.5856" fill="#1E2120"/>
<rect x="90.2173" y="108.261" width="9.5856" height="9.5856" fill="#1E2120"/>
<rect x="72.1738" y="108.261" width="9.5856" height="9.5856" fill="#1E2120"/>
<rect x="54.1305" y="108.261" width="9.5856" height="9.5856" fill="#1E2120"/>
<rect x="433.044" y="36.0869" width="9.5856" height="9.5856" fill="#1E2120"/>
<rect x="415" y="36.0869" width="9.5856" height="9.5856" fill="#1E2120"/>
<rect x="396.957" y="36.0869" width="9.5856" height="9.5856" fill="#1E2120"/>
<rect x="378.913" y="36.0869" width="9.5856" height="9.5856" fill="#1E2120"/>
<rect x="360.87" y="36.0869" width="9.5856" height="9.5856" fill="#1E2120"/>
<rect x="342.826" y="36.0869" width="9.5856" height="9.5856" fill="#1E2120"/>
<rect x="324.783" y="36.0869" width="9.5856" height="9.5856" fill="#1E2120"/>
<rect x="306.739" y="36.0869" width="9.5856" height="9.5856" fill="#1E2120"/>
<rect x="252.609" y="36.0869" width="9.5856" height="9.5856" fill="#1E2120"/>
<rect x="234.565" y="36.0869" width="9.5856" height="9.5856" fill="#1E2120"/>
<rect x="216.522" y="36.0869" width="9.5856" height="9.5856" fill="#1E2120"/>
<rect x="198.479" y="36.0869" width="9.5856" height="9.5856" fill="#1E2120"/>
<rect x="180.435" y="36.0869" width="9.5856" height="9.5856" fill="#1E2120"/>
<rect x="162.391" y="36.0869" width="9.5856" height="9.5856" fill="#1E2120"/>
<rect x="144.348" y="36.0869" width="9.5856" height="9.5856" fill="#1E2120"/>
<rect x="126.304" y="36.0869" width="9.5856" height="9.5856" fill="#1E2120"/>
<rect x="108.261" y="36.0869" width="9.5856" height="9.5856" fill="#1E2120"/>
<rect x="90.2173" y="36.0869" width="9.5856" height="9.5856" fill="#1E2120"/>
<rect x="72.1738" y="36.0869" width="9.5856" height="9.5856" fill="#1E2120"/>
<rect x="54.1305" y="36.0869" width="9.5856" height="9.5856" fill="#1E2120"/>
<rect x="451.087" y="415" width="9.5856" height="9.5856" fill="#1E2120"/>
<rect x="433.044" y="415" width="9.5856" height="9.5856" fill="#1E2120"/>
<rect x="451.087" y="342.826" width="9.5856" height="9.5856" fill="#1E2120"/>
<rect x="433.044" y="342.826" width="9.5856" height="9.5856" fill="#1E2120"/>
<rect x="415" y="342.826" width="9.5856" height="9.5856" fill="#1E2120"/>
<rect x="396.957" y="342.826" width="9.5856" height="9.5856" fill="#1E2120"/>
<rect x="378.913" y="342.826" width="9.5856" height="9.5856" fill="#1E2120"/>
<rect x="360.87" y="342.826" width="9.5856" height="9.5856" fill="#1E2120"/>
<rect x="306.739" y="342.826" width="9.5856" height="9.5856" fill="#1E2120"/>
<rect x="288.696" y="342.826" width="9.5856" height="9.5856" fill="#1E2120"/>
<rect x="270.652" y="342.826" width="9.5856" height="9.5856" fill="#1E2120"/>
<rect x="252.609" y="342.826" width="9.5856" height="9.5856" fill="#1E2120"/>
<rect x="451.087" y="270.652" width="9.5856" height="9.5856" fill="#1E2120"/>
<rect x="433.044" y="270.652" width="9.5856" height="9.5856" fill="#1E2120"/>
<rect x="415" y="270.652" width="9.5856" height="9.5856" fill="#1E2120"/>
<rect x="396.957" y="270.652" width="9.5856" height="9.5856" fill="#1E2120"/>
<rect x="378.913" y="270.652" width="9.5856" height="9.5856" fill="#1E2120"/>
<rect x="360.87" y="270.652" width="9.5856" height="9.5856" fill="#1E2120"/>
<rect x="342.826" y="270.652" width="9.5856" height="9.5856" fill="#1E2120"/>
<rect x="324.783" y="270.652" width="9.5856" height="9.5856" fill="#1E2120"/>
<rect x="306.739" y="270.652" width="9.5856" height="9.5856" fill="#1E2120"/>
<rect x="288.696" y="270.652" width="9.5856" height="9.5856" fill="#1E2120"/>
<rect x="270.652" y="270.652" width="9.5856" height="9.5856" fill="#1E2120"/>
<rect x="252.609" y="270.652" width="9.5856" height="9.5856" fill="#1E2120"/>
<rect x="451.087" y="198.478" width="9.5856" height="9.5856" fill="#1E2120"/>
<rect x="433.044" y="198.478" width="9.5856" height="9.5856" fill="#1E2120"/>
<rect x="415" y="198.478" width="9.5856" height="9.5856" fill="#1E2120"/>
<rect x="396.957" y="198.478" width="9.5856" height="9.5856" fill="#1E2120"/>
<rect x="378.913" y="198.478" width="9.5856" height="9.5856" fill="#1E2120"/>
<rect x="360.87" y="198.478" width="9.5856" height="9.5856" fill="#1E2120"/>
<rect x="342.826" y="198.478" width="9.5856" height="9.5856" fill="#1E2120"/>
<rect x="324.783" y="198.478" width="9.5856" height="9.5856" fill="#1E2120"/>
<rect x="306.739" y="198.478" width="9.5856" height="9.5856" fill="#1E2120"/>
<rect x="288.696" y="198.478" width="9.5856" height="9.5856" fill="#1E2120"/>
<rect x="270.652" y="198.478" width="9.5856" height="9.5856" fill="#1E2120"/>
<rect x="252.609" y="198.478" width="9.5856" height="9.5856" fill="#1E2120"/>
<rect x="234.565" y="198.478" width="9.5856" height="9.5856" fill="#1E2120"/>
<rect x="216.522" y="198.478" width="9.5856" height="9.5856" fill="#1E2120"/>
<rect x="198.479" y="198.478" width="9.5856" height="9.5856" fill="#1E2120"/>
<rect x="180.435" y="198.478" width="9.5856" height="9.5856" fill="#1E2120"/>
<rect x="162.391" y="198.478" width="9.5856" height="9.5856" fill="#1E2120"/>
<rect x="144.348" y="198.478" width="9.5856" height="9.5856" fill="#1E2120"/>
<rect x="126.304" y="198.478" width="9.5856" height="9.5856" fill="#1E2120"/>
<rect x="108.261" y="198.478" width="9.5856" height="9.5856" fill="#1E2120"/>
<rect x="90.2173" y="198.478" width="9.5856" height="9.5856" fill="#1E2120"/>
<rect x="72.1738" y="198.478" width="9.5856" height="9.5856" fill="#1E2120"/>
<rect x="54.1305" y="198.478" width="9.5856" height="9.5856" fill="#1E2120"/>
<rect x="36.0869" y="198.478" width="9.5856" height="9.5856" fill="#1E2120"/>
<rect x="18.0433" y="198.478" width="9.5856" height="9.5856" fill="#1E2120"/>
<rect y="198.478" width="9.5856" height="9.5856" fill="#1E2120"/>
<rect x="451.087" y="126.304" width="9.5856" height="9.5856" fill="#1E2120"/>
<rect x="433.044" y="126.304" width="9.5856" height="9.5856" fill="#1E2120"/>
<rect x="415" y="126.304" width="9.5856" height="9.5856" fill="#1E2120"/>
<rect x="396.957" y="126.304" width="9.5856" height="9.5856" fill="#1E2120"/>
<rect x="378.913" y="126.304" width="9.5856" height="9.5856" fill="#1E2120"/>
<rect x="360.87" y="126.304" width="9.5856" height="9.5856" fill="#1E2120"/>
<rect x="342.826" y="126.304" width="9.5856" height="9.5856" fill="#1E2120"/>
<rect x="324.783" y="126.304" width="9.5856" height="9.5856" fill="#1E2120"/>
<rect x="306.739" y="126.304" width="9.5856" height="9.5856" fill="#1E2120"/>
<rect x="288.696" y="126.304" width="9.5856" height="9.5856" fill="#1E2120"/>
<rect x="270.652" y="126.304" width="9.5856" height="9.5856" fill="#1E2120"/>
<rect x="252.609" y="126.304" width="9.5856" height="9.5856" fill="#1E2120"/>
<rect x="234.565" y="126.304" width="9.5856" height="9.5856" fill="#1E2120"/>
<rect x="216.522" y="126.304" width="9.5856" height="9.5856" fill="#1E2120"/>
<rect x="198.479" y="126.304" width="9.5856" height="9.5856" fill="#1E2120"/>
<rect x="180.435" y="126.304" width="9.5856" height="9.5856" fill="#1E2120"/>
<rect x="162.391" y="126.304" width="9.5856" height="9.5856" fill="#1E2120"/>
<rect x="144.348" y="126.304" width="9.5856" height="9.5856" fill="#1E2120"/>
<rect x="126.304" y="126.304" width="9.5856" height="9.5856" fill="#1E2120"/>
<rect x="108.261" y="126.304" width="9.5856" height="9.5856" fill="#1E2120"/>
<rect x="90.2173" y="126.304" width="9.5856" height="9.5856" fill="#1E2120"/>
<rect x="72.1738" y="126.304" width="9.5856" height="9.5856" fill="#1E2120"/>
<rect x="54.1305" y="126.304" width="9.5856" height="9.5856" fill="#1E2120"/>
<rect x="36.0869" y="126.304" width="9.5856" height="9.5856" fill="#1E2120"/>
<rect x="451.087" y="54.1304" width="9.5856" height="9.5856" fill="#1E2120"/>
<rect x="433.044" y="54.1304" width="9.5856" height="9.5856" fill="#1E2120"/>
<rect x="415" y="54.1304" width="9.5856" height="9.5856" fill="#1E2120"/>
<rect x="396.957" y="54.1304" width="9.5856" height="9.5856" fill="#1E2120"/>
<rect x="378.913" y="54.1304" width="9.5856" height="9.5856" fill="#1E2120"/>
<rect x="360.87" y="54.1304" width="9.5856" height="9.5856" fill="#1E2120"/>
<rect x="342.826" y="54.1304" width="9.5856" height="9.5856" fill="#1E2120"/>
<rect x="324.783" y="54.1304" width="9.5856" height="9.5856" fill="#1E2120"/>
<rect x="306.739" y="54.1304" width="9.5856" height="9.5856" fill="#1E2120"/>
<rect x="288.696" y="54.1304" width="9.5856" height="9.5856" fill="#1E2120"/>
<rect x="270.652" y="54.1304" width="9.5856" height="9.5856" fill="#1E2120"/>
<rect x="252.609" y="54.1304" width="9.5856" height="9.5856" fill="#1E2120"/>
<rect x="234.565" y="54.1304" width="9.5856" height="9.5856" fill="#1E2120"/>
<rect x="216.522" y="54.1304" width="9.5856" height="9.5856" fill="#1E2120"/>
<rect x="198.479" y="54.1304" width="9.5856" height="9.5856" fill="#1E2120"/>
<rect x="180.435" y="54.1304" width="9.5856" height="9.5856" fill="#1E2120"/>
<rect x="162.391" y="54.1304" width="9.5856" height="9.5856" fill="#1E2120"/>
<rect x="144.348" y="54.1304" width="9.5856" height="9.5856" fill="#1E2120"/>
<rect x="126.304" y="54.1304" width="9.5856" height="9.5856" fill="#1E2120"/>
<rect x="108.261" y="54.1304" width="9.5856" height="9.5856" fill="#1E2120"/>
<rect x="90.2173" y="54.1304" width="9.5856" height="9.5856" fill="#1E2120"/>
<rect x="72.1738" y="54.1304" width="9.5856" height="9.5856" fill="#1E2120"/>
<rect x="54.1305" y="54.1304" width="9.5856" height="9.5856" fill="#1E2120"/>
<rect x="451.087" y="378.913" width="9.5856" height="9.5856" fill="#1E2120"/>
<rect x="433.044" y="378.913" width="9.5856" height="9.5856" fill="#1E2120"/>
<rect x="415" y="378.913" width="9.5856" height="9.5856" fill="#1E2120"/>
<rect x="396.957" y="378.913" width="9.5856" height="9.5856" fill="#1E2120"/>
<rect x="270.652" y="378.913" width="9.5856" height="9.5856" fill="#1E2120"/>
<rect x="252.609" y="378.913" width="9.5856" height="9.5856" fill="#1E2120"/>
<rect x="234.565" y="378.913" width="9.5856" height="9.5856" fill="#1E2120"/>
<rect x="451.087" y="306.739" width="9.5856" height="9.5856" fill="#1E2120"/>
<rect x="433.044" y="306.739" width="9.5856" height="9.5856" fill="#1E2120"/>
<rect x="415" y="306.739" width="9.5856" height="9.5856" fill="#1E2120"/>
<rect x="396.957" y="306.739" width="9.5856" height="9.5856" fill="#1E2120"/>
<rect x="378.913" y="306.739" width="9.5856" height="9.5856" fill="#1E2120"/>
<rect x="360.87" y="306.739" width="9.5856" height="9.5856" fill="#1E2120"/>
<rect x="342.826" y="306.739" width="9.5856" height="9.5856" fill="#1E2120"/>
<rect x="324.783" y="306.739" width="9.5856" height="9.5856" fill="#1E2120"/>
<rect x="306.739" y="306.739" width="9.5856" height="9.5856" fill="#1E2120"/>
<rect x="288.696" y="306.739" width="9.5856" height="9.5856" fill="#1E2120"/>
<rect x="451.087" y="234.565" width="9.5856" height="9.5856" fill="#1E2120"/>
<rect x="433.044" y="234.565" width="9.5856" height="9.5856" fill="#1E2120"/>
<rect x="415" y="234.565" width="9.5856" height="9.5856" fill="#1E2120"/>
<rect x="396.957" y="234.565" width="9.5856" height="9.5856" fill="#1E2120"/>
<rect x="378.913" y="234.565" width="9.5856" height="9.5856" fill="#1E2120"/>
<rect x="360.87" y="234.565" width="9.5856" height="9.5856" fill="#1E2120"/>
<rect x="342.826" y="234.565" width="9.5856" height="9.5856" fill="#1E2120"/>
<rect x="324.783" y="234.565" width="9.5856" height="9.5856" fill="#1E2120"/>
<rect x="306.739" y="234.565" width="9.5856" height="9.5856" fill="#1E2120"/>
<rect x="288.696" y="234.565" width="9.5856" height="9.5856" fill="#1E2120"/>
<rect x="270.652" y="234.565" width="9.5856" height="9.5856" fill="#1E2120"/>
<rect x="252.609" y="234.565" width="9.5856" height="9.5856" fill="#1E2120"/>
<rect x="234.565" y="234.565" width="9.5856" height="9.5856" fill="#1E2120"/>
<rect x="216.522" y="234.565" width="9.5856" height="9.5856" fill="#1E2120"/>
<rect x="144.348" y="234.565" width="9.5856" height="9.5856" fill="#1E2120"/>
<rect x="126.304" y="234.565" width="9.5856" height="9.5856" fill="#1E2120"/>
<rect x="108.261" y="234.565" width="9.5856" height="9.5856" fill="#1E2120"/>
<rect x="90.2173" y="234.565" width="9.5856" height="9.5856" fill="#1E2120"/>
<rect x="72.1738" y="234.565" width="9.5856" height="9.5856" fill="#1E2120"/>
<rect x="54.1305" y="234.565" width="9.5856" height="9.5856" fill="#1E2120"/>
<rect x="36.0869" y="234.565" width="9.5856" height="9.5856" fill="#1E2120"/>
<rect x="18.0433" y="234.565" width="9.5856" height="9.5856" fill="#1E2120"/>
<rect x="451.087" y="162.391" width="9.5856" height="9.5856" fill="#1E2120"/>
<rect x="433.044" y="162.391" width="9.5856" height="9.5856" fill="#1E2120"/>
<rect x="415" y="162.391" width="9.5856" height="9.5856" fill="#1E2120"/>
<rect x="396.957" y="162.391" width="9.5856" height="9.5856" fill="#1E2120"/>
<rect x="378.913" y="162.391" width="9.5856" height="9.5856" fill="#1E2120"/>
<rect x="360.87" y="162.391" width="9.5856" height="9.5856" fill="#1E2120"/>
<rect x="342.826" y="162.391" width="9.5856" height="9.5856" fill="#1E2120"/>
<rect x="324.783" y="162.391" width="9.5856" height="9.5856" fill="#1E2120"/>
<rect x="306.739" y="162.391" width="9.5856" height="9.5856" fill="#1E2120"/>
<rect x="288.696" y="162.391" width="9.5856" height="9.5856" fill="#1E2120"/>
<rect x="270.652" y="162.391" width="9.5856" height="9.5856" fill="#1E2120"/>
<rect x="252.609" y="162.391" width="9.5856" height="9.5856" fill="#1E2120"/>
<rect x="234.565" y="162.391" width="9.5856" height="9.5856" fill="#1E2120"/>
<rect x="216.522" y="162.391" width="9.5856" height="9.5856" fill="#1E2120"/>
<rect x="198.479" y="162.391" width="9.5856" height="9.5856" fill="#1E2120"/>
<rect x="180.435" y="162.391" width="9.5856" height="9.5856" fill="#1E2120"/>
<rect x="162.391" y="162.391" width="9.5856" height="9.5856" fill="#1E2120"/>
<rect x="144.348" y="162.391" width="9.5856" height="9.5856" fill="#1E2120"/>
<rect x="126.304" y="162.391" width="9.5856" height="9.5856" fill="#1E2120"/>
<rect x="108.261" y="162.391" width="9.5856" height="9.5856" fill="#1E2120"/>
<rect x="90.2173" y="162.391" width="9.5856" height="9.5856" fill="#1E2120"/>
<rect x="72.1738" y="162.391" width="9.5856" height="9.5856" fill="#1E2120"/>
<rect x="54.1305" y="162.391" width="9.5856" height="9.5856" fill="#1E2120"/>
<rect x="36.0869" y="162.391" width="9.5856" height="9.5856" fill="#1E2120"/>
<rect x="18.0433" y="162.391" width="9.5856" height="9.5856" fill="#1E2120"/>
<rect x="451.087" y="90.2173" width="9.5856" height="9.5856" fill="#1E2120"/>
<rect x="433.044" y="90.2173" width="9.5856" height="9.5856" fill="#1E2120"/>
<rect x="415" y="90.2173" width="9.5856" height="9.5856" fill="#1E2120"/>
<rect x="396.957" y="90.2173" width="9.5856" height="9.5856" fill="#1E2120"/>
<rect x="378.913" y="90.2173" width="9.5856" height="9.5856" fill="#1E2120"/>
<rect x="360.87" y="90.2173" width="9.5856" height="9.5856" fill="#1E2120"/>
<rect x="342.826" y="90.2173" width="9.5856" height="9.5856" fill="#1E2120"/>
<rect x="324.783" y="90.2173" width="9.5856" height="9.5856" fill="#1E2120"/>
<rect x="306.739" y="90.2173" width="9.5856" height="9.5856" fill="#1E2120"/>
<rect x="288.696" y="90.2173" width="9.5856" height="9.5856" fill="#1E2120"/>
<rect x="270.652" y="90.2173" width="9.5856" height="9.5856" fill="#1E2120"/>
<rect x="252.609" y="90.2173" width="9.5856" height="9.5856" fill="#1E2120"/>
<rect x="234.565" y="90.2173" width="9.5856" height="9.5856" fill="#1E2120"/>
<rect x="216.522" y="90.2173" width="9.5856" height="9.5856" fill="#1E2120"/>
<rect x="198.479" y="90.2173" width="9.5856" height="9.5856" fill="#1E2120"/>
<rect x="180.435" y="90.2173" width="9.5856" height="9.5856" fill="#1E2120"/>
<rect x="162.391" y="90.2173" width="9.5856" height="9.5856" fill="#1E2120"/>
<rect x="144.348" y="90.2173" width="9.5856" height="9.5856" fill="#1E2120"/>
<rect x="126.304" y="90.2173" width="9.5856" height="9.5856" fill="#1E2120"/>
<rect x="108.261" y="90.2173" width="9.5856" height="9.5856" fill="#1E2120"/>
<rect x="90.2173" y="90.2173" width="9.5856" height="9.5856" fill="#1E2120"/>
<rect x="72.1738" y="90.2173" width="9.5856" height="9.5856" fill="#1E2120"/>
<rect x="451.087" y="18.0435" width="9.5856" height="9.5856" fill="#1E2120"/>
<rect x="433.044" y="18.0435" width="9.5856" height="9.5856" fill="#1E2120"/>
<rect x="415" y="18.0435" width="9.5856" height="9.5856" fill="#1E2120"/>
<rect x="396.957" y="18.0435" width="9.5856" height="9.5856" fill="#1E2120"/>
<rect x="378.913" y="18.0435" width="9.5856" height="9.5856" fill="#1E2120"/>
<rect x="360.87" y="18.0435" width="9.5856" height="9.5856" fill="#1E2120"/>
<rect x="342.826" y="18.0435" width="9.5856" height="9.5856" fill="#1E2120"/>
<rect x="324.783" y="18.0435" width="9.5856" height="9.5856" fill="#1E2120"/>
<rect x="144.348" y="18.0435" width="9.5856" height="9.5856" fill="#1E2120"/>
<rect x="126.304" y="18.0435" width="9.5856" height="9.5856" fill="#1E2120"/>
<rect x="108.261" y="18.0435" width="9.5856" height="9.5856" fill="#1E2120"/>
<rect x="90.2173" y="18.0435" width="9.5856" height="9.5856" fill="#1E2120"/>
<rect x="72.1738" y="18.0435" width="9.5856" height="9.5856" fill="#1E2120"/>
<rect x="433.044" width="9.5856" height="9.5856" fill="#1E2120"/>
<rect x="415" width="9.5856" height="9.5856" fill="#1E2120"/>
<rect x="396.957" width="9.5856" height="9.5856" fill="#1E2120"/>
<rect x="378.913" width="9.5856" height="9.5856" fill="#1E2120"/>
<rect x="522.697" y="288.696" width="9.5856" height="9.5856" fill="#1E2120"/>
<rect x="504.654" y="288.696" width="9.5856" height="9.5856" fill="#1E2120"/>
<rect x="522.697" y="216.522" width="9.5856" height="9.5856" fill="#1E2120"/>
<rect x="504.654" y="216.522" width="9.5856" height="9.5856" fill="#1E2120"/>
<rect x="522.697" y="144.348" width="9.5856" height="9.5856" fill="#1E2120"/>
<rect x="504.654" y="144.348" width="9.5856" height="9.5856" fill="#1E2120"/>
<rect x="522.697" y="396.957" width="9.5856" height="9.5856" fill="#1E2120"/>
<rect x="504.654" y="396.957" width="9.5856" height="9.5856" fill="#1E2120"/>
<rect x="504.654" y="324.783" width="9.5856" height="9.5856" fill="#1E2120"/>
<rect x="522.697" y="252.609" width="9.5856" height="9.5856" fill="#1E2120"/>
<rect x="504.654" y="252.609" width="9.5856" height="9.5856" fill="#1E2120"/>
<rect x="522.697" y="180.435" width="9.5856" height="9.5856" fill="#1E2120"/>
<rect x="504.654" y="180.435" width="9.5856" height="9.5856" fill="#1E2120"/>
<rect x="522.697" y="108.261" width="9.5856" height="9.5856" fill="#1E2120"/>
<rect x="504.654" y="108.261" width="9.5856" height="9.5856" fill="#1E2120"/>
<rect x="522.697" y="270.652" width="9.5856" height="9.5856" fill="#1E2120"/>
<rect x="504.654" y="270.652" width="9.5856" height="9.5856" fill="#1E2120"/>
<rect x="522.697" y="198.478" width="9.5856" height="9.5856" fill="#1E2120"/>
<rect x="504.654" y="198.478" width="9.5856" height="9.5856" fill="#1E2120"/>
<rect x="522.697" y="126.304" width="9.5856" height="9.5856" fill="#1E2120"/>
<rect x="504.654" y="126.304" width="9.5856" height="9.5856" fill="#1E2120"/>
<rect x="522.697" y="306.739" width="9.5856" height="9.5856" fill="#1E2120"/>
<rect x="504.654" y="306.739" width="9.5856" height="9.5856" fill="#1E2120"/>
<rect x="522.697" y="234.565" width="9.5856" height="9.5856" fill="#1E2120"/>
<rect x="504.654" y="234.565" width="9.5856" height="9.5856" fill="#1E2120"/>
<rect x="522.697" y="162.391" width="9.5856" height="9.5856" fill="#1E2120"/>
<rect x="504.654" y="162.391" width="9.5856" height="9.5856" fill="#1E2120"/>
<rect x="594.871" y="288.696" width="9.5856" height="9.5856" fill="#1E2120"/>
<rect x="576.827" y="288.696" width="9.5856" height="9.5856" fill="#1E2120"/>
<rect x="594.871" y="216.522" width="9.5856" height="9.5856" fill="#1E2120"/>
<rect x="576.827" y="216.522" width="9.5856" height="9.5856" fill="#1E2120"/>
<rect x="594.871" y="144.348" width="9.5856" height="9.5856" fill="#1E2120"/>
<rect x="576.827" y="144.348" width="9.5856" height="9.5856" fill="#1E2120"/>
<rect x="594.871" y="252.609" width="9.5856" height="9.5856" fill="#1E2120"/>
<rect x="576.827" y="252.609" width="9.5856" height="9.5856" fill="#1E2120"/>
<rect x="594.871" y="180.435" width="9.5856" height="9.5856" fill="#1E2120"/>
<rect x="576.827" y="180.435" width="9.5856" height="9.5856" fill="#1E2120"/>
<rect x="594.871" y="270.652" width="9.5856" height="9.5856" fill="#1E2120"/>
<rect x="576.827" y="270.652" width="9.5856" height="9.5856" fill="#1E2120"/>
<rect x="594.871" y="198.478" width="9.5856" height="9.5856" fill="#1E2120"/>
<rect x="576.827" y="198.478" width="9.5856" height="9.5856" fill="#1E2120"/>
<rect x="576.827" y="126.304" width="9.5856" height="9.5856" fill="#1E2120"/>
<rect x="594.871" y="234.565" width="9.5856" height="9.5856" fill="#1E2120"/>
<rect x="576.827" y="234.565" width="9.5856" height="9.5856" fill="#1E2120"/>
<rect x="594.871" y="162.391" width="9.5856" height="9.5856" fill="#1E2120"/>
<rect x="576.827" y="162.391" width="9.5856" height="9.5856" fill="#1E2120"/>
<rect x="487.174" y="288.696" width="9.5856" height="9.5856" fill="#1E2120"/>
<rect x="469.13" y="288.696" width="9.5856" height="9.5856" fill="#1E2120"/>
<rect x="487.174" y="216.522" width="9.5856" height="9.5856" fill="#1E2120"/>
<rect x="469.13" y="216.522" width="9.5856" height="9.5856" fill="#1E2120"/>
<rect x="487.174" y="144.348" width="9.5856" height="9.5856" fill="#1E2120"/>
<rect x="469.13" y="144.348" width="9.5856" height="9.5856" fill="#1E2120"/>
<rect x="487.174" y="72.1738" width="9.5856" height="9.5856" fill="#1E2120"/>
<rect x="469.13" y="72.1738" width="9.5856" height="9.5856" fill="#1E2120"/>
<rect x="487.174" y="396.957" width="9.5856" height="9.5856" fill="#1E2120"/>
<rect x="469.13" y="396.957" width="9.5856" height="9.5856" fill="#1E2120"/>
<rect x="487.174" y="324.783" width="9.5856" height="9.5856" fill="#1E2120"/>
<rect x="469.13" y="324.783" width="9.5856" height="9.5856" fill="#1E2120"/>
<rect x="487.174" y="252.609" width="9.5856" height="9.5856" fill="#1E2120"/>
<rect x="469.13" y="252.609" width="9.5856" height="9.5856" fill="#1E2120"/>
<rect x="487.174" y="180.435" width="9.5856" height="9.5856" fill="#1E2120"/>
<rect x="469.13" y="180.435" width="9.5856" height="9.5856" fill="#1E2120"/>
<rect x="487.174" y="108.261" width="9.5856" height="9.5856" fill="#1E2120"/>
<rect x="469.13" y="108.261" width="9.5856" height="9.5856" fill="#1E2120"/>
<rect x="487.174" y="415" width="9.5856" height="9.5856" fill="#1E2120"/>
<rect x="469.13" y="415" width="9.5856" height="9.5856" fill="#1E2120"/>
<rect x="487.174" y="342.826" width="9.5856" height="9.5856" fill="#1E2120"/>
<rect x="469.13" y="342.826" width="9.5856" height="9.5856" fill="#1E2120"/>
<rect x="487.174" y="270.652" width="9.5856" height="9.5856" fill="#1E2120"/>
<rect x="469.13" y="270.652" width="9.5856" height="9.5856" fill="#1E2120"/>
<rect x="487.174" y="198.478" width="9.5856" height="9.5856" fill="#1E2120"/>
<rect x="469.13" y="198.478" width="9.5856" height="9.5856" fill="#1E2120"/>
<rect x="487.174" y="126.304" width="9.5856" height="9.5856" fill="#1E2120"/>
<rect x="469.13" y="126.304" width="9.5856" height="9.5856" fill="#1E2120"/>
<rect x="469.13" y="378.913" width="9.5856" height="9.5856" fill="#1E2120"/>
<rect x="487.174" y="306.739" width="9.5856" height="9.5856" fill="#1E2120"/>
<rect x="469.13" y="306.739" width="9.5856" height="9.5856" fill="#1E2120"/>
<rect x="487.174" y="234.565" width="9.5856" height="9.5856" fill="#1E2120"/>
<rect x="469.13" y="234.565" width="9.5856" height="9.5856" fill="#1E2120"/>
<rect x="487.174" y="162.391" width="9.5856" height="9.5856" fill="#1E2120"/>
<rect x="469.13" y="162.391" width="9.5856" height="9.5856" fill="#1E2120"/>
<rect x="487.174" y="90.2173" width="9.5856" height="9.5856" fill="#1E2120"/>
<rect x="469.13" y="90.2173" width="9.5856" height="9.5856" fill="#1E2120"/>
<rect x="558.784" y="288.696" width="9.5856" height="9.5856" fill="#1E2120"/>
<rect x="540.74" y="288.696" width="9.5856" height="9.5856" fill="#1E2120"/>
<rect x="558.784" y="216.522" width="9.5856" height="9.5856" fill="#1E2120"/>
<rect x="540.74" y="216.522" width="9.5856" height="9.5856" fill="#1E2120"/>
<rect x="558.784" y="144.348" width="9.5856" height="9.5856" fill="#1E2120"/>
<rect x="540.74" y="144.348" width="9.5856" height="9.5856" fill="#1E2120"/>
<rect x="558.784" y="252.609" width="9.5856" height="9.5856" fill="#1E2120"/>
<rect x="540.74" y="252.609" width="9.5856" height="9.5856" fill="#1E2120"/>
<rect x="558.784" y="180.435" width="9.5856" height="9.5856" fill="#1E2120"/>
<rect x="540.74" y="180.435" width="9.5856" height="9.5856" fill="#1E2120"/>
<rect x="558.784" y="108.261" width="9.5856" height="9.5856" fill="#1E2120"/>
<rect x="558.784" y="270.652" width="9.5856" height="9.5856" fill="#1E2120"/>
<rect x="540.74" y="270.652" width="9.5856" height="9.5856" fill="#1E2120"/>
<rect x="558.784" y="198.478" width="9.5856" height="9.5856" fill="#1E2120"/>
<rect x="540.74" y="198.478" width="9.5856" height="9.5856" fill="#1E2120"/>
<rect x="558.784" y="126.304" width="9.5856" height="9.5856" fill="#1E2120"/>
<rect x="540.74" y="126.304" width="9.5856" height="9.5856" fill="#1E2120"/>
<rect x="558.784" y="306.739" width="9.5856" height="9.5856" fill="#1E2120"/>
<rect x="540.74" y="306.739" width="9.5856" height="9.5856" fill="#1E2120"/>
<rect x="558.784" y="234.565" width="9.5856" height="9.5856" fill="#1E2120"/>
<rect x="540.74" y="234.565" width="9.5856" height="9.5856" fill="#1E2120"/>
<rect x="558.784" y="162.391" width="9.5856" height="9.5856" fill="#1E2120"/>
<rect x="540.74" y="162.391" width="9.5856" height="9.5856" fill="#1E2120"/>
<rect x="630.958" y="216.522" width="9.5856" height="9.5856" fill="#1E2120"/>
<rect x="612.915" y="216.522" width="9.5856" height="9.5856" fill="#1E2120"/>
<rect x="630.958" y="144.348" width="9.5856" height="9.5856" fill="#1E2120"/>
<rect x="612.915" y="144.348" width="9.5856" height="9.5856" fill="#1E2120"/>
<rect x="630.958" y="252.609" width="9.5856" height="9.5856" fill="#1E2120"/>
<rect x="612.915" y="252.609" width="9.5856" height="9.5856" fill="#1E2120"/>
<rect x="630.958" y="180.435" width="9.5856" height="9.5856" fill="#1E2120"/>
<rect x="612.915" y="180.435" width="9.5856" height="9.5856" fill="#1E2120"/>
<rect x="630.958" y="198.478" width="9.5856" height="9.5856" fill="#1E2120"/>
<rect x="612.915" y="198.478" width="9.5856" height="9.5856" fill="#1E2120"/>
<rect x="630.958" y="234.565" width="9.5856" height="9.5856" fill="#1E2120"/>
<rect x="612.915" y="234.565" width="9.5856" height="9.5856" fill="#1E2120"/>
<rect x="630.958" y="162.391" width="9.5856" height="9.5856" fill="#1E2120"/>
<rect x="612.915" y="162.391" width="9.5856" height="9.5856" fill="#1E2120"/>
<rect x="649.001" y="216.522" width="9.5856" height="9.5856" fill="#1E2120"/>
<rect x="649.001" y="144.348" width="9.5856" height="9.5856" fill="#1E2120"/>
<rect x="649.001" y="252.609" width="9.5856" height="9.5856" fill="#1E2120"/>
<rect x="667.045" y="180.435" width="9.5856" height="9.5856" fill="#1E2120"/>
<rect x="649.001" y="180.435" width="9.5856" height="9.5856" fill="#1E2120"/>
<rect x="667.045" y="198.478" width="9.5856" height="9.5856" fill="#1E2120"/>
<rect x="649.001" y="198.478" width="9.5856" height="9.5856" fill="#1E2120"/>
<rect x="649.001" y="234.565" width="9.5856" height="9.5856" fill="#1E2120"/>
<rect x="667.045" y="162.391" width="9.5856" height="9.5856" fill="#1E2120"/>
<rect x="649.001" y="162.391" width="9.5856" height="9.5856" fill="#1E2120"/>
</g>
</svg>
